<svg width="59" height="70" viewBox="0 0 59 70" fill="none" xmlns="http://www.w3.org/2000/svg">
<path d="M40.4225 69.0991C37.7045 68.9575 34.6563 68.735 31.6276 68.6743C28.5988 68.6136 25.8225 69.0587 22.9103 68.9171C19.1438 68.735 15.5326 68.0472 12.3291 65.741C10.3586 64.3563 8.76114 62.469 7.68894 60.2588C5.84452 56.4759 5.72804 52.4907 6.25224 48.4043C6.67937 45.0867 7.84427 41.9915 9.28097 39.0582C10.6359 36.3335 12.298 33.7868 14.2318 31.4722C15.6639 29.7236 17.2499 28.1185 18.969 26.6777C22.0366 24.1491 25.4536 22.3688 29.3949 21.7417C32.1906 21.2765 34.9281 21.3574 37.6074 22.3284C40.2866 23.2994 42.2281 24.6548 43.7619 26.961C44.422 27.9522 45.1792 28.8828 46.3247 29.348C46.6159 29.4694 46.8683 29.3885 47.1401 29.3885C49.4505 29.4694 51.7609 29.4694 54.0713 29.611C56.3816 29.7526 57.2747 30.5821 57.4883 33.0501C57.6436 35.0123 57.5659 36.9746 57.0417 38.8964C56.859 39.5909 56.5635 40.2478 56.1681 40.8384C55.8574 41.2835 55.8574 41.7083 56.3428 42.0724C56.4596 42.1938 56.552 42.3383 56.6146 42.4973C57.5212 44.5013 58.1613 46.6247 58.5173 48.8089C58.7005 49.7041 58.8366 50.609 58.925 51.5197C59.0997 54.0888 58.5173 56.5366 57.7795 58.9641C57.0417 61.3917 55.7409 63.0505 54.1295 64.6082C52.5181 66.1659 51.1396 66.7727 49.3922 67.501C46.5771 68.6946 43.7037 69.0789 40.4225 69.0991ZM30.5209 65.3769C29.3366 64.7498 28.0746 64.325 26.9292 63.6979C24.7935 62.5043 23.1044 60.8859 22.3666 58.4382C21.8424 56.658 22.0948 55.1407 23.6674 54.109C24.3858 53.6438 24.9877 53.1178 25.3371 52.2884C25.7955 51.1364 26.4316 50.0704 27.2204 49.1326C28.5406 47.6356 30.0938 46.5634 31.8023 45.6733C32.443 45.3496 33.1808 45.208 33.4526 44.3179C33.8409 42.9423 34.3457 41.6072 34.8116 40.272C34.8893 40.009 34.9864 39.7663 35.0834 39.5235C35.5688 38.512 36.2483 38.2895 37.1414 38.9166C38.1397 39.5744 39.0365 40.3861 39.8013 41.324C40.9273 42.7603 42.2087 44.0752 43.1406 45.6733C43.3154 45.997 43.5095 46.0374 43.8396 45.9768C44.7909 45.734 45.6646 45.3092 46.5771 45.0057C48.4215 44.3584 50.1494 43.4076 51.5667 42.032C52.4219 41.2059 53.1084 40.2087 53.5855 39.0999C54.0625 37.9911 54.3201 36.7936 54.3431 35.5788C54.3625 34.628 54.4013 33.5558 53.4694 32.868C52.8287 32.4027 52.1103 32.3218 51.3726 32.2813C49.5087 32.16 47.6449 32.1195 45.8005 31.9577C43.9561 31.7958 42.8688 31.1283 42.0728 29.4694C41.3933 28.114 40.2866 27.1228 39.0053 26.3136C37.1802 25.201 35.2388 24.675 33.1225 24.5536C30.5598 24.3918 28.1523 24.938 25.8419 25.9495C23.5315 26.961 21.1823 28.7816 19.2214 30.7237C17.2605 32.6657 15.6491 34.81 14.1541 37.096C13.2995 38.4319 12.5402 39.8315 11.8826 41.2835C10.6983 43.7717 10.077 46.4623 9.61102 49.173C9.14506 51.8838 9.39746 54.5136 10.2129 57.1232C11.1642 60.1172 13.0669 62.2413 15.6685 63.7383C17.7265 64.9319 19.9398 65.4983 22.2696 65.7208C25.0265 65.9636 27.764 65.6399 30.5209 65.3769ZM39.743 66.3884C41.1991 66.3075 42.6553 66.2063 44.1114 65.9838C46.7589 65.6302 49.2701 64.5557 51.392 62.8684C51.4891 62.8078 51.6056 62.6864 51.6056 62.5852C51.6056 62.4841 51.4114 62.4234 51.2949 62.3829C50.1688 61.9581 49.2758 61.1489 48.5186 60.2791C47.3925 58.9641 46.5965 57.3862 45.8005 55.8285C45.0045 54.2709 44.5968 52.9155 43.8202 51.5399C42.8494 49.8001 41.8787 48.0604 40.6944 46.4623C39.51 44.8641 38.5199 43.8324 37.4326 42.5175C36.9279 41.8701 36.7725 41.9106 36.5201 42.7198C36.2677 43.529 36.1318 44.1359 35.9377 44.8439C35.7435 45.5519 35.2582 46.7455 34.3068 47.231C33.3555 47.7165 32.6177 48.0199 31.8217 48.4448C30.3074 49.2742 28.9677 50.3261 28.2105 51.9445C27.5126 53.5345 26.461 54.9284 25.143 56.0106C24.911 56.1801 24.7394 56.4248 24.6551 56.7067C24.5708 56.9885 24.5785 57.2915 24.677 57.5683C25.3371 60.0565 27.0651 61.3917 29.2784 62.1199C31.1422 62.7268 32.8701 63.4753 33.8797 65.3769C33.9647 65.5813 34.1021 65.7573 34.2767 65.8858C34.4514 66.0142 34.6566 66.0901 34.8699 66.1052L39.743 66.3884Z" fill="#1E8386"/>
<path d="M31.9965 9.50313C31.8606 12.0116 31.2199 14.3987 29.6473 16.3205C27.1622 19.3752 23.4151 20.6901 19.7069 18.2423C18.873 17.6899 18.1427 16.9838 17.5518 16.1587C15.1443 12.9219 14.7366 9.30083 16.1151 5.57859C17.4936 1.85635 20.5805 -0.389131 24.5412 0.0559197C26.0944 0.237986 27.4728 0.92579 28.7154 2.01819C29.958 3.11058 31.0064 4.9717 31.5888 6.87328C31.8408 7.72604 31.978 8.61109 31.9965 9.50313Z" fill="#FF7816"/>
<path d="M36.3845 11.3863C36.3873 8.93138 37.1879 6.54975 38.6561 4.62966C40.8694 1.7773 44.2282 0.138702 47.9364 1.51431C50.9458 2.64717 52.9067 5.66137 52.9649 9.01948C53.0037 11.0627 52.7125 13.0654 51.6835 14.8051C49.9168 17.8193 47.4705 19.8423 43.9175 19.9637C40.85 20.0648 37.9377 17.9609 37.0447 14.9063C36.8311 14.2185 36.4622 13.5711 36.404 12.8631C36.3684 12.3717 36.3619 11.8785 36.3845 11.3863Z" fill="#FF7816"/>
<path d="M6.6989 13.0232C8.52344 13.1078 10.2646 13.8435 11.6303 15.1069C13.3388 16.6646 14.096 18.6268 14.4261 20.9128C14.7561 23.1987 14.1737 24.6552 13.2029 26.2736C12.2322 27.892 9.43641 29.1664 7.37843 28.8225C5.62613 28.5375 4.00566 27.681 2.74984 26.3761C1.49403 25.0712 0.66751 23.3851 0.389047 21.5601C0.0784075 19.4562 0.311389 17.4333 1.4957 15.6329C2.44703 14.1966 4.58268 12.9423 6.6989 13.0232Z" fill="#FF7816"/>
<path d="M30.5212 65.3809C27.7643 65.6439 25.0267 65.9675 22.2698 65.7248C19.94 65.5023 17.7267 64.9358 15.6687 63.7423C13.0671 62.2453 11.1645 60.1212 10.2131 57.1272C9.39771 54.5176 9.1259 51.8473 9.61127 49.177C10.0966 46.5067 10.6985 43.7757 11.8828 41.2875C12.5405 39.8355 13.2997 38.4359 14.1544 37.0999C15.6493 34.814 17.2802 32.6292 19.2217 30.7276C21.1632 28.8261 23.3376 27.0661 25.8422 25.9535C28.3467 24.8408 30.56 24.3958 33.1228 24.5576C35.239 24.679 37.1805 25.205 39.0055 26.3176C40.2869 27.1268 41.3936 28.118 42.0731 29.4734C42.8691 31.1322 44.1699 31.82 45.8007 31.9616C47.4316 32.1032 49.509 32.1639 51.3728 32.2853C52.1106 32.3258 52.829 32.4067 53.4696 32.872C54.4016 33.5598 54.3627 34.6319 54.3433 35.5827C54.3204 36.7976 54.0627 37.9951 53.5857 39.1039C53.1087 40.2126 52.4221 41.2098 51.567 42.036C50.1497 43.4116 48.4218 44.3624 46.5773 45.0097C45.6648 45.3131 44.7912 45.738 43.8398 45.9807C43.5098 46.0414 43.3156 46.001 43.1409 45.6773C42.209 44.0791 40.9276 42.7642 39.8015 41.3279C39.0367 40.3901 38.1399 39.5784 37.1417 38.9206C36.2486 38.2935 35.5691 38.516 35.0837 39.5275C34.9866 39.7702 34.8895 40.013 34.8119 40.276C34.3459 41.6111 33.8411 42.9463 33.4528 44.3219C33.181 45.212 32.4433 45.3536 31.8026 45.6773C30.094 46.5674 28.5409 47.6396 27.2206 49.1365C26.4319 50.0744 25.7957 51.1404 25.3374 52.2923C24.9879 53.1218 24.386 53.6477 23.6677 54.113C22.0951 55.1447 21.8427 56.6619 22.3669 58.4421C23.1047 60.8899 24.7938 62.5083 26.9294 63.7018C28.0749 64.3289 29.3369 64.7538 30.5212 65.3809ZM28.4632 38.2733C28.4632 39.6084 28.4438 40.5592 28.1137 41.4695C27.7837 42.3799 27.5313 43.007 26.7935 43.4723C24.9103 44.686 22.9882 44.3421 21.1049 43.5734C19.8382 43.0327 18.6794 42.2506 17.6879 41.2672C17.484 41.0568 17.2128 40.9321 16.9261 40.9172C16.6395 40.9022 16.3577 40.9981 16.1347 41.1863C15.6299 41.5707 15.6299 42.1169 15.9017 42.7035C16.1735 43.2902 16.756 43.8364 17.2802 44.3219C19.5711 46.4258 22.1922 47.3766 25.2209 47.0327C27.5895 46.7697 29.4145 45.5357 30.4629 43.2497C31.8802 40.1142 31.6084 36.9179 30.5018 33.7621C30.1717 32.8113 29.7446 31.8605 28.9097 31.2131C28.502 30.9097 28.0943 30.7074 27.6089 30.9704C27.3871 31.0886 27.2084 31.279 27.0998 31.5126C26.9912 31.7463 26.9586 32.0104 27.0071 32.2651C27.0552 32.53 27.1334 32.7881 27.2401 33.0338C27.9778 34.8342 28.5409 36.6549 28.4632 38.2733ZM38.5395 35.3804C39.4909 35.4007 40.3451 34.5915 40.3451 33.6811C40.3451 32.7708 39.6074 32.0021 38.656 31.9616C38.4326 31.9563 38.2104 31.9972 38.0022 32.0819C37.794 32.1667 37.6041 32.2937 37.4434 32.4555C37.2827 32.6173 37.1544 32.8108 37.0659 33.0246C36.9775 33.2385 36.9306 33.4685 36.9281 33.7014C36.9281 34.1467 37.0979 34.5738 37.4001 34.8886C37.7023 35.2035 38.1122 35.3804 38.5395 35.3804Z" fill="#FF7816"/>
<path d="M39.7432 66.389L34.87 66.1058C34.6567 66.0908 34.4515 66.0149 34.2769 65.8864C34.1022 65.758 33.9649 65.5819 33.8798 65.3775C32.8703 63.476 31.1423 62.7275 29.2785 62.1206C27.0652 61.3923 25.3373 60.0572 24.6772 57.5689C24.5786 57.2921 24.5709 56.9891 24.6552 56.7073C24.7395 56.4255 24.9111 56.1807 25.1431 56.0113C26.4611 54.929 27.5127 53.5352 28.2107 51.9451C28.9679 50.3267 30.3075 49.2748 31.8219 48.4454C32.6179 48.0206 33.4721 47.6564 34.307 47.2316C35.1418 46.8068 35.6466 45.8156 35.9378 44.8445C36.229 43.8735 36.2873 43.4082 36.5203 42.7204C36.7533 42.0326 36.928 41.8708 37.4328 42.5181C38.52 43.8331 39.6849 45.0873 40.6945 46.4629C41.7041 47.8385 42.8495 49.8008 43.8203 51.5405C44.5969 52.9161 45.1017 54.4131 45.8006 55.8292C46.4996 57.2453 47.3926 58.9648 48.5187 60.2797C49.2759 61.1496 50.169 61.9587 51.295 62.3836C51.4115 62.424 51.6251 62.4038 51.6057 62.5859C51.5863 62.7679 51.4892 62.8084 51.3921 62.8691C49.2703 64.5563 46.759 65.6309 44.1115 65.9844C42.6554 66.207 41.1993 66.3081 39.7432 66.389ZM31.5889 55.6269C32.5014 55.6269 33.1032 55.0605 33.1032 54.1704C33.1112 53.9537 33.0767 53.7377 33.0019 53.5354C32.9272 53.333 32.8137 53.1487 32.6684 52.9935C32.5231 52.8383 32.3491 52.7156 32.1568 52.6327C31.9645 52.5499 31.7581 52.5086 31.55 52.5115C31.1686 52.5243 30.8047 52.6812 30.5261 52.9529C30.2475 53.2246 30.0732 53.5926 30.0357 53.9883C30.0276 54.204 30.0622 54.4191 30.1371 54.6204C30.2121 54.8216 30.3259 55.0047 30.4715 55.1583C30.617 55.3119 30.7913 55.4328 30.9835 55.5133C31.1757 55.5939 31.3818 55.6326 31.5889 55.6269Z" fill="#5BBBBD"/>
<path d="M28.4632 38.2681C28.5408 36.6497 27.9778 34.8291 27.24 33.0286C27.1334 32.7829 27.0552 32.5249 27.007 32.2599C26.9586 32.0053 26.9911 31.7411 27.0997 31.5075C27.2084 31.2738 27.3871 31.0835 27.6089 30.9652C28.0943 30.7022 28.502 30.9045 28.9097 31.208C29.7446 31.8553 30.1717 32.8061 30.5017 33.7569C31.6084 36.9127 31.8802 40.109 30.4629 43.2446C29.4145 45.5305 27.5895 46.7645 25.2209 47.0275C22.1921 47.3714 19.5711 46.4206 17.2802 44.3167C16.756 43.8312 16.2317 43.3862 15.9017 42.6984C15.5716 42.0106 15.6299 41.5655 16.1347 41.1812C16.3577 40.9929 16.6395 40.8971 16.9261 40.912C17.2128 40.927 17.484 41.0516 17.6879 41.2621C18.6794 42.2455 19.8382 43.0276 21.1049 43.5682C22.9882 44.337 24.9102 44.6809 26.7935 43.4671C27.5313 43.0018 27.8225 42.2331 28.1137 41.4644C28.4049 40.6956 28.4632 39.6033 28.4632 38.2681Z" fill="#1E8386"/>
<path d="M38.5394 35.3763C38.112 35.3763 37.7022 35.1994 37.4 34.8845C37.0978 34.5696 36.928 34.1426 36.928 33.6972C36.9305 33.4644 36.9773 33.2344 37.0658 33.0205C37.1542 32.8066 37.2825 32.6132 37.4432 32.4514C37.604 32.2896 37.7939 32.1626 38.0021 32.0778C38.2102 31.993 38.4325 31.9521 38.6559 31.9575C39.6072 31.998 40.345 32.7262 40.345 33.677C40.345 34.6278 39.4907 35.3965 38.5394 35.3763Z" fill="#1E8386"/>
<path d="M31.589 55.6253C31.3819 55.631 31.1759 55.5923 30.9837 55.5117C30.7915 55.4311 30.6172 55.3103 30.4716 55.1567C30.326 55.0031 30.2122 54.82 30.1373 54.6188C30.0623 54.4175 30.0278 54.2024 30.0358 53.9867C30.0733 53.591 30.2476 53.223 30.5262 52.9513C30.8048 52.6796 31.1688 52.5227 31.5502 52.5099C31.7582 52.507 31.9647 52.5482 32.1569 52.6311C32.3492 52.714 32.5233 52.8367 32.6686 52.9919C32.8138 53.1471 32.9273 53.3314 33.0021 53.5337C33.0768 53.7361 33.1113 53.9521 33.1034 54.1687C33.1034 55.0588 32.5015 55.6253 31.589 55.6253Z" fill="#1E8386"/>
</svg>
