<svg width="32" height="30" viewBox="0 0 32 30" fill="none" xmlns="http://www.w3.org/2000/svg">
<path fill-rule="evenodd" clip-rule="evenodd" d="M28.6906 13.8545C28.6609 13.8542 28.6221 13.8542 28.559 13.8542H24.7636C22.6878 13.8542 21.1458 15.3982 21.1458 17.1354C21.1458 18.8727 22.6878 20.4167 24.7636 20.4167H28.559C28.6221 20.4167 28.6609 20.4167 28.6906 20.4163C28.7185 20.416 28.7262 20.4156 28.7262 20.4156C29.0267 20.3973 29.1561 20.1944 29.1659 20.0724C29.1659 20.0724 29.1662 20.0632 29.1663 20.05C29.1666 20.0241 29.1667 19.9896 29.1667 19.9306V14.3403C29.1667 14.3076 29.1667 14.2824 29.1666 14.2621C29.1666 14.2457 29.1665 14.2324 29.1663 14.2208C29.1662 14.2076 29.1659 14.1984 29.1659 14.1984C29.1561 14.0764 29.0267 13.8736 28.7262 13.8553C28.7262 13.8553 28.719 13.8548 28.6906 13.8545ZM28.5832 11.6667C28.68 11.6666 28.7733 11.6666 28.8591 11.6718C30.1298 11.7491 31.2536 12.7076 31.3481 14.0464C31.3543 14.1341 31.3542 14.2288 31.3542 14.3165C31.3542 14.3245 31.3542 14.3324 31.3542 14.3403V19.9306C31.3542 19.9384 31.3542 19.9464 31.3542 19.9544C31.3542 20.0421 31.3543 20.1367 31.3481 20.2245C31.2536 21.5632 30.1298 22.5217 28.8591 22.599C28.7733 22.6042 28.68 22.6042 28.5832 22.6042C28.5751 22.6042 28.5671 22.6042 28.559 22.6042H24.7636C21.6352 22.6042 18.9583 20.2306 18.9583 17.1354C18.9583 14.0402 21.6352 11.6667 24.7636 11.6667H28.559C28.5671 11.6667 28.5752 11.6667 28.5832 11.6667Z" fill="black"/>
<path d="M25.8854 17.1354C25.8854 17.9408 25.2325 18.5938 24.4271 18.5938C23.6217 18.5938 22.9688 17.9408 22.9688 17.1354C22.9688 16.33 23.6217 15.6771 24.4271 15.6771C25.2325 15.6771 25.8854 16.33 25.8854 17.1354Z" fill="black"/>
<path fill-rule="evenodd" clip-rule="evenodd" d="M28.5832 11.6667C28.68 11.6666 28.7733 11.6666 28.8591 11.6718C29.1878 11.6918 29.5068 11.7708 29.8006 11.9001C29.6446 9.55738 29.215 7.75196 27.8669 6.40389C26.7756 5.31253 25.3917 4.82819 23.6819 4.59832L23.6202 4.59016C23.6049 4.57883 23.5892 4.56783 23.5732 4.55718L18.1256 0.945085C16.2252 -0.315028 13.6707 -0.315029 11.7702 0.945085L6.32266 4.55718C6.3066 4.56783 6.29092 4.57883 6.27561 4.59016L6.21393 4.59832C4.50414 4.8282 3.12026 5.31253 2.0289 6.4039C0.937534 7.49526 0.453196 8.87914 0.223322 10.5889C-4.10713e-05 12.2503 -2.26526e-05 14.3731 4.6902e-07 17.0531V17.2177C-2.26526e-05 19.8978 -4.10713e-05 22.0206 0.223322 23.6819C0.453197 25.3917 0.937534 26.7756 2.0289 27.8669C3.12026 28.9583 4.50414 29.4426 6.21393 29.6725C7.87528 29.8959 9.99808 29.8959 12.6782 29.8958H17.2177C19.8978 29.8959 22.0206 29.8959 23.6819 29.6725C25.3917 29.4426 26.7756 28.9583 27.8669 27.8669C29.215 26.5189 29.6446 24.7135 29.8006 22.3707C29.5068 22.5 29.1878 22.579 28.8591 22.599C28.7733 22.6042 28.68 22.6042 28.5832 22.6042L28.559 22.6042H27.5886C27.4226 24.5605 27.0472 25.5931 26.3201 26.3201C25.703 26.9373 24.8576 27.3073 23.3904 27.5045C21.8918 27.706 19.9162 27.7083 17.1354 27.7083H12.7604C9.97964 27.7083 8.00408 27.706 6.50541 27.5045C5.03819 27.3073 4.19287 26.9373 3.57569 26.3201C2.95851 25.703 2.58858 24.8576 2.39132 23.3904C2.18982 21.8918 2.1875 19.9162 2.1875 17.1354C2.1875 14.3546 2.18982 12.3791 2.39132 10.8804C2.58858 9.41319 2.95851 8.56787 3.57569 7.95069C4.19287 7.33351 5.03819 6.96358 6.5054 6.76631C8.00408 6.56482 9.97964 6.5625 12.7604 6.5625H17.1354C19.9162 6.5625 21.8918 6.56482 23.3904 6.76631C24.8576 6.96358 25.703 7.33351 26.3201 7.95069C27.0472 8.67772 27.4226 9.71038 27.5886 11.6667H28.559L28.5832 11.6667ZM12.6781 4.375H17.2177C17.9709 4.37499 18.6801 4.37499 19.3475 4.37994L16.9167 2.76822C15.749 1.99393 14.1468 1.99393 12.9791 2.76822L10.5484 4.37994C11.2157 4.37499 11.9249 4.37499 12.6781 4.375Z" fill="black"/>
<path d="M6.92708 10.2083C6.32302 10.2083 5.83333 10.698 5.83333 11.3021C5.83333 11.9061 6.32302 12.3958 6.92708 12.3958H12.7604C13.3645 12.3958 13.8542 11.9061 13.8542 11.3021C13.8542 10.698 13.3645 10.2083 12.7604 10.2083H6.92708Z" fill="black"/>
<path fill-rule="evenodd" clip-rule="evenodd" d="M25.8854 17.1354C25.8854 17.9408 25.2325 18.5938 24.4271 18.5938C23.6217 18.5938 22.9688 17.9408 22.9688 17.1354C22.9688 16.33 23.6217 15.6771 24.4271 15.6771C25.2325 15.6771 25.8854 16.33 25.8854 17.1354Z" fill="black"/>
</svg>
