<svg width="32" height="35" viewBox="0 0 32 35" fill="none" xmlns="http://www.w3.org/2000/svg">
<path d="M30.1026 4.41443C30.1026 6.85245 28.2658 8.82886 26 8.82886C23.7342 8.82886 21.8974 6.85245 21.8974 4.41443C21.8974 1.97641 23.7342 0 26 0C28.2658 0 30.1026 1.97641 30.1026 4.41443Z" fill="black"/>
<path fill-rule="evenodd" clip-rule="evenodd" d="M12.8036 5.30115C13.1474 5.25006 13.5548 5.20356 13.9864 5.22414C14.1177 5.23041 14.2668 5.24186 14.4349 5.26063C18.3448 5.69733 21.246 8.85493 23.1782 11.9735L23.2805 12.1385C24.2697 13.735 25.9349 14.6939 27.7181 14.6939H30.7692C31.449 14.6939 32 15.2868 32 16.0182C32 16.7496 31.449 17.3426 30.7692 17.3426H27.7181C25.1119 17.3426 22.6781 15.9411 21.2324 13.6078L21.1301 13.4427C20.683 12.7211 20.2026 12.0359 19.6905 11.4086L16.5988 15.5664C15.8974 16.5097 15.4269 17.1447 15.1099 17.6664C14.8027 18.1718 14.715 18.4535 14.6917 18.6674C14.6533 19.0206 14.6947 19.3785 14.8124 19.7107C14.8837 19.9119 15.033 20.162 15.4459 20.5709C15.8721 20.993 16.4729 21.4845 17.3678 22.214C17.4207 22.2572 17.4729 22.2997 17.5244 22.3416C18.7073 23.3051 19.5264 23.9723 20.0933 24.8637C20.4156 25.3705 20.6708 25.923 20.8516 26.5054C21.1696 27.53 21.1692 28.6354 21.1686 30.2318C21.1686 30.3013 21.1686 30.3717 21.1686 30.4431V33.6757C21.1686 34.4071 20.6176 35 19.9378 35C19.2581 35 18.7071 34.4071 18.7071 33.6757V30.4431C18.7071 28.5528 18.6922 27.9092 18.5169 27.3445C18.4084 26.9951 18.2553 26.6635 18.0619 26.3595C17.7494 25.8681 17.2817 25.4668 15.8814 24.3253L15.834 24.2866C14.9986 23.6057 14.3023 23.0381 13.7789 22.5198C13.2323 21.9785 12.7762 21.3988 12.5124 20.6544C12.2534 19.9235 12.1623 19.1361 12.2469 18.3592C12.3331 17.5679 12.6432 16.8856 13.0498 16.2167C13.4391 15.5761 13.9849 14.8422 14.6397 13.9616L17.8949 9.58376C16.7672 8.6607 15.5255 8.04533 14.1807 7.89514C14.0591 7.88155 13.9584 7.87407 13.8774 7.8702C13.6675 7.86019 13.4326 7.88148 13.1403 7.92491C11.3921 8.18468 9.64022 9.22973 5.83579 11.5557L3.47981 12.996C2.88881 13.3574 2.13749 13.1348 1.80169 12.4988C1.4659 11.8629 1.67278 11.0545 2.26378 10.6932L4.61977 9.25277C4.70382 9.20138 4.78711 9.15044 4.86968 9.09995C8.34713 6.97335 10.5288 5.63915 12.8036 5.30115ZM11.8648 23.8297C12.387 24.298 12.4576 25.1331 12.0224 25.6949L10.3801 27.8155C10.3266 27.8846 10.2739 27.9528 10.2219 28.0201C9.16821 29.3826 8.39474 30.3828 7.31498 30.927C6.23523 31.4711 5.02597 31.4702 3.37867 31.4689C3.29729 31.4688 3.21484 31.4688 3.13128 31.4688H1.23077C0.551034 31.4688 0 30.8758 0 30.1444C0 29.413 0.551034 28.8201 1.23077 28.8201H3.13128C5.13601 28.8201 5.7501 28.7909 6.27091 28.5284C6.79172 28.2659 7.20574 27.777 8.48913 26.1199L10.1314 23.9993C10.5666 23.4374 11.3427 23.3615 11.8648 23.8297Z" fill="black"/>
</svg>
