<svg width="32" height="29" viewBox="0 0 32 29" fill="none" xmlns="http://www.w3.org/2000/svg">
<path d="M11.4025 25.1382L12.1902 24.1676L11.4025 25.1382ZM15.8333 5.00661L14.9203 5.86033C15.1566 6.11312 15.4872 6.25661 15.8333 6.25661C16.1794 6.25661 16.51 6.11312 16.7464 5.86033L15.8333 5.00661ZM20.2642 25.1382L21.0518 26.1089L21.0518 26.1089L20.2642 25.1382ZM15.8333 27.5027L15.8333 26.2527L15.8333 27.5027ZM2.06654 16.9117C2.42381 17.5024 3.19231 17.6916 3.78303 17.3344C4.37374 16.9771 4.56299 16.2086 4.20572 15.6179L3.13613 16.2648L2.06654 16.9117ZM7.97888 20.3509C7.49726 19.8563 6.70587 19.8458 6.21127 20.3274C5.71667 20.809 5.70616 21.6004 6.18778 22.095L7.08333 21.2229L7.97888 20.3509ZM1.25 10.4657H2.5C2.5 6.27365 4.32631 3.72664 6.53658 2.86116C8.7411 1.99795 11.8694 2.59736 14.9203 5.86033L15.8333 5.00661L16.7464 4.1529C13.235 0.397454 9.07163 -0.816305 5.62505 0.533266C2.18423 1.88058 0 5.57232 0 10.4657H1.25ZM20.2642 25.1382L21.0518 26.1089C23.2327 24.3391 25.8502 21.9635 27.9332 19.307C29.992 16.6811 31.6667 13.6071 31.6667 10.4657H30.4167H29.1667C29.1667 12.7629 27.9105 15.2841 25.9658 17.7644C24.0452 20.214 21.5865 22.4554 19.4765 24.1676L20.2642 25.1382ZM30.4167 10.4657H31.6667C31.6667 5.5723 29.4824 1.88057 26.0416 0.533259C22.595 -0.816304 18.4316 0.397454 14.9203 4.1529L15.8333 5.00661L16.7464 5.86033C19.7973 2.59736 22.9256 1.99795 25.1301 2.86116C27.3404 3.72663 29.1667 6.27363 29.1667 10.4657H30.4167ZM11.4025 25.1382L10.6149 26.1088C12.4564 27.6032 13.7872 28.7527 15.8333 28.7527L15.8333 27.5027L15.8333 26.2527C14.8453 26.2527 14.2336 25.8258 12.1902 24.1676L11.4025 25.1382ZM20.2642 25.1382L19.4765 24.1676C17.4331 25.8258 16.8214 26.2527 15.8333 26.2527L15.8333 27.5027L15.8333 28.7527C17.8794 28.7527 19.2102 27.6033 21.0518 26.1089L20.2642 25.1382ZM3.13613 16.2648L4.20572 15.6179C3.1245 13.8302 2.5 12.0855 2.5 10.4657H1.25H0C0 12.71 0.855087 14.9087 2.06654 16.9117L3.13613 16.2648ZM11.4025 25.1382L12.1902 24.1676C10.8562 23.0851 9.37588 21.7855 7.97888 20.3509L7.08333 21.2229L6.18778 22.095C7.67013 23.6173 9.2273 24.9828 10.6149 26.1088L11.4025 25.1382Z" fill="black"/>
</svg>
