<svg width="32" height="32" viewBox="0 0 32 32" fill="none" xmlns="http://www.w3.org/2000/svg">
<path d="M20.7452 12.0541C21.0579 13.2211 20.6807 14.3361 19.9028 14.5445C19.1248 14.753 18.2406 13.9759 17.9279 12.809C17.6153 11.642 17.9925 10.527 18.7704 10.3186C19.5484 10.1101 20.4325 10.8871 20.7452 12.0541Z" fill="black"/>
<path d="M12.2936 14.3192C12.6063 15.4862 12.2291 16.6012 11.4511 16.8096C10.6731 17.0181 9.78899 16.2411 9.47631 15.0741C9.16362 13.9072 9.54081 12.7922 10.3188 12.5837C11.0968 12.3752 11.9809 13.1523 12.2936 14.3192Z" fill="black"/>
<path fill-rule="evenodd" clip-rule="evenodd" d="M19.4804 2.28266C17.7607 2.50426 15.5763 3.08717 12.5228 3.90535C9.46931 4.72353 7.28608 5.31093 5.68599 5.97886C4.11521 6.63456 3.26079 7.30766 2.74081 8.20829C2.22083 9.10892 2.06512 10.1854 2.28266 11.8736C2.50426 13.5933 3.08717 15.7777 3.90535 18.8312C4.72353 21.8847 5.31093 24.0679 5.97886 25.668C6.63456 27.2388 7.30766 28.0932 8.20829 28.6132C9.10892 29.1332 10.1854 29.2889 11.8736 29.0714C13.5933 28.8498 15.7777 28.2668 18.8312 27.4487C21.8847 26.6305 24.0679 26.0431 25.668 25.3752C27.2388 24.7195 28.0932 24.0464 28.6132 23.1457C29.1332 22.2451 29.2889 21.1686 29.0714 19.4804C28.8498 17.7607 28.2668 15.5763 27.4487 12.5228C26.6305 9.46931 26.0431 7.28608 25.3752 5.68599C24.7195 4.11521 24.0464 3.26079 23.1457 2.74081C22.2451 2.22083 21.1686 2.06512 19.4804 2.28266ZM19.2008 0.113096C21.1318 -0.135725 22.7581 -0.00889766 24.2395 0.84638C25.7209 1.70166 26.6439 3.04668 27.3938 4.84333C28.125 6.59484 28.7482 8.92076 29.5401 11.8763L29.5831 12.0368C30.3751 14.9924 30.9983 17.3184 31.2409 19.2008C31.4897 21.1318 31.3629 22.7581 30.5076 24.2395C29.6524 25.7209 28.3073 26.6439 26.5107 27.3938C24.7592 28.125 22.4333 28.7482 19.4777 29.5401L19.3172 29.5831C16.3616 30.3751 14.0356 30.9983 12.1532 31.2409C10.2222 31.4897 8.59592 31.3629 7.11454 30.5076C5.63316 29.6524 4.71016 28.3073 3.96018 26.5107C3.22903 24.7592 2.60581 22.4332 1.8139 19.4777L1.77087 19.3171C0.978916 16.3615 0.355668 14.0356 0.113096 12.1532C-0.135725 10.2222 -0.00889766 8.59592 0.84638 7.11454C1.70166 5.63316 3.04668 4.71016 4.84333 3.96018C6.59485 3.22903 8.92079 2.60582 11.8763 1.8139L12.0369 1.77087C14.9925 0.978917 17.3184 0.355668 19.2008 0.113096ZM23.2295 17.6325C23.6497 18.0665 23.6384 18.7589 23.2044 19.1791C22.9565 19.4191 22.6957 19.6503 22.4227 19.8719L22.7412 20.5208C23.5477 22.1638 22.854 24.149 21.1998 24.9321C19.5783 25.6996 17.641 25.0227 16.8506 23.4123L16.4522 22.6007C14.5274 22.9658 12.6279 22.9046 10.9086 22.4737C10.3227 22.3269 9.96675 21.7328 10.1136 21.1469C10.2605 20.5609 10.8545 20.205 11.4405 20.3519C13.0888 20.765 14.9817 20.7701 16.9035 20.2552C18.8252 19.7402 20.462 18.7894 21.6829 17.6074C22.1169 17.1872 22.8094 17.1985 23.2295 17.6325ZM18.6007 22.0134L18.8143 22.4484C19.0777 22.9851 19.7234 23.2107 20.2638 22.9549C20.8151 22.6939 21.0463 22.0323 20.7776 21.4847L20.5927 21.108C19.9671 21.4565 19.3012 21.7606 18.6007 22.0134Z" fill="black"/>
</svg>
