<svg width="21" height="21" viewBox="0 0 21 21" fill="none" xmlns="http://www.w3.org/2000/svg">
<path d="M18.0046 20H3.00767C1.9031 20 1 19.1046 1 18V9.49813C1 8.92686 1.2443 8.38285 1.67127 8.00331L8.98167 1.50518C9.34777 1.17976 9.82057 1 10.3104 1H10.7259C11.1938 1 11.6468 1.16403 12.0063 1.46356L19.2804 7.52531C19.7364 7.90529 20 8.46819 20 9.06175V18C20 19.1046 19.1092 20 18.0046 20Z" stroke="black" stroke-width="2"/>
<path d="M7 20V14C7 12.8954 7.89543 12 9 12H12C13.1046 12 14 12.8954 14 14V20" stroke="black" stroke-width="2"/>
</svg>
