<svg width="30" height="32" viewBox="0 0 30 32" fill="none" xmlns="http://www.w3.org/2000/svg">
<path fill-rule="evenodd" clip-rule="evenodd" d="M6.61118 0.203397C7.10296 0.554177 7.21726 1.2372 6.86648 1.72898L6.30346 2.5183C7.21611 3.20994 7.4184 4.50677 6.74905 5.44516L6.15023 6.28467C5.79945 6.77645 5.11642 6.89075 4.62464 6.53997C4.13287 6.18919 4.01857 5.50616 4.36935 5.01439L4.93237 4.22506C4.01971 3.53342 3.81743 2.2366 4.48678 1.29821L5.0856 0.458692C5.43638 -0.0330841 6.11941 -0.147384 6.61118 0.203397ZM12.4445 0.203397C12.9363 0.554177 13.0506 1.2372 12.6998 1.72898L12.1368 2.5183C13.0494 3.20994 13.2517 4.50677 12.5824 5.44516L11.9836 6.28467C11.6328 6.77645 10.9498 6.89075 10.458 6.53997C9.9662 6.18919 9.8519 5.50616 10.2027 5.01439L10.7657 4.22506C9.85304 3.53342 9.65076 2.2366 10.3201 1.29821L10.9189 0.458692C11.2697 -0.0330841 11.9527 -0.147384 12.4445 0.203397ZM18.2778 0.203397C18.7696 0.554177 18.8839 1.2372 18.5331 1.72898L17.9701 2.5183C18.8828 3.20994 19.0851 4.50677 18.4157 5.44516L17.8169 6.28467C17.4661 6.77645 16.7831 6.89075 16.2913 6.53997C15.7995 6.18919 15.6852 5.50616 16.036 5.01439L16.599 4.22506C15.6864 3.53342 15.4841 2.2366 16.1534 1.29821L16.7523 0.458692C17.103 -0.0330841 17.7861 -0.147384 18.2778 0.203397ZM6.96723 7.38303H15.0712C16.465 7.38298 17.6235 7.38295 18.5369 7.50877C19.4988 7.64127 20.3647 7.93339 21.0385 8.65359C21.4905 9.1367 21.7445 9.69326 21.8834 10.2997H22.6859C26.5116 10.2997 29.613 13.4011 29.613 17.2268C29.613 21.0525 26.5116 24.1539 22.6859 24.1539H21.272C21.2577 24.3371 21.2429 24.5159 21.2275 24.6904V25.6122H21.1345C21.0801 26.0783 21.0167 26.5074 20.9383 26.9007C20.6928 28.1335 20.2751 29.1632 19.4123 29.9703C18.5496 30.7775 17.4944 31.1257 16.248 31.2888C15.0492 31.4456 13.5348 31.4456 11.66 31.4455H10.3784C8.50357 31.4456 6.98917 31.4456 5.79036 31.2888C4.544 31.1257 3.48883 30.7775 2.62608 29.9703C1.76334 29.1632 1.34564 28.1335 1.10006 26.9007C0.863852 25.715 0.763139 24.204 0.638458 22.3333L0.129053 14.6923C0.0362932 13.3015 -0.0408045 12.1456 0.0239753 11.2258C0.0921948 10.2572 0.326068 9.3738 0.999861 8.65359C1.67365 7.93339 2.53957 7.64127 3.5015 7.50877C4.41492 7.38295 5.5734 7.38298 6.96723 7.38303ZM21.4244 21.9664H22.6859C25.3035 21.9664 27.4255 19.8444 27.4255 17.2268C27.4255 14.6092 25.3035 12.4872 22.6859 12.4872H22.031C22.0128 13.1412 21.9638 13.8763 21.9093 14.6923L21.4244 21.9664ZM19.1326 23.4247H2.90577C2.87664 23.0188 2.8474 22.5821 2.816 22.1111L2.31695 14.6254C2.21764 13.1357 2.15313 12.1312 2.20607 11.3795C2.25679 10.6594 2.40657 10.3519 2.59727 10.1481C2.78798 9.94422 3.08481 9.77432 3.79999 9.67581C4.54652 9.57298 5.55307 9.57053 7.04604 9.57053H14.9924C16.4853 9.57053 17.4919 9.57298 18.2384 9.67581C18.9536 9.77432 19.2504 9.94422 19.4411 10.1481C19.6318 10.3519 19.7816 10.6594 19.8323 11.3795C19.8853 12.1312 19.8208 13.1357 19.7214 14.6254L19.2224 22.1111C19.191 22.5821 19.1618 23.0188 19.1326 23.4247ZM3.10742 25.6122H18.931C18.8906 25.9243 18.8455 26.2099 18.793 26.4734C18.5941 27.4715 18.3166 27.9999 17.9179 28.3729C17.5191 28.7459 16.9735 28.9877 15.9643 29.1198C14.9239 29.2558 13.5531 29.258 11.5831 29.258H10.4553C8.48531 29.258 7.11447 29.2558 6.07409 29.1198C5.06492 28.9877 4.51927 28.7459 4.12055 28.3729C3.72182 27.9999 3.44425 27.4715 3.24541 26.4734C3.19293 26.2099 3.14777 25.9243 3.10742 25.6122Z" fill="black"/>
</svg>
