<svg width="29" height="31" viewBox="0 0 29 31" fill="none" xmlns="http://www.w3.org/2000/svg">
<mask id="path-1-inside-1_1336_2530" fill="white">
<path d="M17.8649 3.64583C17.8649 5.65937 16.2326 7.29167 14.219 7.29167C12.2055 7.29167 10.5732 5.65937 10.5732 3.64583C10.5732 1.6323 12.2055 0 14.219 0C16.2326 0 17.8649 1.6323 17.8649 3.64583Z"/>
<path fill-rule="evenodd" clip-rule="evenodd" d="M14.2191 11.3321C13.6996 11.3322 13.2287 11.362 12.9633 11.407L11.6632 11.626C8.72822 12.1202 6.5628 14.6907 6.5628 17.7191C6.5628 19.2952 5.78331 20.7717 4.47807 21.651L4.33044 21.7504C3.9589 22.0007 3.55571 22.2 3.13148 22.3429L1.44317 22.9115C0.870708 23.1043 0.250329 22.7966 0.0575134 22.2241C-0.135302 21.6517 0.172462 21.0313 0.744924 20.8385L2.43323 20.2698C2.67163 20.1895 2.89867 20.0774 3.10829 19.9362L3.25592 19.8367C3.95243 19.3675 4.3753 18.5739 4.3753 17.7191C4.3753 13.6391 7.29576 10.1432 11.2999 9.46884L12.5978 9.25026V9.25026C13.0417 9.17508 13.6549 9.14465 14.219 9.14463C14.783 9.1446 15.3957 9.17485 15.8399 9.25019V9.25019L17.1382 9.46884C21.1423 10.1432 24.0628 13.6391 24.0628 17.7191C24.0628 18.5739 24.4857 19.3675 25.1822 19.8367L25.3298 19.9362C25.5394 20.0774 25.7665 20.1895 26.0049 20.2698L27.6932 20.8385C28.2656 21.0313 28.5734 21.6517 28.3806 22.2241C28.1878 22.7966 27.5674 23.1043 26.9949 22.9115L25.3066 22.3429C24.8824 22.2 24.4792 22.0007 24.1077 21.7504L23.96 21.651C22.6548 20.7717 21.8753 19.2952 21.8753 17.7191C21.8753 14.6907 19.7099 12.1202 16.7749 11.626L15.4744 11.4069C15.2094 11.3619 14.7386 11.3321 14.2191 11.3321ZM9.69821 19.7604C10.0607 19.2772 10.7462 19.1792 11.2295 19.5417C11.7127 19.9041 11.8107 20.5897 11.4482 21.0729L10.1 22.8706C10.0893 22.8848 10.0787 22.899 10.0682 22.9129C9.88387 23.1589 9.73889 23.3523 9.57183 23.527C9.16082 23.9567 8.65941 24.2896 8.10389 24.5016C7.8781 24.5878 7.64356 24.6464 7.34532 24.7209C7.32841 24.7251 7.3113 24.7293 7.29398 24.7337L4.67859 25.3875C4.07181 25.5392 3.64613 26.0844 3.64613 26.7099C3.64613 27.4627 4.25639 28.0729 5.00917 28.0729H6.00633C8.26078 28.0729 10.4544 27.3417 12.258 25.989L15.0211 23.9167C15.5044 23.5542 16.1899 23.6522 16.5524 24.1354C16.9148 24.6187 16.8169 25.3042 16.3336 25.6667L15.0143 26.6561L15.7315 26.9251C16.5101 27.2171 16.8613 27.3483 17.2141 27.4586C18.276 27.7905 19.375 27.9898 20.4859 28.0519C20.855 28.0725 21.2298 28.0729 22.0614 28.0729H23.4289C24.1817 28.0729 24.792 27.4627 24.792 26.7099C24.792 26.0844 24.3663 25.5392 23.7595 25.3875L21.6105 24.8503C21.5703 24.8402 21.5305 24.8303 21.4912 24.8205C20.7975 24.6476 20.2502 24.5112 19.7611 24.2292C19.6149 24.1449 19.4742 24.0514 19.3398 23.9494C18.8901 23.6081 18.5519 23.1566 18.1234 22.5844C18.0991 22.552 18.0746 22.5192 18.0497 22.486L16.9899 21.0729C16.6274 20.5897 16.7254 19.9041 17.2086 19.5417C17.6919 19.1792 18.3774 19.2772 18.7399 19.7604L19.7997 21.1735C20.337 21.89 20.4873 22.0741 20.6623 22.2069C20.7234 22.2533 20.7874 22.2958 20.8538 22.3341C21.0442 22.4439 21.2722 22.5109 22.1411 22.7281L24.2901 23.2653C25.8706 23.6605 26.9795 25.0806 26.9795 26.7099C26.9795 28.6708 25.3898 30.2604 23.4289 30.2604H22.0246C21.2393 30.2604 20.801 30.2604 20.3638 30.236C19.0728 30.1639 17.7956 29.9323 16.5615 29.5465C16.1436 29.4159 15.7331 29.2619 14.9978 28.9862L12.9089 28.2029C10.862 29.5422 8.46405 30.2604 6.00633 30.2604H5.00917C3.04826 30.2604 1.45863 28.6708 1.45863 26.7099C1.45863 25.0806 2.56745 23.6605 4.14804 23.2653L6.76343 22.6115C7.13631 22.5183 7.23592 22.4915 7.32379 22.458C7.57629 22.3616 7.80421 22.2102 7.99103 22.0149C8.05604 21.947 8.11936 21.8656 8.34998 21.5581L9.69821 19.7604Z"/>
</mask>
<path d="M17.8649 3.64583C17.8649 5.65937 16.2326 7.29167 14.219 7.29167C12.2055 7.29167 10.5732 5.65937 10.5732 3.64583C10.5732 1.6323 12.2055 0 14.219 0C16.2326 0 17.8649 1.6323 17.8649 3.64583Z" fill="#3871DD"/>
<path fill-rule="evenodd" clip-rule="evenodd" d="M14.2191 11.3321C13.6996 11.3322 13.2287 11.362 12.9633 11.407L11.6632 11.626C8.72822 12.1202 6.5628 14.6907 6.5628 17.7191C6.5628 19.2952 5.78331 20.7717 4.47807 21.651L4.33044 21.7504C3.9589 22.0007 3.55571 22.2 3.13148 22.3429L1.44317 22.9115C0.870708 23.1043 0.250329 22.7966 0.0575134 22.2241C-0.135302 21.6517 0.172462 21.0313 0.744924 20.8385L2.43323 20.2698C2.67163 20.1895 2.89867 20.0774 3.10829 19.9362L3.25592 19.8367C3.95243 19.3675 4.3753 18.5739 4.3753 17.7191C4.3753 13.6391 7.29576 10.1432 11.2999 9.46884L12.5978 9.25026V9.25026C13.0417 9.17508 13.6549 9.14465 14.219 9.14463C14.783 9.1446 15.3957 9.17485 15.8399 9.25019V9.25019L17.1382 9.46884C21.1423 10.1432 24.0628 13.6391 24.0628 17.7191C24.0628 18.5739 24.4857 19.3675 25.1822 19.8367L25.3298 19.9362C25.5394 20.0774 25.7665 20.1895 26.0049 20.2698L27.6932 20.8385C28.2656 21.0313 28.5734 21.6517 28.3806 22.2241C28.1878 22.7966 27.5674 23.1043 26.9949 22.9115L25.3066 22.3429C24.8824 22.2 24.4792 22.0007 24.1077 21.7504L23.96 21.651C22.6548 20.7717 21.8753 19.2952 21.8753 17.7191C21.8753 14.6907 19.7099 12.1202 16.7749 11.626L15.4744 11.4069C15.2094 11.3619 14.7386 11.3321 14.2191 11.3321ZM9.69821 19.7604C10.0607 19.2772 10.7462 19.1792 11.2295 19.5417C11.7127 19.9041 11.8107 20.5897 11.4482 21.0729L10.1 22.8706C10.0893 22.8848 10.0787 22.899 10.0682 22.9129C9.88387 23.1589 9.73889 23.3523 9.57183 23.527C9.16082 23.9567 8.65941 24.2896 8.10389 24.5016C7.8781 24.5878 7.64356 24.6464 7.34532 24.7209C7.32841 24.7251 7.3113 24.7293 7.29398 24.7337L4.67859 25.3875C4.07181 25.5392 3.64613 26.0844 3.64613 26.7099C3.64613 27.4627 4.25639 28.0729 5.00917 28.0729H6.00633C8.26078 28.0729 10.4544 27.3417 12.258 25.989L15.0211 23.9167C15.5044 23.5542 16.1899 23.6522 16.5524 24.1354C16.9148 24.6187 16.8169 25.3042 16.3336 25.6667L15.0143 26.6561L15.7315 26.9251C16.5101 27.2171 16.8613 27.3483 17.2141 27.4586C18.276 27.7905 19.375 27.9898 20.4859 28.0519C20.855 28.0725 21.2298 28.0729 22.0614 28.0729H23.4289C24.1817 28.0729 24.792 27.4627 24.792 26.7099C24.792 26.0844 24.3663 25.5392 23.7595 25.3875L21.6105 24.8503C21.5703 24.8402 21.5305 24.8303 21.4912 24.8205C20.7975 24.6476 20.2502 24.5112 19.7611 24.2292C19.6149 24.1449 19.4742 24.0514 19.3398 23.9494C18.8901 23.6081 18.5519 23.1566 18.1234 22.5844C18.0991 22.552 18.0746 22.5192 18.0497 22.486L16.9899 21.0729C16.6274 20.5897 16.7254 19.9041 17.2086 19.5417C17.6919 19.1792 18.3774 19.2772 18.7399 19.7604L19.7997 21.1735C20.337 21.89 20.4873 22.0741 20.6623 22.2069C20.7234 22.2533 20.7874 22.2958 20.8538 22.3341C21.0442 22.4439 21.2722 22.5109 22.1411 22.7281L24.2901 23.2653C25.8706 23.6605 26.9795 25.0806 26.9795 26.7099C26.9795 28.6708 25.3898 30.2604 23.4289 30.2604H22.0246C21.2393 30.2604 20.801 30.2604 20.3638 30.236C19.0728 30.1639 17.7956 29.9323 16.5615 29.5465C16.1436 29.4159 15.7331 29.2619 14.9978 28.9862L12.9089 28.2029C10.862 29.5422 8.46405 30.2604 6.00633 30.2604H5.00917C3.04826 30.2604 1.45863 28.6708 1.45863 26.7099C1.45863 25.0806 2.56745 23.6605 4.14804 23.2653L6.76343 22.6115C7.13631 22.5183 7.23592 22.4915 7.32379 22.458C7.57629 22.3616 7.80421 22.2102 7.99103 22.0149C8.05604 21.947 8.11936 21.8656 8.34998 21.5581L9.69821 19.7604Z" fill="black"/>
<path d="M-37.1382 49.6852C-21.7102 72.5877 9.36275 78.647 32.2652 63.219C55.1677 47.7911 61.227 16.7181 45.7991 -6.18439L4.33044 21.7504L-37.1382 49.6852ZM45.188 -7.09152C29.76 -29.994 -1.31294 -36.0533 -24.2154 -20.6253C-47.1179 -5.19739 -53.1772 25.8756 -37.7493 48.7781L3.71937 20.8433L45.188 -7.09152ZM-44.2529 38.3028C-35.4385 64.4725 -7.07822 78.5417 19.0914 69.7273C45.2611 60.9128 59.3303 32.5526 50.5159 6.38291L3.13148 22.3429L-44.2529 38.3028ZM50.1667 5.34638C41.3523 -20.8233 12.9921 -34.8925 -13.1776 -26.078C-39.3473 -17.2636 -53.4165 11.0966 -44.602 37.2663L2.78236 21.3063L50.1667 5.34638ZM44.7246 -8.09809C29.2966 -31.0006 -1.77638 -37.0599 -24.6789 -21.6319C-47.5814 -6.20396 -53.6407 24.869 -38.2127 47.7715L3.25592 19.8367L44.7246 -8.09809ZM-37.6811 48.5607C-22.2531 71.4632 8.81988 77.5225 31.7224 62.0946C54.6249 46.6666 60.6842 15.5936 45.2562 -7.30885L3.78758 20.6259L-37.6811 48.5607ZM66.7986 47.8707C82.2264 24.9681 76.1669 -6.10485 53.2643 -21.5327C30.3617 -36.9605 -0.711205 -30.901 -16.139 -7.99837L25.3298 19.9362L66.7986 47.8707ZM-16.7501 -7.09124C-32.1779 15.8114 -26.1184 46.8843 -3.21579 62.3121C19.6868 77.7399 50.7597 71.6804 66.1875 48.7778L24.7187 20.8433L-16.7501 -7.09124ZM-17.5088 -6.28353C-32.9366 16.6191 -26.8771 47.692 -3.97446 63.1198C18.9281 78.5476 50.0011 72.4881 65.4289 49.5855L23.96 21.651L-17.5088 -6.28353ZM66.0399 48.6783C81.4677 25.7757 75.4082 -5.29721 52.5056 -20.725C29.603 -36.1528 -1.46994 -30.0933 -16.8977 -7.19066L24.5711 20.7438L66.0399 48.6783ZM-20.4876 -6.27943C-37.1825 15.7166 -32.8851 47.0818 -10.889 63.7767C11.107 80.4717 42.4722 76.1742 59.1671 54.1782L19.3398 23.9494L-20.4876 -6.27943ZM59.8284 53.307C76.5233 31.3109 72.2259 -0.0542836 50.2299 -16.7492C28.2338 -33.4441 -3.13141 -29.1467 -19.8263 -7.15066L20.001 23.0782L59.8284 53.307ZM54.0362 4.62686C44.1884 -21.1717 15.2913 -34.1023 -10.5073 -24.2545C-36.3059 -14.4066 -49.2365 14.4905 -39.3887 40.2891L7.32379 22.458L54.0362 4.62686ZM-38.9986 41.3109C-29.1508 67.1095 -0.253626 80.0401 25.5449 70.1922C51.3435 60.3444 64.2741 31.4473 54.4263 5.6487L7.71384 23.4798L-38.9986 41.3109ZM3.71937 20.8433L-37.7493 48.7781L-37.1382 49.6852L4.33044 21.7504L45.7991 -6.18439L45.188 -7.09152L3.71937 20.8433ZM2.78236 21.3063L-44.602 37.2663L-44.2529 38.3028L3.13148 22.3429L50.5159 6.38291L50.1667 5.34638L2.78236 21.3063ZM3.78758 20.6259L45.2562 -7.30885L44.7246 -8.09809L3.25592 19.8367L-38.2127 47.7715L-37.6811 48.5607L3.78758 20.6259ZM24.7187 20.8433L66.1875 48.7778L66.7986 47.8707L25.3298 19.9362L-16.139 -7.99837L-16.7501 -7.09124L24.7187 20.8433ZM24.5711 20.7438L-16.8977 -7.19066L-17.5088 -6.28353L23.96 21.651L65.4289 49.5855L66.0399 48.6783L24.5711 20.7438ZM20.001 23.0782L-19.8263 -7.15066L-20.4876 -6.27943L19.3398 23.9494L59.1671 54.1782L59.8284 53.307L20.001 23.0782ZM7.71384 23.4798L54.4263 5.6487L54.0362 4.62686L7.32379 22.458L-39.3887 40.2891L-38.9986 41.3109L7.71384 23.4798ZM12.9633 11.407L29.5704 110.018C29.6056 110.012 29.6407 110.007 29.6759 110.001L12.9633 11.407ZM14.2191 11.3321L14.2144 -88.6679L14.2191 11.3321ZM11.6632 11.626L28.2702 110.237L28.2702 110.237L11.6632 11.626ZM4.47807 21.651L-51.3914 -61.2864L-51.3915 -61.2863L4.47807 21.651ZM4.33044 21.7504L60.1998 104.688L60.2 104.688L4.33044 21.7504ZM3.13148 22.3429L-28.7883 -72.4259L-28.7884 -72.4259L3.13148 22.3429ZM1.44317 22.9115L-30.4767 -71.8573L-30.4767 -71.8572L1.44317 22.9115ZM0.0575134 22.2241L-94.7113 54.1439L-94.7113 54.144L0.0575134 22.2241ZM0.744924 20.8385L32.6647 115.607L32.6648 115.607L0.744924 20.8385ZM2.43323 20.2698L34.3531 115.039L34.3532 115.039L2.43323 20.2698ZM3.10829 19.9362L-52.761 -63.0013L-52.7611 -63.0012L3.10829 19.9362ZM3.25592 19.8367L59.1252 102.774L59.1254 102.774L3.25592 19.8367ZM11.2999 9.46884L-5.30713 -89.1426L-5.30716 -89.1426L11.2999 9.46884ZM14.219 9.14463L14.2143 -90.8554L14.2143 -90.8554L14.219 9.14463ZM15.8399 9.25019L-0.881977 107.842C-0.843715 107.849 -0.805449 107.855 -0.76718 107.862L15.8399 9.25019ZM17.1382 9.46884L0.531159 108.08L0.531182 108.08L17.1382 9.46884ZM25.1822 19.8367L-30.6873 102.774L-30.687 102.774L25.1822 19.8367ZM25.3298 19.9362L81.1997 -63.0009L81.1989 -63.0014L25.3298 19.9362ZM26.0049 20.2698L-5.91506 115.039L-5.91498 115.039L26.0049 20.2698ZM27.6932 20.8385L-4.22667 115.607L-4.22656 115.607L27.6932 20.8385ZM28.3806 22.2241L123.149 54.1438L123.149 54.1438L28.3806 22.2241ZM26.9949 22.9115L58.9148 -71.8573L58.9147 -71.8573L26.9949 22.9115ZM25.3066 22.3429L-6.61323 117.112L-6.61316 117.112L25.3066 22.3429ZM24.1077 21.7504L79.9771 -61.1869L79.9764 -61.1874L24.1077 21.7504ZM23.96 21.651L-31.9095 104.588L-31.9087 104.589L23.96 21.651ZM16.7749 11.626L0.167849 110.237L0.167904 110.237L16.7749 11.626ZM15.4744 11.4069L-1.26546 109.996C-1.22119 110.003 -1.17692 110.011 -1.13264 110.018L15.4744 11.4069ZM9.69821 19.7604L89.6982 79.7604L89.6982 79.7604L9.69821 19.7604ZM11.4482 21.0729L91.4482 81.0729L91.4482 81.0729L11.4482 21.0729ZM10.1 22.8706L90.099 82.8718L90.1 82.8706L10.1 22.8706ZM10.0682 22.9129L-69.949 -37.0641L-69.9495 -37.0634L10.0682 22.9129ZM9.57183 23.527L81.8367 92.6485L81.8368 92.6484L9.57183 23.527ZM8.10389 24.5016L-27.5581 -68.9233L-27.5582 -68.9233L8.10389 24.5016ZM7.34532 24.7209L-16.8796 -72.3006L-16.8801 -72.3004L7.34532 24.7209ZM7.29398 24.7337L-16.9587 -72.2808L-16.9597 -72.2806L7.29398 24.7337ZM4.67859 25.3875L-19.5751 -71.6267L4.67859 25.3875ZM12.258 25.989L-47.742 -54.011L-47.742 -54.011L12.258 25.989ZM15.0211 23.9167L-44.9788 -56.0834L-44.9789 -56.0833L15.0211 23.9167ZM16.5524 24.1354L96.5524 -35.8646L96.5524 -35.8646L16.5524 24.1354ZM16.3336 25.6667L76.3336 105.667L76.3336 105.667L16.3336 25.6667ZM15.0143 26.6561L-44.9857 -53.3439C-74.2099 -31.4257 -89.1571 4.68385 -83.974 40.8446C-78.7909 77.0053 -54.3025 107.462 -20.0981 120.289L15.0143 26.6561ZM15.7315 26.9251L-19.3809 120.558L-19.3808 120.558L15.7315 26.9251ZM17.2141 27.4586L47.0477 -67.9875L47.0475 -67.9875L17.2141 27.4586ZM20.4859 28.0519L26.0652 -71.7923L26.0652 -71.7923L20.4859 28.0519ZM23.7595 25.3875L48.0132 -71.6267L48.0131 -71.6267L23.7595 25.3875ZM21.4912 24.8205L45.6793 -72.2101L45.6787 -72.2102L21.4912 24.8205ZM19.7611 24.2292L-30.1906 110.86L-30.1902 110.86L19.7611 24.2292ZM19.3398 23.9494L-41.1181 103.604L-41.1177 103.604L19.3398 23.9494ZM18.1234 22.5844L-61.9182 82.5289L-61.9175 82.5298L18.1234 22.5844ZM18.0497 22.486L-61.9503 82.486L-61.9499 82.4865L18.0497 22.486ZM16.9899 21.0729L-63.0102 81.0728L-63.0101 81.0729L16.9899 21.0729ZM17.2086 19.5417L77.2086 99.5417L77.2087 99.5416L17.2086 19.5417ZM18.7399 19.7604L98.7399 -40.2396L98.7398 -40.2396L18.7399 19.7604ZM19.7997 21.1735L99.7997 -38.8265L99.7996 -38.8266L19.7997 21.1735ZM20.6623 22.2069L-39.7959 101.861L-39.7951 101.862L20.6623 22.2069ZM20.8538 22.3341L70.8053 -64.2964L70.8047 -64.2968L20.8538 22.3341ZM22.1411 22.7281L-2.11252 119.742L-2.11249 119.742L22.1411 22.7281ZM24.2901 23.2653L0.0364959 120.28L0.036536 120.28L24.2901 23.2653ZM22.0246 30.2604L22.0246 -69.7396L22.0239 -69.7396L22.0246 30.2604ZM20.3638 30.236L25.9432 -69.6082L25.9432 -69.6082L20.3638 30.236ZM16.5615 29.5465L-13.2723 124.993L-13.2721 124.993L16.5615 29.5465ZM14.9978 28.9862L50.1111 -64.6464L50.11 -64.6468L14.9978 28.9862ZM12.9089 28.2029L48.0211 -65.4301C18.1904 -76.6166 -15.1853 -72.9195 -41.8446 -55.4754L12.9089 28.2029ZM4.14804 23.2653L28.4016 120.28L28.4016 120.28L4.14804 23.2653ZM6.76343 22.6115L-17.4901 -74.4028L-17.4901 -74.4028L6.76343 22.6115ZM7.32379 22.458L42.9856 115.883L42.9858 115.883L7.32379 22.458ZM7.99103 22.0149L80.256 91.1364L80.2564 91.136L7.99103 22.0149ZM8.34998 21.5581L88.35 81.5581L88.35 81.5581L8.34998 21.5581ZM17.8649 3.64583H-82.1351C-82.1351 -49.5691 -38.9959 -92.7083 14.219 -92.7083V7.29167V107.292C71.4611 107.292 117.865 60.8879 117.865 3.64583H17.8649ZM14.219 7.29167V-92.7083C67.434 -92.7083 110.573 -49.5691 110.573 3.64583H10.5732H-89.4268C-89.4268 60.8878 -43.023 107.292 14.219 107.292V7.29167ZM10.5732 3.64583H110.573C110.573 56.8608 67.434 100 14.219 100V0V-100C-43.023 -100 -89.4268 -53.5962 -89.4268 3.64583H10.5732ZM14.219 0V100C-38.9959 100 -82.1351 56.8608 -82.1351 3.64583H17.8649H117.865C117.865 -53.5962 71.4611 -100 14.219 -100V0ZM12.9633 11.407L29.6759 110.001C26.942 110.464 24.7183 110.72 23.3329 110.861C21.8393 111.014 20.5578 111.108 19.5506 111.169C17.5664 111.29 15.7871 111.332 14.2238 111.332L14.2191 11.3321L14.2144 -88.6679C11.6616 -88.6678 4.69329 -88.6176 -3.74917 -87.1866L12.9633 11.407ZM6.5628 17.7191H106.563C106.563 62.7921 74.1822 102.505 28.2702 110.237L11.6632 11.626L-4.94388 -86.9854C-56.7258 -78.2649 -93.4372 -33.4107 -93.4372 17.7191H6.5628ZM4.47807 21.651L60.3475 104.588C89.4861 84.9596 106.563 52.2647 106.563 17.7191H6.5628H-93.4372C-93.4372 -13.6743 -77.9195 -43.4162 -51.3914 -61.2864L4.47807 21.651ZM4.33044 21.7504L60.2 104.688L60.3476 104.588L4.47807 21.651L-51.3915 -61.2863L-51.5391 -61.1869L4.33044 21.7504ZM3.13148 22.3429L35.0513 117.112C43.9708 114.107 52.4267 109.924 60.1998 104.688L4.33044 21.7504L-51.539 -61.187C-44.5089 -65.9227 -36.8593 -69.7075 -28.7883 -72.4259L3.13148 22.3429ZM1.44317 22.9115L33.363 117.68L35.0513 117.112L3.13148 22.3429L-28.7884 -72.4259L-30.4767 -71.8573L1.44317 22.9115ZM0.0575134 22.2241L-94.7113 54.144C-76.8896 107.056 -19.5488 135.502 33.363 117.68L1.44317 22.9115L-30.4767 -71.8572C21.2902 -89.2933 77.3903 -61.4626 94.8263 -9.69573L0.0575134 22.2241ZM0.744924 20.8385L-31.1748 -73.9304C-84.0868 -56.1087 -112.533 1.23214 -94.7113 54.1439L0.0575134 22.2241L94.8263 -9.69565C112.262 42.0712 84.4317 98.1713 32.6647 115.607L0.744924 20.8385ZM2.43323 20.2698L-29.4866 -74.499L-31.1749 -73.9303L0.744924 20.8385L32.6648 115.607L34.3531 115.039L2.43323 20.2698ZM3.10829 19.9362L-52.7611 -63.0012C-45.5687 -67.8463 -37.7431 -71.718 -29.4867 -74.4989L2.43323 20.2698L34.3532 115.039C43.0863 112.097 51.3661 108.001 58.9777 102.874L3.10829 19.9362ZM3.25592 19.8367L-52.6134 -63.1007L-52.761 -63.0013L3.10829 19.9362L58.9776 102.874L59.1252 102.774L3.25592 19.8367ZM4.3753 17.7191H-95.6247C-95.6247 -14.4145 -79.7348 -44.8308 -52.6136 -63.1006L3.25592 19.8367L59.1254 102.774C87.6397 83.5658 104.375 51.5622 104.375 17.7191H4.3753ZM11.2999 9.46884L-5.30716 -89.1426C-58.2097 -80.2333 -95.6247 -34.4096 -95.6247 17.7191H4.3753H104.375C104.375 61.6879 72.8012 100.52 27.9069 108.08L11.2999 9.46884ZM12.5978 9.25026L-4.00925 -89.3611L-5.30713 -89.1426L11.2999 9.46884L27.9069 108.08L29.2048 107.862L12.5978 9.25026ZM14.219 9.14463L14.2143 -90.8554C11.5698 -90.8552 4.4863 -90.8 -4.10086 -89.3457L12.5978 9.25026L29.2964 107.846C24.7689 108.613 21.2047 108.877 19.4414 108.984C17.3916 109.109 15.6347 109.145 14.2237 109.145L14.219 9.14463ZM15.8399 9.25019L32.5617 -89.3418C23.9475 -90.8028 16.8429 -90.8555 14.2143 -90.8554L14.219 9.14463L14.2237 109.145C12.8191 109.145 11.0609 109.11 9.0053 108.985C7.23616 108.877 3.65998 108.613 -0.881977 107.842L15.8399 9.25019ZM17.1382 9.46884L33.7453 -89.1425L32.4469 -89.3612L15.8399 9.25019L-0.76718 107.862L0.531159 108.08L17.1382 9.46884ZM24.0628 17.7191H124.063C124.063 -34.4095 86.6478 -80.2333 33.7453 -89.1426L17.1382 9.46884L0.531182 108.08C-44.3631 100.52 -75.9372 61.6878 -75.9372 17.7191H24.0628ZM25.1822 19.8367L81.0516 -63.1006C108.173 -44.8308 124.063 -14.4144 124.063 17.7191H24.0628H-75.9372C-75.9372 51.5622 -59.2016 83.5658 -30.6873 102.774L25.1822 19.8367ZM25.3298 19.9362L81.1989 -63.0014L81.0513 -63.1009L25.1822 19.8367L-30.687 102.774L-30.5393 102.874L25.3298 19.9362ZM26.0049 20.2698L57.9248 -74.499C66.1811 -71.7181 74.007 -67.8462 81.1997 -63.0009L25.3298 19.9362L-30.5401 102.873C-22.9282 108.001 -14.6482 112.097 -5.91506 115.039L26.0049 20.2698ZM27.6932 20.8385L59.613 -73.9303L57.9247 -74.499L26.0049 20.2698L-5.91498 115.039L-4.22667 115.607L27.6932 20.8385ZM28.3806 22.2241L123.149 54.1438C140.971 1.23242 112.525 -56.1086 59.6129 -73.9304L27.6932 20.8385L-4.22656 115.607C-55.9939 98.1712 -83.824 42.0709 -66.3883 -9.69551L28.3806 22.2241ZM26.9949 22.9115L-4.92491 117.68C47.9868 135.502 105.328 107.056 123.149 54.1438L28.3806 22.2241L-66.3883 -9.69558C-48.9522 -61.4627 7.14797 -89.2932 58.9148 -71.8573L26.9949 22.9115ZM25.3066 22.3429L-6.61316 117.112L-4.92485 117.68L26.9949 22.9115L58.9147 -71.8573L57.2264 -72.4259L25.3066 22.3429ZM24.1077 21.7504L-31.7618 104.688C-23.9887 109.924 -15.5328 114.107 -6.61323 117.112L25.3066 22.3429L57.2265 -72.4259C65.2976 -69.7074 72.9471 -65.9226 79.9771 -61.1869L24.1077 21.7504ZM23.96 21.651L-31.9087 104.589L-31.7611 104.688L24.1077 21.7504L79.9764 -61.1874L79.8288 -61.2869L23.96 21.651ZM21.8753 17.7191H-78.1247C-78.1247 52.2649 -61.0479 84.9596 -31.9095 104.588L23.96 21.651L79.8296 -61.2863C106.357 -43.4162 121.875 -13.6744 121.875 17.7191H21.8753ZM16.7749 11.626L0.167904 110.237C-45.7441 102.505 -78.1247 62.7921 -78.1247 17.7191H21.8753H121.875C121.875 -33.4107 85.1639 -78.2649 33.382 -86.9854L16.7749 11.626ZM14.2191 11.3321L14.2238 111.332C12.6603 111.332 10.8785 111.29 8.89018 111.169C7.88101 111.108 6.59612 111.013 5.0983 110.861C3.70925 110.719 1.4779 110.462 -1.26546 109.996L15.4744 11.4069L32.2144 -87.182C23.748 -88.6195 16.7603 -88.668 14.2144 -88.6679L14.2191 11.3321ZM11.2295 19.5417L71.2294 -60.4583C26.5633 -93.9579 -36.8023 -84.9055 -70.3018 -40.2396L9.69821 19.7604L89.6982 79.7604C56.9236 123.46 -5.07091 132.316 -48.7705 99.5417L11.2295 19.5417ZM11.4482 21.0729L91.4482 81.0729C124.948 36.4069 115.896 -26.9588 71.2294 -60.4583L11.2295 19.5417L-48.7705 99.5417C-92.4701 66.767 -101.326 4.77244 -68.5518 -38.9271L11.4482 21.0729ZM10.1 22.8706L90.1 82.8706L91.4482 81.0729L11.4482 21.0729L-68.5518 -38.9271L-69.9 -37.1295L10.1 22.8706ZM10.0682 22.9129L90.0855 82.8899C90.0887 82.8856 90.0905 82.8832 90.0928 82.8801C90.0949 82.8774 90.0963 82.8754 90.0975 82.8739C90.0999 82.8707 90.1001 82.8704 90.099 82.8718L10.1 22.8706L-69.8991 -37.1307C-69.9209 -37.1016 -69.9417 -37.0739 -69.949 -37.0641L10.0682 22.9129ZM9.57183 23.527L81.8368 92.6484C84.6856 89.6701 86.8196 87.0779 88.1175 85.4438C88.7582 84.6372 89.267 83.9724 89.5632 83.5824C89.8373 83.2216 90.0813 82.8954 90.086 82.8892L10.0682 22.9129L-69.9495 -37.0634C-70.2455 -36.6685 -69.449 -37.7437 -68.4904 -38.9505C-67.3529 -40.3827 -65.3749 -42.7908 -62.6932 -45.5945L9.57183 23.527ZM8.10389 24.5016L43.7659 117.927C58.173 112.427 71.1772 103.793 81.8367 92.6485L9.57183 23.527L-62.693 -45.5946C-52.8555 -55.8795 -40.8542 -63.848 -27.5581 -68.9233L8.10389 24.5016ZM7.34532 24.7209L31.5702 121.742C31.5778 121.74 31.9732 121.642 32.4121 121.529C32.8865 121.408 33.6966 121.197 34.6886 120.919C36.6982 120.357 39.9154 119.396 43.7659 117.927L8.10389 24.5016L-27.5582 -68.9233C-23.9334 -70.3069 -20.9463 -71.1954 -19.1851 -71.6881C-17.7009 -72.1032 -16.4009 -72.4201 -16.8796 -72.3006L7.34532 24.7209ZM7.29398 24.7337L31.5466 121.748C31.5449 121.749 31.5452 121.749 31.5495 121.747C31.5516 121.747 31.5541 121.746 31.5578 121.745C31.5596 121.745 31.5614 121.744 31.5636 121.744C31.5658 121.743 31.5682 121.743 31.5707 121.742L7.34532 24.7209L-16.8801 -72.3004C-16.8893 -72.2981 -16.9241 -72.2895 -16.9587 -72.2808L7.29398 24.7337ZM4.67859 25.3875L28.9322 122.402L31.5476 121.748L7.29398 24.7337L-16.9597 -72.2806L-19.5751 -71.6267L4.67859 25.3875ZM3.64613 26.7099H103.646C103.646 71.9712 72.842 111.424 28.9322 122.402L4.67859 25.3875L-19.5751 -71.6267C-64.6984 -60.3458 -96.3539 -19.8024 -96.3539 26.7099H3.64613ZM5.00917 28.0729V-71.9271C59.4848 -71.9271 103.646 -27.7658 103.646 26.7099H3.64613H-96.3539C-96.3539 82.6912 -50.9721 128.073 5.00917 128.073V28.0729ZM6.00633 28.0729V-71.9271H5.00917V28.0729V128.073H6.00633V28.0729ZM12.258 25.989L-47.742 -54.011C-32.236 -65.6405 -13.3762 -71.9271 6.00633 -71.9271V28.0729V128.073C29.8978 128.073 53.1448 120.324 72.258 105.989L12.258 25.989ZM15.0211 23.9167L-44.9789 -56.0833L-47.742 -54.011L12.258 25.989L72.258 105.989L75.0211 103.917L15.0211 23.9167ZM16.5524 24.1354L96.5524 -35.8646C63.0527 -80.5308 -0.313022 -89.5827 -44.9788 -56.0834L15.0211 23.9167L75.0211 103.917C31.3218 136.691 -30.6728 127.835 -63.4476 84.1354L16.5524 24.1354ZM16.3336 25.6667L76.3336 105.667C121 72.1671 130.052 8.80142 96.5524 -35.8646L16.5524 24.1354L-63.4476 84.1354C-96.2222 40.4359 -87.3659 -21.5587 -43.6664 -54.3333L16.3336 25.6667ZM15.0143 26.6561L75.0143 106.656L76.3336 105.667L16.3336 25.6667L-43.6664 -54.3333L-44.9857 -53.3439L15.0143 26.6561ZM15.7315 26.9251L50.8439 -66.7078L50.1267 -66.9767L15.0143 26.6561L-20.0981 120.289L-19.3809 120.558L15.7315 26.9251ZM17.2141 27.4586L47.0475 -67.9875C48.7671 -67.45 50.0925 -66.9783 50.7152 -66.7526C50.8613 -66.6996 50.9734 -66.6585 51.039 -66.6343C51.073 -66.6218 51.0989 -66.6122 51.1153 -66.6061C51.1316 -66.6 51.1409 -66.5966 51.1414 -66.5964C51.1419 -66.5962 51.1362 -66.5983 51.1226 -66.6034C51.109 -66.6085 51.09 -66.6156 51.0639 -66.6254C51.0083 -66.6462 50.9415 -66.6712 50.8438 -66.7079L15.7315 26.9251L-19.3808 120.558C-19.1677 120.638 -18.3082 120.962 -17.4503 121.273C-16.3692 121.665 -14.6917 122.257 -12.6194 122.905L17.2141 27.4586ZM20.4859 28.0519L26.0652 -71.7923C33.1896 -71.3942 40.2373 -70.1162 47.0477 -67.9875L17.2141 27.4586L-12.6196 122.905C-3.68519 125.697 5.56041 127.374 14.9066 127.896L20.4859 28.0519ZM22.0614 28.0729V-71.9271C21.9571 -71.9271 21.8857 -71.9271 21.8263 -71.9271C21.7984 -71.9271 21.7781 -71.9272 21.7636 -71.9272C21.749 -71.9272 21.743 -71.9272 21.7435 -71.9272C21.7441 -71.9272 21.7539 -71.9272 21.7714 -71.9271C21.7888 -71.9271 21.8165 -71.9269 21.8527 -71.9267C21.9226 -71.9263 22.0419 -71.9255 22.1973 -71.9238C22.8596 -71.9166 24.2663 -71.8929 26.0652 -71.7923L20.4859 28.0519L14.9065 127.896C17.0745 128.017 18.8533 128.052 20.0031 128.064C20.9156 128.074 21.834 128.073 22.0614 128.073V28.0729ZM23.4289 28.0729V-71.9271H22.0614V28.0729V128.073H23.4289V28.0729ZM24.792 26.7099H-75.208C-75.208 -27.7658 -31.0468 -71.9271 23.4289 -71.9271V28.0729V128.073C79.4102 128.073 124.792 82.6911 124.792 26.7099H24.792ZM23.7595 25.3875L-0.494156 122.402C-44.4039 111.424 -75.208 71.9713 -75.208 26.7099H24.792H124.792C124.792 -19.8024 93.1365 -60.3458 48.0132 -71.6267L23.7595 25.3875ZM21.6105 24.8503L-2.64303 121.865L-0.494051 122.402L23.7595 25.3875L48.0131 -71.6267L45.8641 -72.164L21.6105 24.8503ZM21.4912 24.8205L-2.69693 121.851C-2.674 121.857 -2.663 121.86 -2.65217 121.862C-2.64278 121.865 -2.64078 121.865 -2.64303 121.865L21.6105 24.8503L45.8641 -72.164C45.7845 -72.1839 45.7095 -72.2026 45.6793 -72.2101L21.4912 24.8205ZM19.7611 24.2292L-30.1902 110.86C-21.9003 115.64 -14.5495 118.331 -9.89116 119.82C-7.61056 120.549 -5.73481 121.062 -4.64234 121.352C-3.6296 121.621 -2.71443 121.847 -2.69631 121.851L21.4912 24.8205L45.6787 -72.2102C44.5569 -72.4899 47.5838 -71.777 50.9901 -70.6885C55.0791 -69.3818 61.9117 -66.8994 69.7124 -62.4015L19.7611 24.2292ZM19.3398 23.9494L-41.1177 103.604C-37.6314 106.25 -33.9818 108.674 -30.1906 110.86L19.7611 24.2292L69.7129 -62.4012C73.2116 -60.3838 76.5798 -58.1475 79.7973 -55.7055L19.3398 23.9494ZM18.1234 22.5844L-61.9175 82.5298C-61.9063 82.5448 -61.3428 83.3005 -60.7022 84.1297C-60.0111 85.0242 -58.81 86.5537 -57.2533 88.3727C-54.0735 92.0883 -48.7404 97.8186 -41.1181 103.604L19.3398 23.9494L79.7977 -55.7051C86.9702 -50.2611 91.9095 -44.9273 94.7006 -41.6658C97.0257 -38.9489 98.8573 -36.4358 98.1643 -37.361L18.1234 22.5844ZM18.0497 22.486L-61.9499 82.4865C-61.9507 82.4855 -61.949 82.4877 -61.9435 82.495C-61.9376 82.503 -61.9306 82.5123 -61.9182 82.5289L18.1234 22.5844L98.165 -37.3601C98.1427 -37.3899 98.0981 -37.4494 98.0493 -37.5146L18.0497 22.486ZM16.9899 21.0729L-63.0101 81.0729L-61.9503 82.486L18.0497 22.486L98.0496 -37.5141L96.9899 -38.9271L16.9899 21.0729ZM17.2086 19.5417L-42.7913 -60.4584C-87.4575 -26.9588 -96.5095 36.4069 -63.0102 81.0728L16.9899 21.0729L96.9899 -38.927C129.764 4.77241 120.908 66.767 77.2086 99.5417L17.2086 19.5417ZM18.7399 19.7604L98.7398 -40.2396C65.2404 -84.9055 1.87478 -93.958 -42.7914 -60.4583L17.2086 19.5417L77.2087 99.5416C33.509 132.316 -28.4855 123.46 -61.2601 79.7605L18.7399 19.7604ZM19.7997 21.1735L99.7996 -38.8266L98.7399 -40.2396L18.7399 19.7604L-61.2601 79.7604L-60.2003 81.1735L19.7997 21.1735ZM20.6623 22.2069L81.1205 -57.4473C84.7821 -54.6682 88.169 -51.6944 91.2743 -48.5861C94.0774 -45.7803 96.1312 -43.381 97.2452 -42.0418C99.0129 -39.9169 100.364 -38.0737 99.7997 -38.8265L19.7997 21.1735L-60.2004 81.1734C-60.005 81.4338 -59.5995 81.9739 -59.124 82.5921C-58.6909 83.155 -57.7424 84.3803 -56.5115 85.86C-53.6771 89.2674 -48.1293 95.5361 -39.7959 101.861L20.6623 22.2069ZM20.8538 22.3341L70.8047 -64.2968C74.3837 -62.2332 77.8289 -59.9457 81.1197 -57.448L20.6623 22.2069L-39.7951 101.862C-36.3821 104.452 -32.809 106.825 -29.0971 108.965L20.8538 22.3341ZM22.1411 22.7281L46.3947 -74.2861C45.4818 -74.5144 47.7049 -73.9841 50.3493 -73.1796C52.0159 -72.6726 55.0242 -71.7107 58.698 -70.216C62.7678 -68.5603 66.8229 -66.5927 70.8053 -64.2964L20.8538 22.3341L-29.0977 108.965C-20.0342 114.191 -12.1037 116.871 -7.86334 118.161C-6.02193 118.721 -4.52457 119.12 -3.83773 119.301C-3.0835 119.499 -2.42834 119.663 -2.11252 119.742L22.1411 22.7281ZM24.2901 23.2653L48.5436 -73.7489L46.3946 -74.2862L22.1411 22.7281L-2.11249 119.742L0.0364959 120.28L24.2901 23.2653ZM26.9795 26.7099H126.979C126.979 -20.806 94.641 -62.2246 48.5436 -73.7489L24.2901 23.2653L0.036536 120.28C-42.8997 109.546 -73.0205 70.9673 -73.0205 26.7099H26.9795ZM23.4289 30.2604V130.26C80.6183 130.26 126.979 83.8993 126.979 26.7099H26.9795H-73.0205C-73.0205 -26.5577 -29.8386 -69.7396 23.4289 -69.7396V30.2604ZM20.3638 30.236L14.7845 130.08C16.9393 130.201 18.7196 130.237 19.9007 130.251C20.8723 130.262 21.8324 130.26 22.0254 130.26L22.0246 30.2604L22.0239 -69.7396C21.9198 -69.7396 21.8551 -69.7396 21.7992 -69.7396C21.7457 -69.7396 21.7298 -69.7397 21.7356 -69.7397C21.7419 -69.7397 21.7903 -69.7395 21.8674 -69.7391C21.945 -69.7386 22.0687 -69.7377 22.2267 -69.7359C22.883 -69.7282 24.2256 -69.7042 25.9432 -69.6082L20.3638 30.236ZM16.5615 29.5465L-13.2721 124.993C-4.16542 127.839 5.25837 129.548 14.7845 130.08L20.3638 30.236L25.9432 -69.6082C32.8872 -69.2202 39.7567 -67.9745 46.3951 -65.8996L16.5615 29.5465ZM14.9978 28.9862L-20.1155 122.619C-19.9348 122.687 -19.0363 123.025 -18.1226 123.356C-17.0119 123.757 -15.3321 124.349 -13.2723 124.993L16.5615 29.5465L46.3952 -65.8996C48.0372 -65.3863 49.3027 -64.9374 49.9199 -64.7141C50.0685 -64.6603 50.1846 -64.6178 50.2575 -64.5909C50.3299 -64.5643 50.3752 -64.5474 50.3811 -64.5452C50.3865 -64.5432 50.3716 -64.5487 50.3215 -64.5675C50.2691 -64.5871 50.2086 -64.6098 50.1111 -64.6464L14.9978 28.9862ZM6.00633 30.2604V130.26C27.9599 130.26 49.3784 123.845 67.6624 111.881L12.9089 28.2029L-41.8446 -55.4754C-27.6543 -64.7606 -11.0318 -69.7396 6.00633 -69.7396V30.2604ZM5.00917 30.2604V130.26H6.00633V30.2604V-69.7396H5.00917V30.2604ZM1.45863 26.7099H-98.5414C-98.5414 83.8993 -52.1801 130.26 5.00917 130.26V30.2604V-69.7396C58.2767 -69.7396 101.459 -26.5578 101.459 26.7099H1.45863ZM4.14804 23.2653L-20.1055 -73.7489C-66.2029 -62.2246 -98.5414 -20.8061 -98.5414 26.7099H1.45863H101.459C101.459 70.9673 71.3378 109.546 28.4016 120.28L4.14804 23.2653ZM6.76343 22.6115L-17.4901 -74.4028L-20.1055 -73.7489L4.14804 23.2653L28.4016 120.28L31.017 119.626L6.76343 22.6115ZM7.32379 22.458L-28.338 -70.9671C-24.2051 -72.5447 -20.843 -73.5046 -19.2025 -73.9528C-18.0554 -74.2661 -17.1025 -74.4997 -17.4901 -74.4028L6.76343 22.6115L31.017 119.626C31.1534 119.592 31.4362 119.521 31.7627 119.437C32.0611 119.361 32.7059 119.195 33.5035 118.977C35.309 118.484 38.7648 117.494 42.9856 115.883L7.32379 22.458ZM7.99103 22.0149L-64.2739 -47.1065C-54.2121 -57.626 -41.9372 -65.776 -28.3382 -70.967L7.32379 22.458L42.9858 115.883C57.0898 110.499 69.8205 102.046 80.256 91.1364L7.99103 22.0149ZM8.34998 21.5581L-71.65 -38.442C-71.8897 -38.1223 -71.3047 -38.91 -70.5707 -39.8457C-69.5207 -41.1841 -67.3316 -43.9098 -64.2743 -47.1061L7.99103 22.0149L80.2564 91.136C83.3787 87.8717 85.632 85.0713 86.7875 83.5983C87.2978 82.9477 87.7008 82.4178 87.887 82.1723C88.0906 81.9038 88.2656 81.6706 88.35 81.5581L8.34998 21.5581ZM9.69821 19.7604L-70.3018 -40.2396L-71.65 -38.442L8.34998 21.5581L88.35 81.5581L89.6982 79.7604L9.69821 19.7604ZM11.6632 11.626L28.2702 110.237L29.5704 110.018L12.9633 11.407L-3.64373 -87.2044L-4.94392 -86.9854L11.6632 11.626ZM15.4744 11.4069L-1.13264 110.018L0.167849 110.237L16.7749 11.626L33.382 -86.9854L32.0815 -87.2044L15.4744 11.4069ZM22.0246 30.2604V130.26H23.4289V30.2604V-69.7396H22.0246V30.2604ZM12.9089 28.2029L-22.2033 121.836L-20.1145 122.619L14.9978 28.9862L50.11 -64.6468L48.0211 -65.4301L12.9089 28.2029Z" fill="black" mask="url(#path-1-inside-1_1336_2530)"/>
</svg>
