<svg width="26" height="26" viewBox="0 0 26 26" fill="none" xmlns="http://www.w3.org/2000/svg">
<mask id="path-1-inside-1_1225_6407" fill="white">
<path d="M16.2502 24.646H9.75015C8.32015 24.646 7.12849 24.5052 6.12099 24.2018C5.75265 24.0935 5.51432 23.736 5.53599 23.3568C5.80682 20.1176 9.08932 17.5718 13.0002 17.5718C16.911 17.5718 20.1827 20.1068 20.4643 23.3568C20.4968 23.7468 20.2585 24.0935 19.8793 24.2018C18.8718 24.5052 17.6802 24.646 16.2502 24.646ZM7.28015 22.8151C7.99515 22.956 8.80765 23.021 9.75015 23.021H16.2502C17.1927 23.021 18.0051 22.956 18.7201 22.8151C18.146 20.7351 15.7735 19.1968 13.0002 19.1968C10.2268 19.1968 7.85432 20.7351 7.28015 22.8151Z"/>
</mask>
<path d="M16.2502 24.646H9.75015C8.32015 24.646 7.12849 24.5052 6.12099 24.2018C5.75265 24.0935 5.51432 23.736 5.53599 23.3568C5.80682 20.1176 9.08932 17.5718 13.0002 17.5718C16.911 17.5718 20.1827 20.1068 20.4643 23.3568C20.4968 23.7468 20.2585 24.0935 19.8793 24.2018C18.8718 24.5052 17.6802 24.646 16.2502 24.646ZM7.28015 22.8151C7.99515 22.956 8.80765 23.021 9.75015 23.021H16.2502C17.1927 23.021 18.0051 22.956 18.7201 22.8151C18.146 20.7351 15.7735 19.1968 13.0002 19.1968C10.2268 19.1968 7.85432 20.7351 7.28015 22.8151Z" fill="black"/>
<path d="M6.12099 24.2018L6.69758 22.2867L6.68532 22.2831L6.12099 24.2018ZM5.53599 23.3568L3.54294 23.1902L3.54075 23.2164L3.53924 23.2427L5.53599 23.3568ZM20.4643 23.3568L22.4574 23.1907L22.4568 23.1841L20.4643 23.3568ZM19.8793 24.2018L19.3299 22.2788L19.3163 22.2827L19.3027 22.2868L19.8793 24.2018ZM7.28015 22.8151L5.35226 22.283L4.77867 24.3609L6.89364 24.7774L7.28015 22.8151ZM18.7201 22.8151L19.1067 24.7774L21.2216 24.3609L20.648 22.283L18.7201 22.8151ZM16.2502 24.646V22.646H9.75015V24.646V26.646H16.2502V24.646ZM9.75015 24.646V22.646C8.44086 22.646 7.458 22.5157 6.69757 22.2868L6.12099 24.2018L5.5444 26.1169C6.79898 26.4946 8.19944 26.646 9.75015 26.646V24.646ZM6.12099 24.2018L6.68532 22.2831C7.25256 22.4499 7.56146 22.9681 7.53273 23.4709L5.53599 23.3568L3.53924 23.2427C3.46718 24.5038 4.25275 25.7371 5.55665 26.1206L6.12099 24.2018ZM5.53599 23.3568L7.52903 23.5234C7.68897 21.6105 9.81041 19.5718 13.0002 19.5718V17.5718V15.5718C8.36823 15.5718 3.92467 18.6247 3.54294 23.1902L5.53599 23.3568ZM13.0002 17.5718V19.5718C16.1864 19.5718 18.3044 21.5982 18.4718 23.5295L20.4643 23.3568L22.4568 23.1841C22.0609 18.6154 17.6356 15.5718 13.0002 15.5718V17.5718ZM20.4643 23.3568L18.4712 23.5229C18.4244 22.9615 18.7904 22.4329 19.3299 22.2788L19.8793 24.2018L20.4288 26.1249C21.7266 25.7541 22.5692 24.5321 22.4574 23.1907L20.4643 23.3568ZM19.8793 24.2018L19.3027 22.2868C18.5423 22.5157 17.5594 22.646 16.2502 22.646V24.646V26.646C17.8009 26.646 19.2013 26.4946 20.4559 26.1169L19.8793 24.2018ZM7.28015 22.8151L6.89364 24.7774C7.77216 24.9505 8.72092 25.021 9.75015 25.021V23.021V21.021C8.89439 21.021 8.21814 20.9615 7.66667 20.8528L7.28015 22.8151ZM9.75015 23.021V25.021H16.2502V23.021V21.021H9.75015V23.021ZM16.2502 23.021V25.021C17.2794 25.021 18.2281 24.9505 19.1067 24.7774L18.7201 22.8151L18.3336 20.8528C17.7822 20.9615 17.1059 21.021 16.2502 21.021V23.021ZM18.7201 22.8151L20.648 22.283C19.7643 19.0814 16.3786 17.1968 13.0002 17.1968V19.1968V21.1968C15.1683 21.1968 16.5277 22.3889 16.7923 23.3473L18.7201 22.8151ZM13.0002 19.1968V17.1968C9.62167 17.1968 6.23601 19.0814 5.35226 22.283L7.28015 22.8151L9.20805 23.3473C9.47263 22.3889 10.832 21.1968 13.0002 21.1968V19.1968Z" fill="black" mask="url(#path-1-inside-1_1225_6407)"/>
<path d="M16.25 2.47607H9.75C4.33334 2.47607 2.16667 4.64274 2.16667 10.0594V16.5594C2.16667 20.6544 3.40167 22.8969 6.34834 23.7311C6.58667 20.9144 9.47917 18.6935 13 18.6935C16.5208 18.6935 19.4133 20.9144 19.6517 23.7311C22.5983 22.8969 23.8333 20.6544 23.8333 16.5594V10.0594C23.8333 4.64274 21.6667 2.47607 16.25 2.47607ZM13 15.6602C10.855 15.6602 9.12167 13.9161 9.12167 11.7711C9.12167 9.62609 10.855 7.89274 13 7.89274C15.145 7.89274 16.8783 9.62609 16.8783 11.7711C16.8783 13.9161 15.145 15.6602 13 15.6602Z" stroke="black" stroke-width="2" stroke-linecap="round" stroke-linejoin="round"/>
<mask id="path-4-inside-2_1225_6407" fill="white">
<path d="M12.9999 16.1635C10.4108 16.1635 8.30908 14.051 8.30908 11.4618C8.30908 8.87268 10.4108 6.771 12.9999 6.771C15.5891 6.771 17.6908 8.87268 17.6908 11.4618C17.6908 14.051 15.5891 16.1635 12.9999 16.1635ZM12.9999 8.396C11.3099 8.396 9.93408 9.77185 9.93408 11.4618C9.93408 13.1627 11.3099 14.5385 12.9999 14.5385C14.6899 14.5385 16.0658 13.1627 16.0658 11.4618C16.0658 9.77185 14.6899 8.396 12.9999 8.396Z"/>
</mask>
<path d="M12.9999 16.1635C10.4108 16.1635 8.30908 14.051 8.30908 11.4618C8.30908 8.87268 10.4108 6.771 12.9999 6.771C15.5891 6.771 17.6908 8.87268 17.6908 11.4618C17.6908 14.051 15.5891 16.1635 12.9999 16.1635ZM12.9999 8.396C11.3099 8.396 9.93408 9.77185 9.93408 11.4618C9.93408 13.1627 11.3099 14.5385 12.9999 14.5385C14.6899 14.5385 16.0658 13.1627 16.0658 11.4618C16.0658 9.77185 14.6899 8.396 12.9999 8.396Z" fill="#292D32"/>
<path d="M12.9999 16.1635V14.1635C11.5213 14.1635 10.3091 12.9524 10.3091 11.4618H8.30908H6.30908C6.30908 15.1496 9.3002 18.1635 12.9999 18.1635V16.1635ZM8.30908 11.4618H10.3091C10.3091 9.97724 11.5153 8.771 12.9999 8.771V6.771V4.771C9.30617 4.771 6.30908 7.76812 6.30908 11.4618H8.30908ZM12.9999 6.771V8.771C14.4845 8.771 15.6908 9.97724 15.6908 11.4618H17.6908H19.6908C19.6908 7.76812 16.6937 4.771 12.9999 4.771V6.771ZM17.6908 11.4618H15.6908C15.6908 12.9524 14.4785 14.1635 12.9999 14.1635V16.1635V18.1635C16.6996 18.1635 19.6908 15.1496 19.6908 11.4618H17.6908ZM12.9999 8.396V6.396C10.2053 6.396 7.93408 8.66729 7.93408 11.4618H9.93408H11.9341C11.9341 10.8764 12.4145 10.396 12.9999 10.396V8.396ZM9.93408 11.4618H7.93408C7.93408 14.2627 10.2008 16.5385 12.9999 16.5385V14.5385V12.5385C12.419 12.5385 11.9341 12.0627 11.9341 11.4618H9.93408ZM12.9999 14.5385V16.5385C15.799 16.5385 18.0658 14.2627 18.0658 11.4618H16.0658H14.0658C14.0658 12.0627 13.5808 12.5385 12.9999 12.5385V14.5385ZM16.0658 11.4618H18.0658C18.0658 8.66729 15.7945 6.396 12.9999 6.396V8.396V10.396C13.5853 10.396 14.0658 10.8764 14.0658 11.4618H16.0658Z" fill="black" mask="url(#path-4-inside-2_1225_6407)"/>
</svg>
