<svg width="27" height="37" viewBox="0 0 27 37" fill="none" xmlns="http://www.w3.org/2000/svg">
<path d="M10.8318 21.9602L14.4058 24.0237L7.14807 36.5944L5.06495 31.9486L10.8318 21.9602Z" fill="#418ED6"/>
<path d="M10.8318 21.9602L7.25772 19.8967L-8.12855e-06 32.4675L5.06495 31.9486L10.8318 21.9602Z" fill="#2B63A6"/>
<path d="M15.9307 21.9602L12.3567 24.0237L19.6144 36.5944L21.6975 31.9486L15.9307 21.9602Z" fill="#2B63A6"/>
<path d="M15.9307 21.9602L19.5047 19.8967L26.7625 32.4675L21.6975 31.9486L15.9307 21.9602Z" fill="#418ED6"/>
<circle cx="13.3755" cy="13.3047" r="12.8047" fill="#E3E3E3" stroke="#404040"/>
<circle cx="13.3755" cy="13.3047" r="9.60494" fill="#595959"/>
<mask id="mask0_1230_7031" style="mask-type:alpha" maskUnits="userSpaceOnUse" x="4" y="4" width="20" height="20">
<circle cx="13.8882" cy="14.3302" r="9.6273" fill="#C28B37"/>
</mask>
<g mask="url(#mask0_1230_7031)">
<circle cx="13.3755" cy="13.305" r="9.6273" fill="url(#paint0_linear_1230_7031)"/>
</g>
<path d="M13.4274 6.60718L15.5041 10.7607L19.6576 11.2799L16.8055 14.478L17.5809 19.0676L13.4274 16.9909L9.27389 19.0676L10.0561 14.478L7.19714 11.2799L11.3506 10.7607L13.4274 6.60718Z" fill="url(#paint1_linear_1230_7031)"/>
<defs>
<linearGradient id="paint0_linear_1230_7031" x1="13.3755" y1="3.67773" x2="13.3755" y2="22.9323" gradientUnits="userSpaceOnUse">
<stop stop-color="#9CA1A3"/>
<stop offset="1" stop-color="#9CA1A3" stop-opacity="0"/>
</linearGradient>
<linearGradient id="paint1_linear_1230_7031" x1="13.4274" y1="6.60718" x2="13.4274" y2="19.0676" gradientUnits="userSpaceOnUse">
<stop stop-color="#F1F5F5"/>
<stop offset="0.0001" stop-color="white"/>
<stop offset="1" stop-color="#F1F5F5"/>
</linearGradient>
</defs>
</svg>
