<svg width="32" height="32" viewBox="0 0 32 32" fill="none" xmlns="http://www.w3.org/2000/svg">
<path fill-rule="evenodd" clip-rule="evenodd" d="M13.4322 1.5161e-07H17.922C20.2602 -9.1492e-06 22.0933 -1.63633e-05 23.5578 0.139223C25.0504 0.281148 26.2727 0.575413 27.3501 1.23567C28.4784 1.9271 29.4271 2.87575 30.1185 4.00405C30.7788 5.0815 31.073 6.30373 31.2149 7.79641C31.3542 9.26084 31.3542 11.0939 31.3542 13.4322V14.9885C31.3542 16.6529 31.3542 17.9579 31.2822 19.012C31.2091 20.0846 31.0578 20.9772 30.7159 21.8027C29.8648 23.8574 28.2324 25.4898 26.1777 26.3409C25.0038 26.8271 23.6667 26.935 21.8361 26.9665C21.1957 26.9776 20.7901 26.9857 20.4809 27.0199C20.192 27.0519 20.08 27.0988 20.0145 27.1369C19.9454 27.1771 19.8512 27.2504 19.6877 27.4748C19.5107 27.7176 19.3107 28.0532 18.9936 28.589L18.203 29.9246C17.0749 31.8305 14.2792 31.8305 13.1511 29.9246L12.3605 28.589C12.0434 28.0532 11.8434 27.7176 11.6665 27.4748C11.5029 27.2504 11.4087 27.1771 11.3396 27.1369C11.2741 27.0988 11.1621 27.0519 10.8732 27.0199C10.564 26.9857 10.1584 26.9776 9.51804 26.9665C7.68742 26.935 6.35038 26.8271 5.17646 26.3409C3.12179 25.4898 1.48937 23.8574 0.638302 21.8027C0.296376 20.9772 0.145098 20.0846 0.0719179 19.012C-8.19253e-06 17.9579 -4.45533e-06 16.6529 3.25457e-07 14.9885L1.5161e-07 13.4322C-9.1492e-06 11.0939 -1.63633e-05 9.26085 0.139223 7.79641C0.281148 6.30373 0.575413 5.0815 1.23567 4.00405C1.9271 2.87574 2.87574 1.9271 4.00405 1.23567C5.0815 0.575413 6.30373 0.281148 7.79641 0.139223C9.26085 -1.63633e-05 11.0939 -9.1492e-06 13.4322 1.5161e-07ZM8.00346 2.3169C6.67091 2.4436 5.82299 2.68659 5.14701 3.10082C4.31305 3.61188 3.61188 4.31305 3.10082 5.14701C2.68659 5.82299 2.4436 6.67091 2.3169 8.00346C2.18865 9.35229 2.1875 11.0815 2.1875 13.4896V14.9479C2.1875 16.6616 2.18809 17.8921 2.25434 18.8631C2.31992 19.8243 2.44617 20.4511 2.65929 20.9656C3.28834 22.4843 4.49491 23.6908 6.01358 24.3199C6.76555 24.6314 7.72488 24.7478 9.55573 24.7794L9.60213 24.7802C10.1825 24.7901 10.6912 24.7989 11.1139 24.8457C11.5682 24.896 12.0124 24.9977 12.4394 25.246C12.8627 25.4922 13.1681 25.8211 13.4343 26.1863C13.6802 26.5238 13.933 26.9509 14.2193 27.4347L15.0335 28.8104C15.3147 29.2853 16.0395 29.2853 16.3206 28.8104L17.1348 27.4347C17.4211 26.9509 17.6739 26.5238 17.9199 26.1863C18.186 25.8211 18.4914 25.4922 18.9147 25.246C19.3417 24.9977 19.7859 24.896 20.2402 24.8457C20.6629 24.7989 21.1716 24.7901 21.752 24.7802L21.7984 24.7794C23.6293 24.7478 24.5886 24.6314 25.3406 24.3199C26.8593 23.6908 28.0658 22.4843 28.6949 20.9656C28.908 20.4511 29.0342 19.8243 29.0998 18.8631C29.1661 17.8921 29.1667 16.6616 29.1667 14.9479V13.4896C29.1667 11.0815 29.1655 9.35229 29.0373 8.00346C28.9106 6.67091 28.6676 5.82299 28.2533 5.14702C27.7423 4.31305 27.0411 3.61188 26.2072 3.10082C25.5312 2.68659 24.6833 2.4436 23.3507 2.3169C22.0019 2.18865 20.2726 2.1875 17.8646 2.1875H13.4896C11.0815 2.1875 9.35229 2.18865 8.00346 2.3169ZM15.6771 7.29167C16.2811 7.29167 16.7708 7.78136 16.7708 8.38542V20.0521C16.7708 20.6561 16.2811 21.1458 15.6771 21.1458C15.073 21.1458 14.5833 20.6561 14.5833 20.0521V8.38542C14.5833 7.78136 15.073 7.29167 15.6771 7.29167ZM9.84375 10.2083C10.4478 10.2083 10.9375 10.698 10.9375 11.3021V17.1354C10.9375 17.7395 10.4478 18.2292 9.84375 18.2292C9.23969 18.2292 8.75 17.7395 8.75 17.1354V11.3021C8.75 10.698 9.23969 10.2083 9.84375 10.2083ZM21.5104 10.2083C22.1145 10.2083 22.6042 10.698 22.6042 11.3021V17.1354C22.6042 17.7395 22.1145 18.2292 21.5104 18.2292C20.9064 18.2292 20.4167 17.7395 20.4167 17.1354V11.3021C20.4167 10.698 20.9064 10.2083 21.5104 10.2083Z" fill="black"/>
</svg>
