<svg width="35" height="35" viewBox="0 0 35 35" fill="none" xmlns="http://www.w3.org/2000/svg">
<path fill-rule="evenodd" clip-rule="evenodd" d="M24.8581 8.17633C26.9294 8.0746 28.4884 9.77875 28.4884 11.7234V20.6106C28.4884 22.6631 26.8306 24.2338 24.9002 24.3778C24.0978 24.4376 23.2874 24.5352 22.6735 24.6852C21.4724 24.9786 19.8874 25.7448 18.8952 26.2676C18.0232 26.7271 16.9768 26.7271 16.1048 26.2676C15.1126 25.7448 13.5276 24.9786 12.3265 24.6852C11.7126 24.5352 10.9022 24.4376 10.0998 24.3778C8.16943 24.2338 6.51163 22.6631 6.51163 20.6106V11.7966C6.51163 9.80859 8.13628 8.08771 10.2427 8.24195C11.0982 8.30459 12.0837 8.41432 12.9061 8.61524C14.4066 8.98188 16.1952 9.85936 17.1958 10.3846C17.3627 10.4722 17.5707 10.4687 17.7382 10.3718C18.6425 9.84858 20.2145 9.00025 21.5692 8.62472C22.5834 8.34359 23.8332 8.22667 24.8581 8.17633ZM26.0465 11.7234C26.0465 11.0436 25.5279 10.5882 24.9779 10.6153C23.9964 10.6635 22.9668 10.7713 22.2215 10.9778C21.1946 11.2625 19.8583 11.9663 18.9611 12.4854C18.8826 12.5308 18.8024 12.5724 18.7209 12.6102V23.6187C19.7124 23.1367 20.9826 22.5846 22.0939 22.3131C22.9045 22.115 23.8731 22.0057 24.7187 21.9427C25.4925 21.885 26.0465 21.2698 26.0465 20.6106V11.7234ZM16.061 12.5467C16.1326 12.5843 16.2054 12.6188 16.2791 12.6502V23.6187C15.2876 23.1367 14.0174 22.5846 12.9061 22.3131C12.0955 22.115 11.1269 22.0057 10.2813 21.9427C9.50748 21.885 8.95349 21.2698 8.95349 20.6106V11.7966C8.95349 11.1019 9.49521 10.6356 10.0644 10.6773C10.8775 10.7368 11.703 10.835 12.3265 10.9873C13.5084 11.2761 15.0638 12.0233 16.061 12.5467Z" fill="black"/>
<path fill-rule="evenodd" clip-rule="evenodd" d="M14.1523 5.0302e-07C11.1607 -2.46281e-05 8.79101 -4.45184e-05 6.93648 0.249291C5.02788 0.505894 3.48308 1.04655 2.26482 2.26482C1.04655 3.48308 0.505894 5.02788 0.249291 6.93648C-4.45396e-05 8.79101 -2.46281e-05 11.1606 5.0302e-07 14.1523V20.8477C-2.46281e-05 23.8393 -4.45098e-05 26.209 0.249291 28.0635C0.505894 29.9721 1.04655 31.5169 2.26482 32.7352C3.48308 33.9534 5.02788 34.4941 6.93648 34.7507C8.791 35 11.1606 35 14.1523 35H20.8476C23.8393 35 26.209 35 28.0635 34.7507C29.9721 34.4941 31.5169 33.9534 32.7352 32.7352C33.9534 31.5169 34.4941 29.9721 34.7507 28.0635C35 26.209 35 23.8394 35 20.8477V14.1524C35 11.1607 35 8.791 34.7507 6.93648C34.4941 5.02788 33.9534 3.48308 32.7352 2.26482C31.5169 1.04655 29.9721 0.505894 28.0635 0.249291C26.209 -4.45433e-05 23.8394 -2.46281e-05 20.8477 5.0302e-07H14.1523ZM3.99147 3.99147C4.68042 3.30253 5.62403 2.88958 7.26185 2.66938C8.93479 2.44446 11.1401 2.44186 14.2442 2.44186H20.7558C23.8599 2.44186 26.0652 2.44446 27.7381 2.66938C29.376 2.88958 30.3196 3.30253 31.0085 3.99147C31.6975 4.68042 32.1104 5.62403 32.3306 7.26185C32.5555 8.93479 32.5581 11.1401 32.5581 14.2442V20.7558C32.5581 23.8599 32.5555 26.0652 32.3306 27.7382C32.1104 29.376 31.6975 30.3196 31.0085 31.0085C30.3196 31.6975 29.376 32.1104 27.7381 32.3306C26.0652 32.5555 23.8599 32.5581 20.7558 32.5581H14.2442C11.1401 32.5581 8.93479 32.5555 7.26185 32.3306C5.62403 32.1104 4.68042 31.6975 3.99147 31.0085C3.30253 30.3196 2.88958 29.376 2.66938 27.7382C2.44446 26.0652 2.44186 23.8599 2.44186 20.7558V14.2442C2.44186 11.1401 2.44446 8.93479 2.66938 7.26185C2.88958 5.62403 3.30253 4.68042 3.99147 3.99147Z" fill="black"/>
</svg>
