<?xml version="1.0" encoding="utf-8"?>
<!-- Generator: Adobe Illustrator 27.9.0, SVG Export Plug-In . SVG Version: 6.00 Build 0)  -->
<svg version="1.1" id="Layer_1" xmlns="http://www.w3.org/2000/svg" xmlns:xlink="http://www.w3.org/1999/xlink" x="0px" y="0px"
	 viewBox="0 0 612 792" style="enable-background:new 0 0 612 792;" xml:space="preserve">
<style type="text/css">
	.st0{fill:#EE9341;}
	.st1{fill:#478B8A;}
</style>
<g>
	<path class="st0" d="M-13,494.4C-74.3,457.4-82.9,371-36.4,319.8c45.2-49.8,124-50.4,170.2-1.3c45.1,48,43.6,133.4-21.7,176.3
		c4.3,1.8,8.5,3.4,12.5,5.2c22.7,10.3,42.4,24.8,59.2,43.2c23.3,25.5,38.8,54.9,44.7,89.1c1.4,8,2.5,16.1,2.5,24.3
		c0,19.2,0.3,38.3,0,57.5c-0.5,33.2-23,59.8-55.5,66.2c-3.1,0.6-6.3,0.7-9.4,0.7c-77,0.1-153.9,0.1-230.9,0.1
		c-31.8,0-58.3-22.4-64-53.7c-1.2-6.6-2.1-13.2-1.9-19.8c0.5-22.1-1.1-44.3,1.6-66.4c4.1-33.1,17.1-62.3,37.9-88.1
		c19.3-24.1,43-42.5,71.2-55C-17.7,496.9-15.1,496.3-13,494.4z M50.5,749.3c0,0,0-0.1,0-0.1c38,0,76,0.1,114-0.1
		c18.2-0.1,31.1-11.1,34.7-29c1.8-8.9,0.7-17.9,0.8-26.9c0.1-13.5,1-27.1-0.4-40.5c-4.2-39.5-20.3-73.3-50.9-99.7
		c-28.2-24.3-60.8-38-98.1-38.9c-29.1-0.7-55.7,8.6-80,24.2c-42.5,27.4-65.3,67-69.1,117c-1.5,19.5-0.9,39.3-0.1,59
		c0.9,22.5,17.3,35.2,35.8,35C-25.1,749,12.7,749.3,50.5,749.3z M48.3,313.5c-47.3-0.6-82.7,37.6-83.1,82.7
		c-0.4,46.6,33.9,85.2,83.6,85.6c46.4,0.4,85-37.5,85.2-83.3C134.2,351.8,95.8,313.7,48.3,313.5z"/>
	<path class="st1" d="M624.1,494.9c18.6,6.5,34.9,15.6,49.8,27.3c35.9,28.4,58.1,65,66.2,110.2c2.7,14.9,2.1,29.9,2.1,44.8
		c0,12.3,0.3,24.7-0.2,37c-1.5,38.2-31.2,66.7-69.3,66.8c-74.8,0.1-149.6,0-224.4,0c-36.2,0-65.7-28.3-67.3-65.4
		c-1-22.5-1.4-45.1,0.2-67.4c2-27,10.1-52.7,24.2-76.1c21.8-36.3,52.8-61.4,92.2-76.4c0.8-0.3,1.5-0.7,2.5-1.2
		c-33.2-22.5-50.3-53.9-51.8-93.6c-1.3-33.7,10-63,34-86.6c46.4-45.8,122.7-42.3,166.2,5.9C692,368.4,689.3,453,624.1,494.9z
		 M561.7,749.2c0-0.1,0-0.1,0-0.2c38,0,76,0.2,114-0.1c16.6-0.2,29.6-11.1,34.2-27.1c2-7,1.9-14.1,1.8-21.3
		c-0.2-19.9,1.3-39.9-2.1-59.7c-6.5-38-24.5-69.5-54.9-93.1c-37.3-29-79.2-40.5-125.8-29.5c-34.6,8.1-63.4,26-85.5,54.1
		c-19.6,25-30.2,53.7-31.8,85.3c-0.9,17.9-0.6,36-0.1,54c0.2,8.8,2.7,17.5,8.5,24.4c7.8,9.2,18.2,13.4,30.4,13.4
		C487.4,749.1,524.5,749.2,561.7,749.2z M479,400c-0.4,40.7,33,82.3,83.6,81.9c48.2-0.4,84.7-37.6,84.2-85.8
		c-0.5-45.3-39-82.6-84.1-82.7C509.8,313.3,477.4,355.9,479,400z"/>
	<path class="st1" d="M365.7,294.7c-28,0-56,0.1-84-0.1c-4,0-6.9,1.2-9.7,4c-17.9,18.1-35.9,36.1-53.8,54.3
		c-8.4,8.6-17.5,11.6-26.4,7.6c-10.1-4.6-14.8-13-14.9-24c-0.2-12.5-0.2-25,0-37.5c0.1-3.6-1-4.6-4.5-4.4
		c-14.7,0.8-28.8-0.9-41.8-8.6c-18.2-10.8-29.4-26.5-33.7-47.2c-1-4.6-1.2-9.2-1.2-13.8c0-48.1-0.3-96.3,0.2-144.4
		c0.3-25.1,11.3-45.1,32.4-59.1c12.3-8.2,26.1-11.2,40.4-11.2c89.3-0.1,178.6,0,267.8,0c18,0,35,3,49.8,14.3
		c14.7,11.2,24,25.6,27.4,43.7c1,5.6,1.2,11.4,1.2,17.2c0.1,46.6,0.1,93.3,0,139.9c0,18.1-6.4,33.7-18.9,46.7
		c-13.1,13.6-28.9,21.9-48.1,22.1c-27.5,0.3-55,0.1-82.4,0.1C365.7,294.5,365.7,294.6,365.7,294.7z M208,318.8
		c0.6-0.1,1-0.1,1.2-0.2c13.8-14,28.1-27.6,41.2-42.2c8.6-9.6,18.1-13.5,31-13.4c54.8,0.5,109.6,0.3,164.5,0.1
		c21.5-0.1,38.1-17.2,38.1-38.7c0-47,0-94,0-141c0-4.7-0.8-9.3-2.4-13.7c-4.6-13.2-17.7-27.3-40.5-27.1
		c-58.8,0.5-117.6,0.1-176.5,0.2c-33.8,0-67.7-0.2-101.5,0.3c-19,0.3-35.7,17.3-35.8,36.2c-0.3,48.8-0.2,97.6,0,146.5
		c0.1,17.6,12.8,32.6,30.1,36.3c10.7,2.3,21.6,0.8,32.4,1c12.6,0.3,18.3,5.8,18.3,18.4C208,293.8,208,306.2,208,318.8z"/>
	<path class="st0" d="M305.8,141.5c13.2-0.1,24.3,4.8,31.7,15.7c6,8.9,14.7,14.9,21.8,22.6c8.9,9.6,13.4,20.6,9.1,33.8
		c-5,15.4-21.7,24.6-37.8,21c-4.7-1.1-9.3-2.5-14-3.7c-8.8-2.3-17.4-2-26,1.1c-7.9,2.9-15.9,4.9-24.4,2.8
		c-21.1-5-30.6-28.9-19.2-48.1c3.1-5.3,7.4-9.4,11.9-13.3c5-4.3,9.2-9.1,12.9-14.5C280,146.9,291.5,141.4,305.8,141.5z"/>
	<path class="st0" d="M312.8,107.3c0.1-9.7,2.3-17.5,8.3-23.9c9.1-9.8,23.8-8.4,31,2.9c7.6,12,6.2,30.5-3.3,41
		c-5.6,6.1-12.7,7.7-20.5,5.7c-8.2-2.1-12-8.5-14.2-15.9C313.1,113.6,312.5,109.9,312.8,107.3z"/>
	<path class="st0" d="M298.1,106.1c0.2,5.8-1.3,11.2-3.8,16.3c-6.8,13.9-25.1,15.4-33.9,2.8c-8-11.5-8.6-23.8-2.8-36.4
		c3.2-6.9,8.6-11.3,16.6-11.9c8.4-0.6,14.3,3.4,18.6,10.2C296.4,92.9,298.2,99.2,298.1,106.1z"/>
	<path class="st0" d="M211.5,137.3c0.3-8.2,2.7-14.7,10.2-18c7.7-3.4,14.8-1.4,20.8,4c7.9,7,12,15.8,10.6,26.6
		c-1.8,14-16.4,20.8-28,12.8C216.1,156.5,211.9,147.5,211.5,137.3z"/>
	<path class="st0" d="M382.2,117.8c8.8,0,14.8,4.8,16.9,12.7c3.4,12.7-5.1,29.5-17.3,34.1c-10.6,4-19.3-0.3-22.4-11.3
		c-3.6-12.4,3.9-28.7,15.7-34C377.6,118.3,380.1,117.6,382.2,117.8z"/>
</g>
</svg>
