<?xml version="1.0" encoding="utf-8"?>
<!-- Generator: Adobe Illustrator 27.9.0, SVG Export Plug-In . SVG Version: 6.00 Build 0)  -->
<svg version="1.1" id="Layer_1" xmlns="http://www.w3.org/2000/svg" xmlns:xlink="http://www.w3.org/1999/xlink" x="0px" y="0px"
	 viewBox="0 0 612 792" style="enable-background:new 0 0 612 792;" xml:space="preserve">
<style type="text/css">
	.st0{fill:#3E8787;}
	.st1{fill:#F0A03C;}
</style>
<g>
	<path class="st0" d="M102.9,555.7C65,524.6,38.8,486.2,24.3,439.8c-2.5-7.9-4.6-15.9-5.5-24.2c-0.3-3-1.6-4.2-4.7-4.4
		c-29.7-2.5-52.6-29.3-56-56c-3.1-24.2-2.2-48.7-0.8-72.8c1.9-31.2,23.2-54.6,47.6-60.4c5.4-1.3,6.5-4,7.2-8.6
		c2.3-14.3,7.4-27.7,12.6-41.1c11-28.3,26.7-53.7,46.2-76.8C112.5,46.1,165,15.1,228.5,2.9c33.7-6.5,67.6-7.5,101.3-2.5
		c49,7.2,93.3,25.8,132.2,57.1c47.6,38.2,78.4,87.3,95.3,145.5c0.9,3.2,2.3,6.4,2.2,9.6c-0.1,6.8,3.9,8.1,9.4,9.9
		c23.4,7.8,36.8,25.1,43,48.3c1.6,5.9,2.1,12.1,2.1,18.3c-0.1,18.3,0,36.7,0,55c-0.1,38.3-31.8,69-69.3,69.1
		c-19.8,0-36.1-7.3-49.4-21.6c-0.8-0.8-1.4-1.9-2.7-3.7c-12.5,56.3-42.9,99.1-88.7,131.1c-46.2,32.2-97.5,42.3-153.4,32.7
		c12.6,17.3,15.7,35.2,8.6,54.4c-5.9,16-21.4,26.8-38.5,27c-19,0.2-38,0.2-57,0c-25.2-0.2-44.2-19.4-44.7-44.7c0-1,0-1.9,0-3.5
		c-11.9,6.4-23,12.9-33.1,21c-32,25.7-52.2,58.6-61,98.7c-1.8,8.3-2.4,16.7-3.3,25c-0.4,3.7,0.8,4.4,4.2,4.4
		c102.8-0.1,205.6-0.1,308.4-0.1c67,0,134,0,200.9,0.1c4.3,0,6.3-0.8,5.8-5.6c-0.3-2.9,0.4-6,1-8.9c1.7-7.2,8.2-12,15.4-11.6
		c9.3,0.5,17,6.9,17.4,15.4c0.4,8.1,0.6,16.4-0.1,24.5c-1.1,12.2-12.4,21-26.2,21c-71.5,0-143-0.1-214.4-0.1
		c-106.5,0-212.9,0-319.4,0c-17.8,0-28.7-10.2-28.5-28c0.5-49.1,14.3-93.6,46.5-131.5c19-22.3,41.3-40.4,68.2-52.4
		C101.5,556.6,102,556.2,102.9,555.7z M109.2,305.1c-1.4,26.2-1.4,52.3,4.9,78c5,20.5,12.7,40,24.6,57.3
		c20.2,29.6,47.2,51.4,80.5,65.2c17.7,7.3,36.2,12.3,55.1,12.9c16.3,0.5,32.6,0.9,49.1-3.3c38.4-9.6,70.5-28.6,96.5-58.3
		c15.8-18.1,27.2-38.7,34.3-61.7c5-15.9,8.1-32.3,8.3-48.8c0.4-32.1,3.1-64.3-2.6-96.2c-8.6-48.5-33.4-87.1-74-114.9
		c-30.5-20.9-64.8-29.7-101.7-29.7c-29.4,0-57.2,6.3-83,20.3c-34.7,18.9-60.3,46.3-76.7,82.4c-8.2,18-12.6,37.1-15,56.4
		C107.9,278,109.2,291.6,109.2,305.1z M77.6,238.6c0.5-1.2,0.9-1.9,1-2.7c9.2-45.7,31-84.3,66.6-114.5
		C192.8,81,247.7,63.9,310.1,70.7c16,1.7,31.5,4.5,46.5,9.9c56.7,20.5,97.9,58.3,123.4,112.9c6.1,13.1,10.6,26.9,12.2,41.4
		c0.2,1.7,1.4,4,4.3,1.3c6.7-6.3,14-11.8,23.1-14.2c6.2-1.7,6.1-1.6,4.5-7.6c-9.2-33.4-25.3-63.2-46.7-90.5
		c-20.8-26.5-46-47.3-75.6-63.1C364.4,41,324.4,32.4,282.2,32.8c-41.1,0.4-79.5,10.4-115.6,29.9c-34.9,18.9-63,45.2-85.5,77.7
		c-16.4,23.7-27.1,50.1-34.6,77.8c-0.4,1.6,0,2.4,1.7,2.8C59.6,223.9,69.1,230.1,77.6,238.6z M577.9,314.9
		C577.8,314.9,577.8,314.9,577.9,314.9c0-10,0-20,0-30c0-1.5,0-3-0.3-4.5c-3.4-16.8-19.2-28.8-35.9-27.2
		c-17.9,1.7-31.5,16.2-31.6,33.8c-0.1,19.1,0,38.3,0,57.4c0,19.5,14.2,32.9,32.9,33.4c19.2,0.4,34.9-15.1,34.9-33.9
		C577.9,334.3,577.9,324.6,577.9,314.9z M60.6,320.3c0-14,0.1-23.5,0-33c0-4.3-0.2-8.7-1.9-12.8c-6.1-15-22.8-23.6-39.2-20.3
		c-14.9,3-26.2,16.9-26.2,32.7c-0.1,19-0.1,38,0,57c0.1,20.3,16.2,35.2,36.5,34c15.3-0.9,28.7-13.4,30.5-28.7
		C61.4,338.1,60.3,326.9,60.6,320.3z M202.3,537c-64.8-28.8-104.6-78.2-123.6-145.9c-6.3,7.1-13.4,12.8-22.1,15.8
		c-3.4,1.2-3.8,2.5-3,5.7c6.1,25.6,16.6,49.3,31.3,71.1c14.5,21.5,32.2,39.8,52.8,55.3c3,2.3,5.8,3.6,9.9,1.8
		c6.4-2.8,13.3-3.9,20.4-3.9C179.3,537,190.6,537,202.3,537z M190.5,573.1c-8.8,0-17.6,0-26.4,0c-6,0-11.2,3.8-11.7,8.3
		c-0.9,7.6,2.9,13.8,9.4,15.6c2.5,0.7,4.9,0.7,7.4,0.6c16.4-0.3,32.9,0.8,49.3-0.6c7.1-0.6,10.9-5.7,10.5-12.6
		c-0.4-6.9-5-11.3-12-11.3C208.1,573,199.3,573.1,190.5,573.1z"/>
	<path class="st1" d="M586.4,692c-6.6,0.5-12.9-2.1-19-4.5c-15.3-5.9-30.3-5.8-45.7-0.2c-12.8,4.7-25.7,5.2-37.8-2.8
		c-17-11.2-23.8-35.4-8.7-51.9c13-14.2,25.1-29.4,39.2-42.6c9.5-8.9,21.5-11.2,34.3-10.6c18.3,1,30.7,11.5,41.2,25
		c6.5,8.5,13.8,16.2,21.5,23.6c10.2,10,15.6,21.7,11.6,36.5C619.4,677.2,601.7,693.3,586.4,692z"/>
	<path class="st1" d="M580.1,567.1c-13,0-23.1-8.7-27-23c-4.4-16.5,3.7-38.9,17.6-48.9c13.9-10,30.3-5.8,38.1,9.8
		c9,18.1,4.5,41.8-10.5,55.3C593.1,564.9,587.2,567.1,580.1,567.1z"/>
	<path class="st1" d="M476.8,525.6c0.3-7.8,1.8-15.4,5.9-22.3c8.8-15,26.5-17.8,39.5-6.3c13.4,11.8,19.5,35.5,12.9,52.2
		c-3.8,9.6-10.4,16.5-21.3,17.9c-12.2,1.6-21.3-3.6-28.1-13.3C479.9,545.3,477.2,535.8,476.8,525.6z"/>
	<path class="st1" d="M627.6,608c-12.2,0-20.5-9-20.5-22.1c0-15.8,12.7-32,28.1-35.9c14.4-3.6,27,6.7,26.7,21.9
		c-0.3,15-13.3,31.5-27.9,35.4C631.9,607.9,629.7,608,627.6,608z"/>
	<path class="st1" d="M428.7,571.3c-0.5-16.5,16.7-29,34.9-18c12.3,7.5,21.5,25.8,18.7,37.5c-2.7,11.5-11.8,18.5-23.6,17.1
		C442.9,606,427.5,587.3,428.7,571.3z"/>
	<path class="st0" d="M290.1,451.6c-24.8,0.3-47.3-6-65.7-23.6c-4.3-4.1-7.7-8.8-8.5-14.9c-0.8-6.8,1.1-12.7,7.2-16.4
		c6.7-4,13.6-4,20.2,0.3c2.6,1.7,4.9,4,7.2,6.1c11,10.6,24.4,13.4,39.1,12.4c13.5-0.9,24.8-6.6,34.5-15.7c4-3.8,8.6-6,14.3-5.9
		c14,0.2,21.9,13.5,14.8,25.6c-7.9,13.6-20.8,21.1-35.1,26.5C309.3,449.4,299.9,451.5,290.1,451.6z"/>
	<path class="st0" d="M158.6,304c-0.7-5.3,2.7-10.3,6.1-15.1c21.5-30.4,71.6-29.1,91.3,2.4c4,6.4,6.4,13.2,3.2,20.8
		c-4.4,10.3-18.7,13.1-27.3,5.4c-2.3-2-3.8-4.6-5.5-7.1c-9-13.6-25-13.4-33.8,0.4c-5.9,9.3-12.2,12.5-21,10.7
		C163.1,319.7,158.4,313.8,158.6,304z"/>
	<path class="st0" d="M309,304.5c0.1-7.7,4.2-13.5,9-18.9c23.1-25.5,64.2-25,86.4,1.3c5.4,6.3,9.1,13.5,6.8,22.4
		c-2.9,11.4-16.8,16.4-26.3,9.3c-2.3-1.7-4.4-3.7-5.7-6.2c-7.4-14.5-26.5-17.8-37.1,0.5c-4.3,7.4-12.9,10.5-21.6,8.1
		C314.2,319.4,308.9,311.8,309,304.5z"/>
</g>
</svg>
