<?xml version="1.0" encoding="utf-8"?>
<!-- Generator: Adobe Illustrator 27.9.0, SVG Export Plug-In . SVG Version: 6.00 Build 0)  -->
<svg version="1.1" id="Layer_1" xmlns="http://www.w3.org/2000/svg" xmlns:xlink="http://www.w3.org/1999/xlink" x="0px" y="0px"
	 viewBox="0 0 612 792" style="enable-background:new 0 0 612 792;" xml:space="preserve">
<style type="text/css">
	.st0{fill:#F18D34;}
	.st1{fill:#408686;}
</style>
<g>
	<path class="st0" d="M416.9,544.2c15.5,23.9,31,47.9,46.6,71.8c14,21.5,28.5,42.7,42.3,64.4c16.2,25.4,15,55.8-2.2,78.5
		c-26.8,35.4-77.4,34.8-104.9,2.6c-13-15.2-22.7-32.8-33.9-49.3c-26.7-39.8-53.1-79.7-79.6-119.6c-3.8-5.7-7.2-11.5-8.6-18.4
		c-1.1-5.6-1-11,0.9-16.2c1-2.9,0.7-4.9-0.9-7.4c-11.3-17.5-22.5-35-33.5-52.6c-2.3-3.7-4.2-4.9-8.9-3.7
		c-34.1,8.9-68.5,10.4-103.4,5c-40.2-6.2-76.7-21.2-109.4-45.3c-51.8-38.1-86.1-88.4-97.8-151.8c-13.9-75.6,0.2-145.6,49.2-206.6
		c37-46,84.9-75.1,142.5-87.4c41.7-8.9,83.2-7.1,124.3,4.5c41.7,11.7,78,32.6,108.7,63.1c35.7,35.5,58,78.3,67.8,127.7
		c0.2,0.8,0.6,1.5,0.9,2.3c-0.2,6.5,1.3,12.8,2.2,19.1c3.1,22.4,1.9,44.7-1.8,66.8c-1.4,8.6-3.2,17.1-4.9,25.6
		c-0.5,0.8-1.2,1.6-1.4,2.5c-3,11.9-7.3,23.3-11.9,34.6c-4.1,10-10.2,18.9-14.3,28.9c-1.1,1.4-2.4,2.7-3.4,4.2
		c-11.2,17.4-24.9,32.6-39.3,47.2c-0.8-0.1-1.2,0.3-1.2,1.1l0.1-0.1c-1.1,0.3-2.1,0.6-1.1,2.1l0.1-0.1c-3-0.5-3.9,2.2-5.8,3.5
		c-3.7,2.5-4.3,5.1-0.3,7.9c7.3,10.6,14.7,21.3,22,31.9c2.2,5.7,6.5,10,9.4,15.2c0.3,0.6,1.2,1.3,2,1.3c12.1,1.4,21,8.5,29.6,16.3
		c4.3,6.5,8.5,13,12.9,19.4C412.1,537.1,413.7,541.2,416.9,544.2z M388.7,252C387.9,126.1,283.4,32.2,164,34.8
		C46.1,37.4-53.1,135.5-48.8,256.5c4.4,124.2,103.6,217,224.2,214.3C288.4,468.4,388.2,375.7,388.7,252z M487,718.8
		c0.3-7.6-2.5-14.1-6.5-20.1c-22.6-34.3-45.4-68.5-68.1-102.7c-12.8-19.2-25.5-38.5-38.4-57.7c-6.5-9.7-14-11.8-22.3-6.3
		c-12.1,7.9-24.1,16-36,24.2c-7.8,5.4-8.8,12.3-3.5,20.2c31.7,47.4,63.4,94.8,95.2,142.2c6.3,9.3,11.3,19.7,20.5,26.8
		c11.3,8.8,23.7,11.3,36.9,5.5C478.7,744.8,486.4,734.1,487,718.8z M270.5,481.3c9.4,15,18.7,29.7,27.8,44.5c1.8,2.8,3.1,3.3,6,1.3
		c8.8-6.2,17.7-12.3,26.9-18c3.2-2,3.1-3.5,1.3-6.1c-8.3-12.2-16.5-24.5-24.7-36.8c-1.3-2-2.5-2.7-4.8-1.3
		C292.6,471.3,281.9,477.1,270.5,481.3z"/>
	<path class="st1" d="M416.9,544.2c-3.2-3-4.7-7.1-7.1-10.6c-4.4-6.4-8.6-13-12.9-19.4c2.6-0.2,5.3-0.6,7.9-0.6
		c19.5,0,39,0,58.4,0.2c2.8,0,4.4-0.4,5.8-3.3c7.4-15.9,18.1-29.3,31.5-40.7c19.6-16.5,42.3-25.6,67.6-27.6
		c27.5-2.2,52.9,5,76.4,19.5c0.4,0.1,0.8,0.1,1.1,0.2c-0.1-0.4-0.2-0.8-0.3-1.2c-5-16.6-14.5-30.6-27-42.3
		c-36.7-34.3-80.8-48.6-130.6-44.3c-33.9,3-64.4,15.1-89.6,38.9c-8.9,8.4-16.3,17.9-23.1,28c-8.4,12.5-13.7,26.5-19.2,40.3
		c-7.3-10.6-14.7-21.3-22-31.9c2-3.8,4.1-7.6,6.1-11.4c0,0-0.1,0.1-0.1,0.1c1-0.4,1.4-1,1.1-2.1c0,0-0.1,0.1-0.1,0.1
		c0.9,0.2,0.9-0.6,1.2-1.1c14.4-14.7,28.2-29.9,39.3-47.2c1-1.5,2.3-2.8,3.4-4.2c0.3-0.1,0.7-0.1,0.9-0.3
		c16.5-13.8,35.2-23.6,55.5-30.3c4-1.3,2.4-2.5,0.1-4c-12.3-8.1-21.6-18.9-29-31.5c1.6-8.5,3.4-17,4.9-25.6
		c3.7-22.2,4.9-44.4,1.8-66.8c-0.9-6.3-2.3-12.6-2.2-19.1c4.8-5.1,8-11.3,12.9-16.4c20-20.9,44.6-30.8,73.2-30.8
		c36.6,0.1,65.5,15.8,86.1,45.8c29.1,42.4,22.9,99.3-11.1,134.8c-4.4,4.6-10.2,7.4-14.3,12.7c5.2,1.7,10.3,3.1,15.4,5
		c29.1,10.8,54.1,27.6,73.4,52.1c19,24.1,27.7,51.8,27.4,82.4c0,3,0.8,5.3,2.3,7.8c16,26.1,21.8,54.3,17.1,84.6
		c-6.4,40.4-28.6,69.8-63.8,89.4c-22.5,12.6-47.2,16.3-72.7,13.2c-32.9-4.1-59.2-20.1-79.5-45.8c-21.3-27.1-30.1-58-26-92.4
		c0.3-2.6,0.8-4.4-3-4.4C441.8,544.2,429.4,544.1,416.9,544.2z M487.1,564.4c0.7,51,39.7,91.8,90,92.3c49.3,0.6,93-40.1,92.9-92.2
		c-0.1-52.5-42.9-91.1-91.3-91.3C523.5,473,486.8,518.1,487.1,564.4z M502.8,190c-42-0.6-72.3,33.4-71.8,76.4
		c0.5,40.7,32.3,74.1,71.8,73.4c41.8-0.8,73.5-31.5,73.5-74.3C576.3,224.2,546.4,189.7,502.8,190z"/>
	<path class="st0" d="M167.7,211.7c22.7-0.5,41.2,6.7,55.1,22.4c13.9,15.7,29.2,29.5,45.5,42.5c19.5,15.6,29.1,36.5,27.8,61.8
		c-2,37.5-32.8,68.7-73.4,65.9c-9.7-0.7-19.1-2.9-28-6.5c-15.9-6.3-31.5-6.7-47.5-0.3c-12.9,5.2-26.3,7.6-40.4,6.6
		c-30.4-2.1-58-26.9-62.7-57.1c-4.4-28.9,5.4-52.7,27.9-70.6c15-12,29.3-24.6,41.8-39.1C128.4,220.6,146.7,211.5,167.7,211.7z
		 M74.1,331.6c-0.1,24.8,16.4,41.7,37.5,42.6c11.6,0.5,21.8-3.7,32.1-7.8c15.9-6.4,31.8-7.2,48.1-1.7c9.4,3.2,18.4,7.4,28.5,8.9
		c26.1,4,50.4-21.9,44.1-47.7c-3-12.4-10.9-21.1-20.3-28.8c-9.5-7.8-19.8-14.6-28.3-23.6c-6.1-6.4-11.2-13.6-17.6-19.7
		c-15.4-14.5-36.9-15.7-53.6-2.9c-8,6.1-13.6,14.5-20.5,21.6c-9.4,9.7-20.3,17.6-30.7,26.2C82,308.1,74.5,319.9,74.1,331.6z"/>
	<path class="st0" d="M178.5,147.6c0.4-16.9,5.9-33,19.2-45.9c15.5-14.9,38.1-14.4,53.1,1.1c22.8,23.6,21.7,66.9-2.2,89.4
		c-22.3,20.8-48.3,11.7-60.7-8.2C181.2,173.3,178.7,161.4,178.5,147.6z M207.9,149.6c0.1,3.3,0.1,6.6,1,9.9
		c2.4,8.5,7.1,14.1,12.6,14.4c5.6,0.3,10.9-4.6,13.9-13.1c4.1-11.6,3.4-22.8-3-33.5c-3.8-6.4-13-8-18.3,0.1
		C209.7,134.3,207.7,141.6,207.9,149.6z"/>
	<path class="st0" d="M72.6,143.3c0.2-13.9,5.4-29.6,18.4-42.1c15.3-14.9,39.8-13.5,54,3.6c17.8,21.4,21.2,45.6,10.8,70.9
		c-7.4,18.1-19.8,28.5-39.3,28.3c-15.2-0.2-25.8-8.7-33.6-21C76,172,72.8,159.9,72.6,143.3z M132,150c-0.3-7.7-1.8-15.3-6.4-21.9
		c-5.6-8.1-13.3-8.1-19-0.1c-7.5,10.5-6.2,31.7,2.4,41.3c6.1,6.7,13,6,18-1.6C130.6,162.3,131.5,156.4,132,150z"/>
	<path class="st0" d="M74.8,217.2c-0.5,10.9-2.8,23.1-12.8,32.1c-13.5,12.2-33.8,10.8-47.6-2.9C-0.8,231.2-6.1,204,3.1,184.5
		c5.1-10.8,12.3-19.7,25.4-21.8c10.8-1.7,19.7,1.9,27.4,8.9C68.8,183.2,74.5,198.1,74.8,217.2z M46.8,214.5
		c-0.6-7.7-2-14.9-8.7-19.8c-3.7-2.7-6.5-2-8.6,2c-3.9,7.3-1.8,22.1,4,28.2c4.6,4.8,8.8,4,11.5-2.1C46.3,220,46.1,217.2,46.8,214.5z
		"/>
	<path class="st0" d="M340.8,204.4c-0.6,18.7-6.4,35-21.4,46.5c-17.8,13.7-42.3,6-51.2-15.7c-8.7-21.5,0.2-52.9,18.9-66.6
		c16.7-12.2,38.2-6.4,48.2,12.9C339,188.8,340.4,196.6,340.8,204.4z M312.9,207.3c0-3.3-1.4-8.8-2.4-10.5c-2.4-4.1-6.5-4.9-10-1.9
		c-7,6.1-9.7,20.9-5.4,29.1c2.1,4,6.2,4.8,9.5,1.6C310,220.4,312.2,213.6,312.9,207.3z"/>
	<path class="st1" d="M516.7,565c-0.1-7.1,2.8-11.8,8.7-14.5c6.1-2.8,11.9-1.6,16.5,3c7.4,7.4,14.6,15.1,21.6,22.8
		c2,2.2,3,2.6,5.2,0.1c14.6-16.5,29.5-32.7,44.2-49.1c4.1-4.6,8.8-7.4,15.3-6.6c6.5,0.8,10.5,4.5,12.9,10.3c2.2,5.3,1,10.3-2.7,14.4
		c-9.6,10.5-19.2,21-29,31.4c-4.8,5-9.4,10.6-14.1,15.6c-6.3,6.7-11.3,14.7-18.5,20.5c-6.6,5.3-15.3,5.2-21.3-0.7
		c-12.3-12.1-23.8-25.1-35.3-38C517.6,571.1,516.5,568,516.7,565z"/>
</g>
</svg>
