<?xml version="1.0" encoding="utf-8"?>
<!-- Generator: Adobe Illustrator 27.9.0, SVG Export Plug-In . SVG Version: 6.00 Build 0)  -->
<svg version="1.1" id="Layer_1" xmlns="http://www.w3.org/2000/svg" xmlns:xlink="http://www.w3.org/1999/xlink" x="0px" y="0px"
	 viewBox="0 0 612 792" style="enable-background:new 0 0 612 792;" xml:space="preserve">
<style type="text/css">
	.st0{fill:#4B8A87;}
	.st1{fill:#EE973F;}
</style>
<g>
	<path class="st0" d="M221.7,718.4c11.2,6.4,23.2,9.5,36.2,9.5c110.6-0.1,221.3,0,331.9,0c21.1,0,37.7-12.6,42.4-31.7
		c0.3-1.3,0.6-2.6,0.6-3.9c0.1-17.5,0-35,0.3-52.5c0.1-4.3-2.4-3.5-4.8-3.5c-23.8-0.1-47.7-0.2-71.5-0.2c-19.3,0-35.6-7.6-49.5-20.4
		c-18.1-16.7-26.8-37.8-26.3-62.4c0.3-20.7,7.9-38.6,22.4-53.4c15.9-16.2,35.2-24.3,58-24.1c22.2,0.2,44.3-0.1,66.5,0.1
		c3.9,0,5.4-0.6,5.4-5c-0.3-16-1.1-32.1,0-48c1.3-18.7-18.1-36.1-35.1-36.1c-25.7-0.1-51.3-0.2-77-0.3c-11.5,0-23,0.1-34.5-0.2
		c-3.6-0.1-5.3,1-6.6,4.4c-17.9,46.8-44.2,88.4-77.8,125.5c-10.3,11.4-21.1,22.3-32.6,32.3c-14.2,12.4-29.3,23.7-45,34.2
		c-3.7,2.5-4.8,1.4-5.2-2.4c-1.1-10.6-3.4-21-6-31.3c-0.7-2.6,0.4-3.6,2.2-4.8c30.6-19.7,55.7-45.2,77.6-74
		c36.7-48.1,59.9-102.4,73.6-161c8.5-36,12.9-72.6,15.2-109.4c1.2-19.4,2-38.9,1.8-58.3c-0.1-6.5-2-9.1-8.3-10.5
		c-59.9-13.4-117-34.4-172.7-59.9c-24.4-11.2-48.4-23.1-72.1-35.7c-7.4-3.9-13.7-4.8-21.5-0.7c-30,15.7-60.4,30.8-91.4,44.5
		C93,90.4,67.7,100,41.8,108.6c-25,8.3-50.4,15.3-75.9,21.7c-7.9,2-9.8,4.5-9.8,12.5c0,12.5-0.4,25,0.2,37.5
		c0.9,17.7,2.4,35.4,4.2,53.1c1.5,15.2,3.2,30.4,6,45.4c4.9,26.7,10.5,53.3,19.2,79.2C1.4,404.8,24.1,447.7,57,484.8
		c1.6,1.8,2.8,3.3,0.7,5.5c-7.5,8.2-14.7,16.7-21.2,26.1c-23.2-25.8-43-53.4-58.9-83.8c-22.3-42.7-36.9-88-45.9-135.3
		c-6-31.9-9.5-64.1-11.5-96.4c-1.4-21.9-1.9-44-1.2-65.9c0.6-18.8,14.1-35.6,32.9-39.8C31.3,77.6,105.3,46.4,177.4,9.8
		c8.4-4.3,16.9-8.6,25.5-12.4c12.9-5.6,25.5-4,37.9,2.2c26.1,12.8,52.3,25.5,78.6,37.9C355,54.2,391.6,68.7,429.4,80
		c18.8,5.6,37.9,10.1,57,14.9c18.3,4.6,34.1,21.8,34,42.7c-0.1,25.6-0.1,51.3-2.1,76.9c-2.3,29.8-6,59.5-12.1,88.8
		c-3,14.2-6.2,28.4-10.7,42.2c-1.1,3.4-0.9,4.9,3.5,4.8c32.5-0.3,65-0.5,97.5-0.3c33.2,0.1,62.8,22.7,72,54.4
		c1.9,6.6,2.7,13.4,2.7,20.2c0,16.7,0,33.3-0.1,50c0,2.5,0.4,3.5,3.1,4.5c14.4,5.2,22.5,16.3,27.1,30.2c1.8,5.4,2.1,11,2.1,16.7
		c-0.1,20.8-0.1,41.7,0,62.5c0.1,20.9-10.2,35.3-28.5,44.1c-3.4,1.6-4.2,3.4-4.1,6.7c0.3,14.8,0.5,29.7,0.4,44.5
		c-0.2,40.2-25.1,70.8-64.4,79.5c-4.4,1-8.8,1.4-13.4,1.4c-114,0-227.9,0.2-341.9-0.2c-27.2-0.1-48.2-13.2-63.4-35.6
		C199.6,726.9,210.8,723.1,221.7,718.4z M606.3,512.1C606.3,512.1,606.3,512.1,606.3,512.1c-5.5,0-11-0.1-16.5,0.1
		c-12.5,0.4-25-1.2-37.4,1c-28.8,5.1-42.6,36.7-30,62.7c8.3,17.1,23.3,23.6,41.5,24c16.5,0.3,33,0.1,49.4,0.1
		c13.1,0,26.3,0.1,39.4-0.1c10.4-0.1,12.8-2.6,12.8-12.5c0-20.6,0-41.3,0-61.9c0-9.5-3.9-13.3-13.4-13.3
		C636.9,512.1,621.6,512.1,606.3,512.1z"/>
	<path class="st1" d="M216.6,404.8c-10.9-0.8-22.3,4.1-34,8c-20,6.6-38.7,4.4-55.8-8.1c-24.2-17.7-29.2-51.4-11.7-75.8
		c6.3-8.7,14.1-16,22.3-22.8c9.7-8,17.7-17.5,25.1-27.6c8.2-11.3,18.7-20,32.2-24.2c27.4-8.6,52.7-5.4,74.8,14.1
		c4.2,3.7,7.5,8.1,10.5,12.6c7.2,10.7,16.4,19.4,26.3,27.5c12.1,9.9,22.3,21.4,26.8,37c10.4,36.4-19.4,73.3-57.4,70.8
		c-11.1-0.7-21.3-4.7-31.8-7.8C235.6,406.1,227.1,404.6,216.6,404.8z"/>
	<path class="st1" d="M221.7,718.4c-10.9,4.6-22.1,8.5-33.8,10.7c-9.5,0.4-18.8,1.7-28.4,1.1c-40-2.6-72.3-19.8-97.2-51.1
		c-22-27.7-30.9-59.5-28.5-94.7c2.4-35,17-64.5,42.4-88.1c28.4-26.4,62.3-38.8,101.3-36.2c57.9,3.9,108.6,48.3,120.4,105.5
		c4,19.5,4.4,39-0.1,58.4c-7.7,33.4-25.4,60.2-53.4,80.3C237.3,709.6,229.5,714,221.7,718.4z M265,595.4c0.4-54.3-45-100-99.2-99.5
		c-53.4,0.5-95.9,44.2-96.3,99.2c-0.4,55,43.2,98.6,98.8,98.7C221.2,693.8,265,649.2,265,595.4z"/>
	<path class="st1" d="M272,235.4c-19.7-0.7-34.8-14.5-38.9-36.4c-4.3-23.1,1.3-44.2,17.6-60.8c19.3-19.7,49.4-17.6,62,11.4
		c10.1,23.4,8.1,46.2-6.6,67.2C297.9,228.5,286.7,235.3,272,235.4z"/>
	<path class="st1" d="M122,171.9c0.5-10.1,3.4-24.3,14.4-35.7c12.6-13,35.4-14,49-2.1c21.1,18.4,28.6,50.4,17.8,76
		c-5.9,13.9-16.1,22.9-31.2,24.8c-16.1,2-28.9-4.2-38.2-17.6C125.6,205.1,121.8,191.6,122,171.9z"/>
	<path class="st1" d="M48.9,241.5c-0.4-30,28.2-37.6,45.9-29c19.2,9.3,29.6,25.8,29.7,46.6c0.1,27-24,39.9-46.4,30.3
		C60.9,282,48.9,262.1,48.9,241.5z"/>
	<path class="st1" d="M315.8,257.1c2.4-18.1,10.9-35,30.6-44.2c22.6-10.6,44.7,2.6,45,27.4c0.2,20-8,36.8-25.6,47.3
		c-11.1,6.6-23.4,7.4-34.9,0.7C320.2,282.1,315.9,271.9,315.8,257.1z"/>
	<path class="st0" d="M566.1,580.1c-13.2,0.3-24-9.5-24.3-21.9c-0.4-14.3,9.5-25.3,22.8-25.6c13.9-0.3,25.1,9.7,25.4,22.6
		C590.4,569.4,580.4,579.8,566.1,580.1z"/>
	<path class="st1" d="M112.8,596.2c0.5-23.1,8.5-42.8,27.5-57c17.5-13,41.1-12.3,57.7,2c8,6.9,15.3,14.7,18.2,25.6
		c0.8,2.9,2.3,5.5,4.7,7.5c19.6,15.5,19.8,34.8,10.6,53c-11.4,22.5-29.9,36.1-55.4,37.5c-26.9,1.5-47.9-13.3-58-39.3
		C114.4,616.1,112.7,606.3,112.8,596.2z"/>
</g>
</svg>
