<?xml version="1.0" encoding="utf-8"?>
<!-- Generator: Adobe Illustrator 27.9.0, SVG Export Plug-In . SVG Version: 6.00 Build 0)  -->
<svg version="1.1" id="Layer_1" xmlns="http://www.w3.org/2000/svg" xmlns:xlink="http://www.w3.org/1999/xlink" x="0px" y="0px"
	 viewBox="0 0 612 792" style="enable-background:new 0 0 612 792;" xml:space="preserve">
<style type="text/css">
	.st0{fill:#4F8F87;}
	.st1{fill:#F0A248;}
</style>
<g>
	<path class="st0" d="M664,329.2c0,47.3,0,94.6,0,142c-0.1,56.6-40.9,106.9-96.4,119c-9.6,2.1-19.3,2.9-29.2,2.9
		c-91-0.1-182,0.1-272.9-0.2c-10.9,0-19.8,3.1-28.6,9.4c-44.9,32.4-90.2,64.3-135.3,96.3c-6.1,4.4-12.5,7.9-20.5,7.5
		c-11.7-0.5-22-11.1-22.1-23.4c-0.2-24-0.1-48-0.2-72c0-2.8,0.1-5.7-0.1-8.5c-0.4-7.2-2.5-9.1-9.5-9.2c-11.6-0.3-23.3,0.4-34.9-0.7
		c-22.6-2.2-42.8-10.5-60.5-24.4c-24.2-18.9-39.8-43.4-46.1-73.6c-1.7-8-2.6-16.1-2.6-24.2c0-94.3-0.1-188.6,0-282.9
		c0.1-55.5,38.4-105.6,92.2-119.8c12.4-3.3,25.2-5.3,38.3-5.3C202.2,62.1,368.8,62,535.4,62c44.6,0,79.8,18.6,106,54.4
		c15.1,20.6,22.5,43.8,22.5,69.3C664.1,233.6,664,281.4,664,329.2z M284,100c-84.8,0-169.6,0-254.4,0c-13.3,0-26.1,2.4-37.9,8.5
		c-30.6,16.1-48.2,41.4-48.5,76.2c-0.7,91.8-0.3,183.6-0.3,275.4c0,9-0.5,18,1.5,26.9c9,41.3,43.2,68.8,85.5,68.9
		c12.2,0,24.3-0.1,36.5,0.1c15.1,0.2,29.2,9.1,29,28.5c-0.2,20.2-0.2,40.3-0.3,60.5c0,3-1.3,6.8,2.3,8.6c3.3,1.7,5.4-1.7,7.7-3.3
		c39.9-28.2,79.8-56.4,119.7-84.6c9.3-6.6,19.3-10,31.1-9.9c94.3,0.3,188.6,0.2,282.9,0.2c8.9,0,17.7-1,26.4-3.9
		c38.2-12.6,61.3-43.9,61.3-84.5c0.1-92,0-183.9,0.1-275.9c0-7-0.6-13.9-1.7-20.8c-6.7-38.5-44.5-70.7-83.5-70.7
		C455.6,100,369.8,100,284,100z"/>
	<path class="st1" d="M70.9,425.1c1.6-9.6,3.5-21.3,5.5-33.1c2.1-12.8,4.3-25.5,6.5-38.3c1.1-6.2-1.8-10.5-6-14.5
		c-16.6-16.1-33.2-32.3-49.7-48.6c-9.1-9-9.4-19.9-1.2-28.3c3.5-3.6,8.1-4.6,12.6-5.3c22.8-3.2,45.7-6.2,68.6-9.2
		c7.7-1,12.3-5.2,15.4-12.3c8.5-19.6,17.4-39.1,26.5-58.5c6-12.9,20.2-16.4,31.8-8.3c3,2.1,4.9,4.9,6.4,8.1
		c9,18.9,18.5,37.6,26.8,56.7c4.2,9.6,10.8,13.2,20.5,14.4c21.9,2.7,43.8,5.9,65.6,9.2c7.9,1.2,13.8,6,16.6,13.6
		c2.8,7.6-0.2,14.1-5.6,19.4c-10.9,10.7-22.1,21.1-33.1,31.6c-7,6.6-14.1,13.2-20.6,20.3c-4.4,4.8-3.3,10.6-2.4,16.1
		c3.5,20.9,7.1,41.8,10.7,62.6c2.3,13.2-2.4,22.2-13.8,25.6c-6.3,1.9-12.1,0.2-17.7-2.9c-18.6-10.3-37.4-20.3-55.8-30.9
		c-7.7-4.5-14.3-4.2-21.8,0.3c-17,10.2-34.4,19.9-51.7,29.8c-5.3,3-10.8,4.9-17.1,4.3C78,446.2,70.7,438,70.9,425.1z"/>
	<path class="st1" d="M469.1,489.2c-6.2,0-12.2-1.7-17.9-3.7c-10-3.5-19.8-3.1-29.6,0.7c-11.1,4.3-22.1,4.5-32.7-1.2
		c-18.2-9.9-22.3-30.8-8.8-46.4c9.4-10.8,19.2-21.2,29.3-31.3c15.1-15.1,39.1-15.7,54.4-0.8c11.6,11.3,22.6,23.5,33.1,35.9
		c9.3,11.1,6.6,27.9-5.4,38.4C485,486.2,477.7,489.5,469.1,489.2z"/>
	<path class="st1" d="M494,353.2c0,8.8-2.9,16.6-8.3,23.4c-6.3,8-18.1,11.2-27.5,8c-9.1-3.1-14.8-11.2-15.1-22.4
		c-0.3-9.5,2.4-18.4,8.4-26c6.7-8.5,17.7-12.1,27.1-9.1c8.1,2.6,14.9,12.8,15.5,23.1C494,351.2,494,352.2,494,353.2z"/>
	<path class="st1" d="M380.1,352.4c0.3-16.2,10.6-26.9,25.3-26.5c6.6,0.2,11.6,3.6,15.9,8c9.5,9.6,11.7,27.2,6.1,39.4
		c-6,12.9-23.1,16.2-34.7,7C384.8,374.1,380,363.2,380.1,352.4z"/>
	<path class="st1" d="M508.3,418c-11.6,0-19.5-9.2-18-20.7c1.6-11.5,11.4-22.9,20.8-24.8c11.1-2.3,20.3,3.5,22.3,13.9
		C536.3,401.1,523.1,418,508.3,418z"/>
	<path class="st1" d="M340.9,389.5c-1.1-14,12.3-21.5,24.4-17.1c10.1,3.7,19.2,17.6,18.4,28.4c-0.9,12.5-12.3,19.8-24.4,15.5
		C348.2,412.4,340.9,401.8,340.9,389.5z"/>
</g>
</svg>
