<svg width="113" height="138" viewBox="0 0 113 138" fill="none" xmlns="http://www.w3.org/2000/svg">
<path d="M31.9545 18.4514C31.6068 18.498 31.236 18.5797 31.0564 18.6497C29.5033 19.2503 28.2921 20.4458 27.7821 21.8861C27.5272 22.6092 27.4866 22.8833 27.4808 23.7814C27.4808 24.7028 27.5272 24.9769 27.8111 25.7641C28.3327 27.1987 29.5844 28.4 31.0854 28.9014C31.8041 29.1405 32.0358 29.1755 32.8703 29.1755C33.4905 29.1697 33.7513 29.1464 34.0699 29.0531C34.2959 28.9889 34.5276 28.9248 34.5914 28.9073C34.8348 28.8373 35.4725 28.5282 35.7332 28.3475C35.8141 28.2891 35.9127 28.2425 35.9419 28.2425C36.0288 28.2425 49.1314 41.4625 49.1548 41.5674C49.1722 41.6374 48.5463 41.6549 44.3738 41.6724C40.3752 41.6899 39.5346 41.7074 39.3494 41.7774C38.9956 41.9057 38.5497 42.3489 38.428 42.6813C38.335 42.9494 38.3293 44.3551 38.3293 68.923C38.3293 91.036 38.3176 94.8905 38.248 94.9841C38.1729 95.0948 38.1437 95.0829 37.5991 94.8092C37.2805 94.6456 36.8572 94.4243 36.6486 94.3075C36.44 94.1907 36.1157 94.0101 35.9245 93.9051C35.3508 93.5845 35.2577 93.5321 34.4871 93.0536C34.0816 92.7973 33.6644 92.5406 33.5601 92.4763C32.8007 92.01 31.0332 90.7036 30.0422 89.8871C28.9817 89.0067 28.5761 88.6393 27.417 87.4903C24.3919 84.5049 22.1029 81.3848 20.2368 77.6934C19.9702 77.1629 19.6921 76.5913 19.6168 76.4163C19.5472 76.2475 19.4139 75.944 19.3212 75.7459C19.1879 75.4541 18.9445 74.848 18.6837 74.1657C18.6606 74.1014 18.6084 73.9732 18.5736 73.8796C18.4461 73.5709 17.9535 72.0195 17.7855 71.4247C17.6985 71.1041 17.6058 70.7599 17.5768 70.6668C17.403 70.0427 17.2117 69.2086 17.119 68.6549C17.0959 68.5088 17.0263 68.1707 16.9742 67.8965C16.8699 67.3485 16.8003 66.853 16.7192 66.0596C16.6902 65.7683 16.6496 65.4709 16.6322 65.3891C16.6148 65.3073 16.5569 64.695 16.5105 64.0246C16.3715 62.112 16.4004 60.5956 16.6032 58.7119C16.638 58.3913 16.6902 57.919 16.7134 57.6622C16.7771 57.0211 16.864 56.4144 16.9799 55.8253C17.0321 55.5515 17.0959 55.213 17.1248 55.0674C17.2465 54.4201 17.4262 53.6153 17.5827 53.0262C17.7391 52.4432 17.8318 52.1108 17.8724 52.0058C17.8956 51.9415 17.9478 51.7727 17.9883 51.6266C18.1622 51.0205 18.591 49.7547 18.6895 49.5741C18.7185 49.5159 18.7417 49.446 18.7417 49.4166C18.7417 49.3117 19.6109 47.3055 20.0166 46.4719C22.0507 42.2906 24.9367 38.4418 28.4486 35.2228L28.6804 35.007L28.4196 34.7621C27.7473 34.1207 25.2844 31.8172 24.0442 30.6626C23.2793 29.957 22.3115 29.0531 21.8827 28.6507C21.4538 28.2483 21.0829 27.9101 21.0539 27.9042C20.9786 27.8751 20.6483 28.1783 19.3849 29.4321C17.5073 31.2924 15.5775 33.5433 14.3374 35.3103C14.1635 35.561 13.9839 35.7651 13.9375 35.7651C13.8622 35.7651 12.9001 35.0479 10.0084 32.8144C9.61428 32.5112 9.28396 32.2662 9.27239 32.2662C9.25501 32.2662 9.06955 32.5753 8.85514 32.9485C8.64652 33.3275 8.42629 33.7124 8.36835 33.8116C8.31619 33.9049 8.18289 34.144 8.07858 34.3364C7.92211 34.6221 7.2093 35.8934 6.58342 36.9897C6.51966 37.1005 6.3748 37.363 6.25888 37.5729C6.14301 37.7828 6.02131 37.9928 5.99232 38.0394C5.95755 38.086 5.91699 38.1677 5.89378 38.2144C5.87062 38.261 5.74314 38.4943 5.60406 38.7275C5.46497 38.9666 5.35484 39.1649 5.35484 39.1707C5.35484 39.1824 5.01295 39.7889 4.60148 40.5178C3.90028 41.7482 3.8539 41.8474 3.94661 41.9232C4.00459 41.964 4.07991 41.999 4.1089 42.0048C4.17262 42.0048 4.75795 42.2381 5.22736 42.448C5.39543 42.5238 5.55768 42.588 5.58667 42.588C5.62144 42.588 5.69098 42.6113 5.74892 42.6405C5.86484 42.6988 6.00392 42.7571 6.54287 42.9669C6.76888 43.0543 7.0876 43.1886 7.25568 43.2643C7.42371 43.3404 7.586 43.4042 7.61495 43.4042C7.64972 43.4042 7.71926 43.4278 7.77724 43.4567C7.8294 43.486 7.93949 43.5328 8.02064 43.5678C8.10174 43.5967 8.32775 43.696 8.5306 43.7777C8.73344 43.8591 8.93046 43.9291 8.96524 43.9291C9.00579 43.9291 9.09854 43.9816 9.17386 44.0402L9.31295 44.1508L9.19703 44.4014C9.13331 44.5414 8.97102 44.9324 8.83193 45.2705C8.69867 45.6085 8.57115 45.9352 8.5422 45.9995C8.51321 46.0634 8.42629 46.2969 8.35096 46.5244C7.95688 47.6265 7.8294 47.9939 7.7888 48.157C7.76564 48.2502 7.68449 48.5013 7.61495 48.7112C7.50486 49.0493 7.44692 49.2474 7.26724 49.9065C7.23829 49.9997 7.17453 50.2389 7.12237 50.4313C7.02384 50.7755 6.96012 51.0261 6.86159 51.481C6.8326 51.6091 6.76888 51.8834 6.72251 52.0933C6.67035 52.3032 6.60081 52.6181 6.56604 52.7931C6.53127 52.968 6.47911 53.2304 6.45012 53.3761C6.22411 54.5482 6.17778 54.8343 6.05608 55.8721C6.02131 56.1752 5.98071 56.4376 5.96915 56.4551C5.95755 56.4787 5.92856 56.7062 5.90539 56.9625C5.87062 57.3941 5.80108 57.5516 5.69098 57.4816C5.66777 57.4641 5.4302 57.4291 5.1636 57.3998C4.90281 57.371 4.41602 57.301 4.07991 57.2542C3.74381 57.2017 3.2744 57.1374 3.03678 57.1085C1.99366 56.98 1.64016 56.9336 1.03745 56.84C0.226116 56.7175 -0.00567579 56.7062 0.000104885 56.7993C0.00592902 56.84 0.0117094 59.3185 0.0174901 62.3044L0.0233144 67.7334L0.330429 67.7041C0.492723 67.6866 0.921536 67.6284 1.26925 67.5759C1.90095 67.4828 2.36453 67.4185 3.21064 67.3135C3.44826 67.2842 3.90606 67.2204 4.22478 67.1679C4.70579 67.0918 5.67938 66.9693 5.83007 66.9636C5.89961 66.9636 6.00392 67.3717 6.06186 67.8851C6.13718 68.6024 6.20094 69.0223 6.31104 69.5878C6.36319 69.862 6.43273 70.2119 6.46172 70.3751C6.54865 70.8767 6.61819 71.238 6.7109 71.629C6.76306 71.8389 6.8326 72.1245 6.86737 72.2701C6.9543 72.6725 7.12237 73.2966 7.27306 73.8446C7.30783 73.9557 7.35417 74.1246 7.37738 74.2238C7.47008 74.568 7.69031 75.2853 7.85835 75.769C7.95688 76.0433 8.04381 76.3175 8.06119 76.3813C8.07858 76.4456 8.10757 76.5506 8.13651 76.6149C8.1655 76.6787 8.25243 76.9298 8.33936 77.1686C8.50161 77.6296 8.50161 77.6353 8.73922 78.2126C8.84932 78.4807 8.87831 78.6031 8.83193 78.6556C8.79716 78.6967 8.55376 78.8192 8.29298 78.9181C8.0322 79.023 7.74247 79.1398 7.64394 79.1805C7.55123 79.2216 7.31361 79.3147 7.12237 79.3847C6.93113 79.4604 6.68196 79.554 6.57182 79.6003C6.29948 79.7171 6.20672 79.7578 5.73153 79.9389C5.5113 80.0263 5.27373 80.1195 5.20997 80.1427C5.14621 80.172 4.91442 80.2594 4.68841 80.3469C4.46817 80.4344 4.20739 80.5393 4.1089 80.58C4.01615 80.6211 3.81335 80.6968 3.66266 80.755C3.50619 80.8136 3.38449 80.8717 3.38449 80.8892C3.38449 80.9185 3.87129 81.8164 4.25377 82.5044C5.19259 84.1725 6.16617 85.9277 6.16617 85.9451C6.16617 85.957 6.32264 86.2307 6.51388 86.5575C6.70512 86.8842 6.86159 87.1579 6.86159 87.1698C6.86159 87.1816 7.13976 87.6828 7.47586 88.2894C7.81779 88.8899 8.17128 89.5315 8.26982 89.7065C8.51321 90.1613 8.72184 90.523 8.74501 90.523C8.75661 90.523 9.52735 89.9457 10.4662 89.2341C11.3992 88.5225 12.4192 87.7528 12.7321 87.514C13.045 87.2747 13.3232 87.0823 13.3522 87.0823C13.3811 87.0823 13.5492 87.2979 13.7346 87.5603C16.1397 91.0479 19.2285 94.4125 22.5665 97.2059C23.0939 97.6433 23.6676 98.1095 23.8414 98.2381C24.2645 98.553 24.4789 98.7511 24.4789 98.8329C24.4789 98.8679 24.2529 99.171 23.9805 99.509C23.7023 99.8414 23.3314 100.296 23.1518 100.518C22.5375 101.276 22.1898 101.702 21.5349 102.501C21.1698 102.944 20.8917 103.335 20.9033 103.375C20.9207 103.416 21.5407 103.83 22.2883 104.285C24.4267 105.609 25.5394 106.297 26.5246 106.915C27.0288 107.236 27.4518 107.493 27.4692 107.493C27.4808 107.493 27.6778 107.615 27.9096 107.766C28.7963 108.338 30.1118 109.125 30.1755 109.125C30.2161 109.125 30.2972 109.003 30.3552 108.845C30.4189 108.694 30.5406 108.402 30.6392 108.192C30.9231 107.557 30.9463 107.498 31.4273 106.396C31.6881 105.807 31.8967 105.317 31.8967 105.3C31.8967 105.288 32.024 105.002 32.1805 104.67C32.337 104.338 32.4822 104.005 32.5052 103.941C32.5517 103.778 32.6325 103.784 33.0672 103.988C33.2701 104.081 33.6296 104.25 33.8669 104.361C34.1046 104.472 34.435 104.617 34.5914 104.694C34.7536 104.764 34.9857 104.868 35.1187 104.932C35.2464 104.991 35.3681 105.043 35.3912 105.043C35.4142 105.043 35.5594 105.096 35.7098 105.166C36.1679 105.37 36.1966 105.382 36.6777 105.568C36.9328 105.667 37.1936 105.772 37.2571 105.796C37.321 105.825 37.4544 105.877 37.547 105.906C37.8078 105.999 38.5727 106.274 38.7062 106.321C38.9204 106.408 39.5754 106.629 39.691 106.659C39.7549 106.676 39.8592 106.705 39.9231 106.734C40.1548 106.828 41.0358 107.084 41.1284 107.084C41.1749 107.084 41.2383 107.108 41.2557 107.143C41.2731 107.178 41.3544 107.201 41.4296 107.201C41.5052 107.201 41.6269 107.224 41.7021 107.253C41.8238 107.306 42.2411 107.428 42.7335 107.551C43.4176 107.731 43.9566 107.86 44.1826 107.906C44.3273 107.936 44.5477 107.983 44.675 108.011C45.3183 108.163 45.8051 108.262 46.0659 108.309C46.228 108.338 46.4888 108.385 46.6452 108.414C46.8078 108.443 47.1438 108.496 47.3989 108.536C47.6536 108.577 47.9435 108.635 48.0422 108.665C48.1404 108.694 48.3086 108.717 48.4246 108.717C48.5346 108.717 48.7663 108.74 48.9401 108.775C49.114 108.805 49.6068 108.869 50.0354 108.921C51.2176 109.061 51.774 109.143 51.8031 109.178C51.8148 109.201 51.7857 109.423 51.7453 109.679C51.6988 109.936 51.6349 110.379 51.6001 110.671C51.5132 111.4 51.4323 112.006 51.3567 112.449C51.3219 112.659 51.2759 113.027 51.2467 113.266C51.2176 113.505 51.1655 113.925 51.1307 114.199C51.0959 114.473 51.0672 114.759 51.0611 114.84L51.0498 114.986H56.5263C61.9679 114.986 62.0027 114.986 61.991 114.869C61.9853 114.805 61.9506 114.531 61.9097 114.257C61.8749 113.983 61.8288 113.563 61.7997 113.324C61.7302 112.752 61.6376 112.053 61.5967 111.866C61.5794 111.785 61.5389 111.51 61.5098 111.254C61.3881 110.251 61.3303 109.843 61.2838 109.563C61.2551 109.405 61.2434 109.242 61.2608 109.207C61.2838 109.137 61.5333 109.096 62.9876 108.921C63.4048 108.875 63.9264 108.805 64.1468 108.775C64.3728 108.746 64.6453 108.705 64.7553 108.694C65.1725 108.635 65.671 108.548 66.1752 108.455C66.4647 108.396 66.8298 108.332 66.9863 108.303C67.3053 108.256 67.7225 108.169 68.105 108.076C68.238 108.046 68.4584 107.994 68.5975 107.965C69.6349 107.731 70.3825 107.545 71.0432 107.347C71.3326 107.265 71.6573 107.172 71.7673 107.143C71.8777 107.113 72.231 107.003 72.5496 106.904C72.8686 106.804 73.2103 106.699 73.3033 106.676C73.4015 106.647 73.8535 106.495 74.3173 106.326C74.781 106.163 75.2735 105.988 75.4182 105.941C75.5634 105.895 75.7603 105.819 75.8529 105.772C75.9515 105.731 76.3396 105.574 76.7221 105.422C77.4697 105.125 77.6957 105.032 78.0495 104.862C78.1769 104.799 78.2985 104.752 78.3216 104.752C78.3624 104.752 79.423 104.256 80.1358 103.906C80.2922 103.83 80.4487 103.784 80.4891 103.795C80.5295 103.813 80.6108 103.935 80.6686 104.069C80.7269 104.204 80.8599 104.507 80.9642 104.74C81.0685 104.979 81.1554 105.177 81.1554 105.189C81.1554 105.207 81.231 105.382 81.3236 105.58C81.4918 105.953 81.544 106.069 81.9378 106.968C82.0595 107.242 82.2277 107.621 82.3146 107.813C82.3959 108.006 82.558 108.367 82.668 108.624C82.7784 108.875 82.9001 109.09 82.9405 109.108C82.9809 109.125 83.1721 109.032 83.3751 108.904C83.572 108.781 84.1518 108.42 84.6616 108.105C85.1715 107.79 85.896 107.341 86.2728 107.102C86.6492 106.869 86.9683 106.676 86.9856 106.676C87.003 106.676 87.1013 106.612 87.2056 106.53C87.3099 106.449 87.4085 106.384 87.4316 106.384C87.4607 106.384 88.5734 105.696 89.9642 104.822C90.2654 104.629 90.8856 104.244 91.3433 103.964C91.8014 103.685 92.1896 103.422 92.2069 103.381C92.2187 103.34 91.6797 102.623 90.9956 101.789C90.3176 100.955 89.5526 100.023 89.2979 99.7076C89.0428 99.3927 88.7764 99.0717 88.7068 98.9842C88.6312 98.9029 88.5734 98.8211 88.5734 98.8036C88.5734 98.7336 88.6833 98.6343 89.0371 98.3662C89.8308 97.7657 91.5059 96.36 92.1952 95.7189C92.6359 95.3047 95.0582 92.8673 95.4463 92.4474C96.2113 91.6133 97.9733 89.4558 98.3671 88.8724C98.4483 88.7561 98.5409 88.645 98.5757 88.6336C98.6339 88.61 99.4623 89.2048 99.9031 89.5783C100.239 89.8639 103.2 92.1675 103.258 92.185C103.293 92.2025 104.313 90.4937 105.582 88.2951C106.828 86.1433 107.964 84.1782 108.12 83.9215C108.271 83.6652 108.393 83.4491 108.393 83.4378C108.393 83.4203 108.485 83.2685 108.596 83.0935C108.706 82.9186 108.798 82.7493 108.798 82.7205C108.798 82.6737 108.665 82.598 108.381 82.4812C108.259 82.4344 108.01 82.3295 107.64 82.172C107.558 82.137 107.448 82.0907 107.396 82.0614C107.338 82.0321 107.268 82.0089 107.234 82.0089C107.182 82.0089 106.637 81.7758 106.411 81.6533C106.353 81.624 106.284 81.6008 106.249 81.6008C106.22 81.6008 106.046 81.5308 105.86 81.4491C105.675 81.3673 105.472 81.2741 105.408 81.2509C105.345 81.2216 105.142 81.1342 104.956 81.0524C104.771 80.971 104.591 80.901 104.545 80.901C104.504 80.901 104.452 80.8835 104.429 80.8599C104.412 80.8367 104.191 80.7375 103.942 80.6325C103.67 80.5219 103.49 80.4112 103.478 80.3469C103.455 80.2537 103.548 80.0145 103.85 79.3379C103.925 79.1691 103.989 79.0173 103.989 78.9998C103.989 78.9823 104.041 78.8599 104.099 78.7256C104.156 78.5918 104.29 78.2594 104.394 77.9852C104.597 77.4371 104.73 77.0811 104.806 76.9062C104.852 76.7955 105.223 75.6702 105.495 74.8068C105.565 74.5794 105.675 74.2007 105.739 73.9614C105.802 73.7222 105.889 73.3898 105.93 73.2323C106.034 72.8418 106.179 72.2645 106.284 71.8039C106.336 71.594 106.394 71.3316 106.423 71.2205C106.451 71.1098 106.486 70.9231 106.503 70.8124C106.521 70.7018 106.579 70.41 106.625 70.1708C106.782 69.4072 106.892 68.6956 107.002 67.7216C107.042 67.3835 107.101 67.0804 107.141 67.0393C107.211 66.9636 107.64 66.9986 108.77 67.1679C109.123 67.226 109.575 67.2903 109.784 67.3135C109.992 67.3428 110.38 67.3892 110.653 67.4242C110.925 67.4592 111.418 67.5291 111.754 67.5816C112.09 67.6341 112.508 67.6809 112.681 67.6866L113 67.6927V56.7293L112.768 56.735C112.641 56.7411 112.264 56.7875 111.928 56.84C111.592 56.8925 111.111 56.9625 110.856 56.9974C109.795 57.126 109.494 57.1667 108.944 57.2542C107.987 57.3998 107.28 57.4698 107.228 57.4173C107.205 57.3941 107.17 57.2249 107.153 57.0499C107.083 56.3388 106.788 54.3794 106.631 53.5803C106.579 53.3236 106.51 52.9798 106.48 52.8224C106.428 52.5482 106.312 52.0176 106.185 51.481C106.15 51.3529 106.104 51.1429 106.075 51.0143C106.051 50.8862 105.982 50.6356 105.93 50.4606C105.878 50.2857 105.814 50.0465 105.785 49.9358C105.762 49.8247 105.669 49.5098 105.582 49.236C105.501 48.9618 105.408 48.6587 105.379 48.5651C105.298 48.2502 104.8 46.7868 104.69 46.5069C104.632 46.3551 104.522 46.0752 104.452 45.8828C104.377 45.6903 104.284 45.4397 104.238 45.3286C104.191 45.218 104.133 45.0723 104.104 45.008C104.081 44.9437 104 44.7574 103.93 44.5939C103.861 44.425 103.815 44.2676 103.832 44.2383C103.855 44.2033 104.243 44.0283 104.695 43.8477C105.153 43.661 105.576 43.4917 105.64 43.4628C105.704 43.4392 105.941 43.3461 106.162 43.2586C106.388 43.1711 106.677 43.0487 106.811 42.9905C106.95 42.9262 107.077 42.8794 107.095 42.8794C107.112 42.8794 107.211 42.8444 107.309 42.7979C107.414 42.7512 107.836 42.5821 108.248 42.4189C108.868 42.1681 109.181 42.0398 109.309 41.9698C109.314 41.964 109.024 41.4333 108.654 40.7802C108.289 40.1329 107.987 39.5964 107.987 39.5848C107.987 39.5731 107.877 39.3748 107.738 39.1357C107.599 38.9025 107.419 38.5934 107.338 38.4476C107.193 38.1794 106.266 36.5407 106.058 36.1733C105.994 36.0625 105.663 35.4677 105.321 34.8612C104.98 34.2489 104.643 33.6483 104.568 33.52C104.151 32.7677 103.919 32.3828 103.884 32.3828C103.855 32.3828 102.389 33.485 101.178 34.4239C100.401 35.0245 99.4102 35.7884 99.2946 35.8701C99.1959 35.9401 99.1438 35.8876 98.68 35.2578C98.3962 34.8787 98.141 34.5405 98.1063 34.4997C98.0776 34.4647 97.9037 34.2431 97.7299 34.0098C96.7563 32.7269 94.8265 30.5518 93.4817 29.2397C92.6298 28.4116 91.6971 27.5485 91.5811 27.4844C91.4885 27.4319 91.4016 27.5019 89.9933 28.8256C88.3821 30.336 88.0227 30.6801 87.8836 30.8025C86.7248 31.858 83.9141 34.4939 83.891 34.5463C83.8849 34.5638 84.0649 34.7446 84.2965 34.9487C84.9689 35.5435 87.0552 37.6604 87.6519 38.3601C88.7472 39.6372 89.7673 40.9726 90.5844 42.2089C91.0943 42.9787 91.4711 43.5735 91.4711 43.6028C91.4711 43.6142 91.6102 43.8534 91.784 44.139C92.2765 44.973 92.9254 46.2034 93.2501 46.9324C93.6034 47.7372 93.7195 47.9878 93.8412 48.2677C94.2584 49.1892 95.1973 51.9359 95.4233 52.8806C95.4524 53.0087 95.4985 53.2073 95.5276 53.3179C95.8753 54.6532 96.1826 56.3445 96.339 57.7733C96.3738 58.0882 96.4086 58.3681 96.4199 58.3856C96.4373 58.4088 96.4894 59.1843 96.5477 60.1115C96.6346 61.581 96.6346 61.972 96.5763 63.1148C96.5012 64.4269 96.4434 65.1849 96.333 66.0596C96.2982 66.3163 96.2521 66.6955 96.223 66.9055C96.1535 67.471 96.0548 68.089 96.0144 68.1882C95.997 68.235 95.9566 68.4039 95.9331 68.5674C95.8288 69.1736 95.7653 69.4771 95.6723 69.8327C95.6145 70.037 95.5506 70.3051 95.5158 70.4332C95.4115 70.8824 95.3654 71.0805 95.2724 71.3954C95.1103 71.9321 95.0638 72.0895 95.0117 72.282C94.9482 72.5037 94.4553 73.9146 94.2237 74.5156C94.0672 74.9293 94.015 75.0579 93.7947 75.5534C93.7251 75.7052 93.6269 75.944 93.5748 76.0783C93.5226 76.2125 93.2096 76.8598 92.885 77.5185C91.5172 80.2769 89.9872 82.598 87.8836 85.0997C87.113 86.0151 85.2819 87.8988 84.4009 88.68C84.0358 89.001 83.7228 89.2809 83.7054 89.2984C83.5837 89.4322 82.5002 90.3013 81.6944 90.9079C80.2922 91.9689 78.4146 93.1997 76.9829 93.9869C75.9224 94.5699 74.8793 95.0773 74.8332 95.0305C74.8041 95.0016 74.775 83.4316 74.7693 68.9462L74.7519 42.9087L74.6246 42.6463C74.4855 42.3489 74.2999 42.1331 74.0565 41.9698C73.6101 41.6783 73.8187 41.6899 68.441 41.6724C65.671 41.6608 63.3935 41.6433 63.3762 41.6316C63.3644 41.6199 63.3818 41.5558 63.4166 41.4975C63.4457 41.4392 66.4473 38.4068 70.0752 34.7505L76.6817 28.1084L76.9307 28.2833C77.4697 28.6449 78.1477 28.9248 78.9127 29.1114C79.2604 29.193 80.6921 29.193 81.0051 29.1114C81.9147 28.8664 82.3146 28.7032 82.8827 28.3358C83.7111 27.7935 84.2848 27.1462 84.7429 26.2481C85.0037 25.7291 85.0559 25.595 85.2236 24.9477C85.3223 24.557 85.3223 23.0758 85.2236 22.6151C85.0963 22.0436 84.8298 21.3905 84.5343 20.9123C83.798 19.7343 82.6506 18.8888 81.2771 18.5272C80.46 18.3056 78.791 18.3872 78.113 18.6788C77.215 19.0637 76.7977 19.332 76.2123 19.8976C75.4704 20.6149 75.0244 21.3846 74.7519 22.4227C74.6185 22.9358 74.5955 23.1341 74.5955 23.8105C74.5955 24.5803 74.6246 24.7494 74.8562 25.5309C74.9375 25.8108 75.2735 26.5222 75.4243 26.7321C75.4821 26.8196 75.5343 26.9246 75.5343 26.9712C75.5343 27.012 72.3006 30.301 68.3484 34.2781C64.3958 38.2552 61.1621 41.5266 61.1621 41.5499C61.1621 41.5791 61.6202 41.5966 62.1766 41.5966C62.9876 41.5966 63.2023 41.6141 63.2253 41.6783C63.2427 41.7249 63.1328 41.8765 62.9702 42.0398C62.8137 42.1972 62.3561 42.6696 61.9505 43.0893L61.2204 43.8534V74.8655L67.5252 81.2098L67.8673 81.1167C68.3597 80.9767 68.6148 80.9649 69.003 81.0524C70.1852 81.3323 70.9501 82.2831 70.9562 83.4666C70.9562 84.2132 70.6024 84.9186 69.9883 85.3796C69.6927 85.6009 69.2637 85.7995 69.0725 85.7995C68.9973 85.7995 68.8639 85.8284 68.7713 85.8634C68.6092 85.9277 68.2902 85.8808 67.7399 85.7234C67.1314 85.5428 66.4647 84.8548 66.2448 84.1839C66.1404 83.8633 66.1113 83.0061 66.1982 82.8368C66.2213 82.7843 66.2622 82.6619 66.2852 82.5687C66.3256 82.4056 66.1809 82.2538 62.9067 78.953L59.4818 75.5066V43.0955L60.1829 42.4014C60.6753 41.9115 60.8553 41.7016 60.7914 41.6783C60.7449 41.6608 60.3798 41.6549 59.9799 41.6666L59.2497 41.6841L59.2323 79.2972L61.5389 81.6415L63.8456 83.9801L63.7991 86.3418L63.7586 88.7093L64.0133 88.826C64.7609 89.1698 65.3929 90.1556 65.3929 90.9893C65.3929 91.8176 64.7379 92.8437 63.996 93.1879C63.0458 93.6252 61.991 93.4385 61.2551 92.7037C61.0926 92.5406 60.8957 92.2781 60.8205 92.1207C60.7509 91.9632 60.664 91.7883 60.6349 91.7358C60.6058 91.6777 60.5827 91.3391 60.5827 90.9836C60.5827 90.3712 60.5945 90.3131 60.7683 89.9571C60.9826 89.514 61.4172 89.0535 61.8115 88.8549L62.0896 88.715V86.6567L62.0953 84.6037L59.7713 82.2945L57.4534 79.9852V41.6491L57.326 41.6666L57.1926 41.6841V84.7087L57.4242 84.8373C58.2127 85.286 58.7281 86.1376 58.7281 87.0005C58.7281 87.6128 58.45 88.2426 57.9749 88.715C57.5577 89.1235 57.2217 89.2923 56.6071 89.409C56.3581 89.4558 56.2016 89.4558 56.0916 89.4147C56.0104 89.3859 55.8713 89.3566 55.79 89.3566C55.7092 89.3566 55.4714 89.2748 55.2571 89.1698C54.7934 88.9485 54.3587 88.5168 54.121 88.0388C53.9706 87.7353 53.9471 87.6246 53.9298 87.1055C53.9067 86.4293 53.9763 86.1551 54.2948 85.6534C54.5035 85.3271 54.9381 84.9361 55.2454 84.8137L55.4249 84.738V41.6491L55.2976 41.6666L55.1641 41.6841L55.1063 80.032L50.5513 84.6037L50.5283 88.7036L50.7308 88.8142C51.9769 89.479 52.4116 90.8961 51.7683 92.1732C51.3219 93.0479 50.0589 93.6252 49.1431 93.3746C48.349 93.1529 47.8274 92.7273 47.4797 92.0039C47.2481 91.5141 47.2424 91.5084 47.2655 90.9429C47.2828 90.4355 47.3059 90.3306 47.4797 89.9689C47.7118 89.5022 48.1465 89.036 48.5116 88.861L48.7606 88.7443V83.9333L53.3969 79.3029V41.6549H52.5563C52.093 41.6549 51.7161 41.6724 51.7161 41.6958C51.7161 41.7191 52.0291 42.0573 52.4116 42.4422L53.107 43.1536V75.5066L49.9485 78.6849C47.3524 81.2973 46.7904 81.8921 46.7904 82.0207C46.7904 82.1082 46.8134 82.1895 46.8426 82.207C46.8712 82.2245 46.9121 82.3413 46.9295 82.4581C47.1033 83.4491 46.9408 84.0501 46.321 84.7148C45.9733 85.0936 45.6369 85.2922 45.1501 85.426C44.223 85.677 43.1916 85.2804 42.6292 84.4581C42.2815 83.9565 42.1833 83.6416 42.1833 83.0236C42.1889 82.528 42.2063 82.458 42.4032 82.0496C42.9191 81.006 44.0144 80.4462 45.0805 80.6968L45.4804 80.7899L51.3684 74.8655V43.8416L50.3197 42.7862C49.7051 42.1681 49.2822 41.7016 49.3052 41.6608C49.3343 41.6199 49.6877 41.5966 50.4005 41.5966H51.4554L44.2808 34.3772C40.3404 30.4118 37.1123 27.1345 37.1123 27.0995C37.1123 27.0587 37.1528 27.0004 37.1993 26.9595C37.2918 26.8838 37.3501 26.7788 37.6917 26.0848C37.889 25.6766 37.9351 25.5542 38.0916 24.9419C38.1785 24.6211 38.1729 22.9533 38.0916 22.6034C37.9238 21.9153 37.5935 21.1572 37.2284 20.6499C36.7007 19.9151 35.7098 19.1103 34.9683 18.8071C34.887 18.778 34.7479 18.7196 34.6493 18.6788C34.0699 18.4339 32.8238 18.3289 31.9545 18.4514Z" fill="white"/>
<path d="M56.3928 0.00635764C46.0367 0.0180221 45.3878 0.0238521 45.237 0.122989C44.5998 0.537022 44.652 1.4584 45.3357 1.74414C45.4978 1.81412 47.1842 1.82578 56.5437 1.82578H67.5543L67.7977 1.68C68.1224 1.48756 68.2554 1.21348 68.2206 0.78778C68.1919 0.490373 68.1685 0.43789 67.9542 0.24545C67.8208 0.128819 67.6413 0.0238522 67.5487 0.0121877C67.4617 0.000527632 62.443 -0.00530681 56.3928 0.00635764Z" fill="white"/>
<path d="M50.9394 2.63636C50.876 2.74133 51.0381 3.72687 51.2063 4.23421C51.4901 5.10893 51.8609 5.70956 52.5102 6.35686C53.0896 6.93418 53.8254 7.40071 54.5152 7.62228C55.1815 7.83807 55.3614 7.86138 56.2942 7.86138C57.4303 7.86138 57.8706 7.76809 58.7399 7.33655C60.3798 6.52012 61.5098 4.83484 61.6663 2.97459L61.7011 2.58388H56.335C53.3504 2.58388 50.9568 2.60721 50.9394 2.63636Z" fill="white"/>
<path d="M43.8058 8.0655C42.0672 8.30461 40.6012 9.33096 39.7897 10.8646C39.2681 11.8502 39.0478 13.0281 39.193 14.072C39.2451 14.4802 39.2738 14.6201 39.419 15.1858C39.4998 15.5007 39.8536 16.1888 40.1492 16.597C40.6125 17.2501 41.1514 17.7341 41.8586 18.1482C42.3106 18.4164 43.3016 18.7663 43.7188 18.8071L43.8636 18.8246L43.8927 31.9921L53.4838 41.5908L54.2544 41.5966H55.0194V41.2584L55.025 40.926L45.4283 31.3448L45.4109 25.1985C45.4052 21.822 45.4109 19.0054 45.4226 18.9354C45.4456 18.8538 45.5326 18.7896 45.7008 18.743C46.3788 18.5389 46.5931 18.4572 47.0512 18.224C47.8913 17.7983 48.7489 16.9644 49.1953 16.1421C49.2822 15.9789 49.3748 15.8214 49.3982 15.7922C49.4504 15.7223 49.6355 15.1741 49.7807 14.6843C49.9311 14.1478 49.9198 12.7307 49.7572 12.1476C49.566 11.4478 49.5373 11.3778 49.3691 11.0396C48.6272 9.55253 47.335 8.53203 45.6777 8.13548C45.3126 8.04801 44.2347 8.0072 43.8058 8.0655Z" fill="white"/>
<path d="M67.4791 8.04219C65.758 8.20546 64.0716 9.37759 63.2775 10.9696C62.6286 12.27 62.5125 13.7629 62.9589 15.1216C63.5439 16.9177 64.8943 18.1715 66.8011 18.708L67.1314 18.8013V31.3682L57.5112 41.0368V41.5966H59.1628L68.6961 32.0038V25.49C68.6961 21.9095 68.7135 18.9413 68.7309 18.8888C68.7483 18.8363 68.8291 18.7955 68.9104 18.7955C69.0899 18.7955 69.6058 18.6555 70.0287 18.4864C70.7476 18.2065 71.3096 17.8333 71.8659 17.2851C72.3527 16.8011 72.6887 16.3229 72.9382 15.7748C73.3263 14.9 73.3841 14.6376 73.4306 13.5763C73.4597 12.824 73.3611 12.0892 73.1525 11.5936C72.7874 10.7014 72.4627 10.1823 71.9298 9.64586C71.1414 8.85275 70.3069 8.39208 69.1886 8.13548C68.8639 8.05968 67.879 8.0072 67.4791 8.04219Z" fill="white"/>
<path d="M55.4832 16.1829C54.8225 16.3638 54.5965 16.4395 54.2079 16.6262C53.5647 16.9294 53.1939 17.2093 52.6376 17.7808C51.4032 19.0637 50.9282 20.7024 51.2411 22.5859C51.4262 23.6998 52.1564 24.9069 53.1126 25.7058C53.6403 26.1373 54.776 26.7263 55.0946 26.7263C55.1528 26.7263 55.2745 26.7671 55.3671 26.8138L55.541 26.9071V41.5966H57.0478V34.2839C57.0478 28.5049 57.0652 26.9596 57.1174 26.9187C57.1578 26.8954 57.3086 26.8604 57.4534 26.8371C58.0214 26.7438 58.1718 26.6913 58.902 26.3647C59.3714 26.149 60.009 25.665 60.4902 25.1401C61.9506 23.5656 62.3156 21.2563 61.4229 19.2795C60.6927 17.6758 59.4353 16.6553 57.6389 16.2063C57.2273 16.1013 55.8309 16.0838 55.4832 16.1829Z" fill="white"/>
<path d="M43.8927 81.9039C43.1568 82.3531 43.0525 83.3153 43.6667 83.939C44.0087 84.2888 44.3851 84.3938 44.901 84.2832C45.3239 84.1957 45.6777 83.869 45.8225 83.4378C45.9498 83.0704 45.9442 82.9536 45.8051 82.5744C45.5965 82.0207 45.1675 81.7172 44.5764 81.7172C44.2634 81.7172 44.1591 81.7465 43.8927 81.9039Z" fill="white"/>
<path d="M67.8964 82.3006C67.4444 82.563 67.2818 82.8543 67.2762 83.4084C67.2762 84.1257 67.5543 84.5106 68.215 84.7087C68.5162 84.7962 68.5801 84.8023 68.8178 84.7262C69.2581 84.5924 69.432 84.4756 69.6349 84.1782C69.8027 83.9276 69.8201 83.8633 69.8262 83.4666C69.8262 83.0935 69.8027 82.9886 69.6636 82.7493C69.3046 82.1432 68.5223 81.9389 67.8964 82.3006Z" fill="white"/>
<path d="M55.7439 85.782C55.1585 86.0794 54.9094 86.6856 55.0598 87.4379C55.1181 87.7353 55.5583 88.1376 55.9526 88.2601C56.2538 88.3537 56.3059 88.3537 56.6015 88.2662C57.2273 88.0913 57.5868 87.6246 57.5807 86.9948C57.5807 86.8024 57.5403 86.5518 57.4938 86.4407C57.3782 86.1783 57.0826 85.8927 56.7927 85.7759C56.5145 85.6595 55.9756 85.6652 55.7439 85.782Z" fill="white"/>
<path d="M49.2591 89.7296C48.9636 89.8232 48.6159 90.1207 48.4881 90.3944C48.3551 90.6744 48.3551 91.3566 48.4824 91.6016C48.6159 91.8526 48.8649 92.0739 49.1661 92.2082C50.221 92.6923 51.3393 91.5141 50.8525 90.4294C50.7134 90.1207 50.3427 89.8114 50.0124 89.7183C49.6938 89.6365 49.5603 89.6365 49.2591 89.7296Z" fill="white"/>
<path d="M62.3852 89.8114C61.9562 90.027 61.7593 90.2895 61.6898 90.7443C61.5854 91.4034 61.8228 91.8933 62.3908 92.1789C62.779 92.3774 63.1093 92.3774 63.4979 92.185C63.9959 91.9283 64.2337 91.5491 64.2337 91.0011C64.2337 90.3538 63.9325 89.9396 63.3066 89.724C62.9937 89.6133 62.7268 89.6365 62.3852 89.8114Z" fill="white"/>
<path d="M6.06047 120.199V121.896C6.06047 121.984 6.09524 122.057 6.16478 122.115C6.23432 122.167 6.31256 122.194 6.39949 122.194H6.95582C7.03692 122.194 7.07752 122.234 7.07752 122.316V123.348C7.07752 123.43 7.03692 123.471 6.95582 123.471H6.57334C6.48641 123.471 6.39366 123.453 6.29517 123.418C6.19664 123.378 6.11549 123.316 6.05178 123.235V123.383C6.05178 123.611 6.01409 123.824 5.93877 124.022C5.8634 124.22 5.75909 124.401 5.62583 124.564C5.49831 124.727 5.34475 124.87 5.16511 124.993C4.98544 125.121 4.78842 125.22 4.57401 125.29L3.30487 125.719L2.97454 124.704L4.29584 124.276C4.50447 124.211 4.66963 124.089 4.79133 123.908C4.91881 123.728 4.98257 123.526 4.98257 123.305V120.199H6.06047ZM8.57259 122.194C8.67112 122.194 8.75222 122.162 8.81598 122.098C8.88552 122.028 8.92029 121.943 8.92029 121.844V119.954H9.99819V121.835C9.99819 122.063 9.95473 122.276 9.8678 122.474C9.78666 122.672 9.67078 122.847 9.52009 122.998C9.37523 123.144 9.20424 123.261 9.00722 123.348C8.8102 123.43 8.59866 123.471 8.37265 123.471H6.95582C6.92105 123.471 6.89197 123.459 6.86881 123.436C6.84564 123.407 6.83404 123.378 6.83404 123.348V122.334C6.83404 122.299 6.84564 122.267 6.86881 122.237C6.89197 122.208 6.92105 122.194 6.95582 122.194H8.57259ZM7.38168 119.237H8.46827V118.144H7.38168V119.237ZM8.92029 119.237H10.0069V118.144H8.92029V119.237ZM12.1764 123.471C11.9504 123.471 11.7418 123.424 11.5505 123.331C11.3651 123.232 11.2057 123.103 11.0724 122.946C10.9449 122.789 10.8522 122.608 10.7943 122.404C10.7421 122.194 10.7363 121.981 10.7769 121.765L10.9247 120.96C10.9536 120.791 11.0116 120.637 11.0985 120.497C11.1854 120.357 11.2898 120.234 11.4115 120.129C11.5389 120.024 11.6809 119.943 11.8374 119.884C11.9939 119.826 12.1561 119.797 12.3242 119.797H12.811C13.0196 119.797 13.2137 119.838 13.3934 119.919C13.573 119.995 13.7295 120.103 13.8628 120.243C14.0019 120.377 14.1091 120.537 14.1844 120.724C14.2655 120.905 14.3061 121.1 14.3061 121.31V122.194H14.8886C14.9697 122.194 15.0103 122.234 15.0103 122.316V123.348C15.0103 123.43 14.9697 123.471 14.8886 123.471H14.2975C14.2975 123.494 14.2945 123.52 14.2888 123.55C14.2714 123.754 14.2221 123.946 14.141 124.127C14.0656 124.307 13.9613 124.474 13.828 124.625C13.7005 124.783 13.5499 124.92 13.376 125.037C13.2079 125.153 13.0225 125.247 12.8197 125.316L11.5505 125.754L11.2289 124.73L12.5154 124.293C12.7182 124.223 12.8863 124.112 13.0196 123.961C13.1529 123.809 13.2196 123.623 13.2196 123.401V123.348C13.1442 123.383 13.0544 123.413 12.9501 123.436C12.8515 123.459 12.753 123.471 12.6545 123.471H12.1764ZM12.0286 122.194H13.2282V121.301C13.2282 121.232 13.2022 121.17 13.15 121.118C13.1036 121.065 13.0428 121.036 12.9675 121.03H12.2199C12.0924 121.03 12.0083 121.103 11.9678 121.249L11.8287 121.958C11.8171 122.016 11.8316 122.071 11.8722 122.124C11.9127 122.171 11.9649 122.194 12.0286 122.194ZM15.3452 125.614H16.4144V124.52H15.3452V125.614ZM16.8664 125.614H17.953V124.52H16.8664V125.614ZM18.5007 123.348C18.5007 123.378 18.489 123.407 18.4659 123.436C18.4427 123.459 18.4137 123.471 18.379 123.471H17.6053C17.4257 123.471 17.246 123.427 17.0664 123.34C16.8925 123.252 16.7621 123.133 16.6752 122.981C16.5651 123.133 16.4144 123.252 16.2232 123.34C16.0377 123.427 15.8523 123.471 15.6668 123.471H14.8845C14.8555 123.471 14.8294 123.459 14.8062 123.436C14.7772 123.413 14.7628 123.383 14.7628 123.348V122.325C14.7628 122.29 14.7772 122.261 14.8062 122.237C14.8294 122.208 14.8555 122.194 14.8845 122.194H15.7711C15.8697 122.194 15.9566 122.164 16.0319 122.106C16.1072 122.042 16.1536 121.961 16.171 121.861L16.51 120.217L17.5618 120.409L17.2924 121.791C17.2692 121.902 17.2895 121.998 17.3532 122.08C17.417 122.156 17.5039 122.194 17.614 122.194H18.379C18.4137 122.194 18.4427 122.208 18.4659 122.237C18.489 122.261 18.5007 122.29 18.5007 122.325V123.348ZM18.7818 125.614H19.8684V124.52H18.7818V125.614ZM20.3204 125.614H21.407V124.52H20.3204V125.614ZM19.5381 127.031H20.6247V125.938H19.5381V127.031ZM21.8591 123.348C21.8591 123.378 21.8474 123.407 21.8243 123.436C21.8011 123.459 21.7721 123.471 21.7374 123.471H21.0332C20.8478 123.471 20.6681 123.427 20.4943 123.34C20.3204 123.252 20.19 123.133 20.1031 122.981C19.993 123.133 19.8423 123.252 19.6511 123.34C19.4656 123.427 19.2773 123.471 19.0861 123.471H18.382C18.3472 123.471 18.3182 123.459 18.295 123.436C18.2718 123.407 18.2603 123.378 18.2603 123.348V122.325C18.2603 122.29 18.2718 122.261 18.295 122.237C18.3182 122.208 18.3472 122.194 18.382 122.194H19.1991C19.2976 122.194 19.3845 122.164 19.4599 122.106C19.5352 122.042 19.5816 121.961 19.5989 121.861L19.9293 120.217L20.9898 120.409L20.7203 121.783C20.6913 121.899 20.7087 121.998 20.7725 122.08C20.842 122.156 20.9318 122.194 21.0419 122.194H21.7374C21.7721 122.194 21.8011 122.208 21.8243 122.237C21.8474 122.261 21.8591 122.29 21.8591 122.325V123.348ZM23.691 122.194H24.8906V121.301C24.8906 121.232 24.8645 121.17 24.8123 121.118C24.7659 121.065 24.7051 121.039 24.6298 121.039H23.8822C23.8184 121.039 23.7634 121.06 23.717 121.1C23.6707 121.141 23.6417 121.193 23.6301 121.258L23.491 121.958C23.4794 122.022 23.4939 122.077 23.5345 122.124C23.575 122.171 23.6272 122.194 23.691 122.194ZM22.4131 121.87L22.587 120.969C22.616 120.8 22.6739 120.645 22.7608 120.506C22.8478 120.36 22.9521 120.237 23.0738 120.138C23.2013 120.033 23.3433 119.951 23.4997 119.893C23.6562 119.835 23.8184 119.806 23.9865 119.806H24.4733C24.6819 119.806 24.8761 119.846 25.0557 119.928C25.2354 120.004 25.3918 120.112 25.5251 120.252C25.6642 120.386 25.7714 120.544 25.8468 120.724C25.9279 120.905 25.9685 121.1 25.9685 121.31V122.316C25.9685 122.474 25.9366 122.622 25.8728 122.762C25.8149 122.902 25.7338 123.025 25.6294 123.13C25.5251 123.235 25.4034 123.319 25.2643 123.383C25.1253 123.442 24.9775 123.471 24.821 123.471H23.83C23.662 123.471 23.4968 123.439 23.3346 123.375C23.1781 123.305 23.0332 123.176 22.8999 122.99C22.7666 123.17 22.6188 123.296 22.4566 123.366C22.2943 123.436 22.1205 123.471 21.935 123.471H21.7351C21.7061 123.471 21.68 123.459 21.6569 123.436C21.6279 123.413 21.6134 123.383 21.6134 123.348V122.316C21.6134 122.234 21.6539 122.194 21.7351 122.194H22.0133C22.1118 122.194 22.1958 122.164 22.2654 122.106C22.3407 122.048 22.39 121.969 22.4131 121.87ZM28.7616 123.348C28.7616 123.43 28.7211 123.471 28.6399 123.471H28.3791C28.1589 123.471 27.9503 123.43 27.7533 123.348C27.562 123.261 27.3939 123.147 27.2491 123.007C27.1042 122.862 26.9883 122.692 26.9014 122.5C26.8202 122.302 26.7797 122.092 26.7797 121.87V117.4H27.8576V121.844C27.8576 121.943 27.8894 122.028 27.9532 122.098C28.0227 122.162 28.1067 122.194 28.2053 122.194H28.6399C28.6747 122.194 28.7037 122.208 28.7268 122.237C28.75 122.261 28.7616 122.29 28.7616 122.325V123.348ZM29.7059 120.978L28.9322 120.234L31.5746 117.12L32.3483 117.838L30.6968 119.797H33.9651C34.1738 119.797 34.368 119.838 34.5475 119.919C34.7331 119.995 34.8926 120.103 35.0256 120.243C35.1647 120.377 35.2721 120.537 35.3473 120.724C35.4286 120.905 35.469 121.1 35.469 121.31V121.958C35.469 122.173 35.4255 122.374 35.3386 122.561C35.2577 122.748 35.1447 122.908 34.9996 123.042C34.8548 123.176 34.6897 123.281 34.5041 123.357C34.3246 123.433 34.1333 123.471 33.9304 123.471H28.6367C28.6077 123.471 28.5816 123.459 28.5584 123.436C28.5294 123.413 28.515 123.383 28.515 123.348V122.316C28.515 122.246 28.5555 122.206 28.6367 122.194H34.1216C34.1855 122.194 34.2463 122.171 34.3042 122.124C34.3624 122.077 34.3911 122.01 34.3911 121.923V121.293C34.3911 121.205 34.3593 121.132 34.2955 121.074C34.232 121.01 34.1594 120.978 34.0781 120.978H29.7059ZM43.9009 121.861C43.9474 121.943 44.0139 122.019 44.1009 122.089C44.1878 122.159 44.2921 122.194 44.4138 122.194C44.5299 122.194 44.6311 122.164 44.7181 122.106C44.805 122.042 44.8545 121.961 44.8658 121.861L45.1962 120.226L46.248 120.418L45.9611 121.861C45.9672 121.954 46.002 122.033 46.0654 122.098C46.135 122.162 46.2163 122.194 46.3088 122.194H46.9956V119.946H48.0648V122.316C48.0648 122.474 48.033 122.622 47.9691 122.762C47.9113 122.902 47.8275 123.025 47.7171 123.13C47.6127 123.235 47.491 123.319 47.352 123.383C47.2129 123.442 47.0651 123.471 46.9086 123.471H46.3088C46.135 123.471 45.9785 123.436 45.8394 123.366C45.7003 123.29 45.5699 123.162 45.4482 122.981C45.3152 123.162 45.1614 123.29 44.9875 123.366C44.8137 123.436 44.6255 123.471 44.4225 123.471C44.1157 123.471 43.8605 123.392 43.6575 123.235C43.455 123.077 43.252 122.844 43.0491 122.535L42.3449 121.45C42.2641 121.322 42.1481 121.228 41.9972 121.17C41.8525 121.106 41.7047 121.083 41.5539 121.1L40.8585 121.205C40.702 121.228 40.569 121.296 40.4586 121.406C40.3486 121.517 40.2935 121.651 40.2935 121.809V121.87L41.6756 122.141C41.9251 122.188 42.125 122.311 42.2754 122.509C42.4262 122.701 42.5014 122.925 42.5014 123.182V123.48C42.5014 123.736 42.464 123.978 42.3884 124.206C42.3132 124.433 42.2059 124.631 42.0668 124.8C41.9277 124.97 41.7538 125.103 41.5452 125.203C41.3427 125.302 41.1106 125.351 40.8498 125.351H39.0765C38.7983 125.351 38.5375 125.296 38.2941 125.185C38.0507 125.08 37.8364 124.935 37.6509 124.748C37.4714 124.567 37.3266 124.351 37.2162 124.101C37.1119 123.856 37.0598 123.593 37.0598 123.313V120.943H38.1203V123.165C38.1203 123.287 38.1437 123.404 38.1898 123.515C38.242 123.625 38.3089 123.721 38.3897 123.803C38.471 123.891 38.5666 123.958 38.6766 124.004C38.7926 124.051 38.9113 124.074 39.033 124.074H40.7802C40.9602 124.074 41.1106 124.01 41.2323 123.882C41.3601 123.759 41.4235 123.605 41.4235 123.418V123.226L39.2503 122.71V121.853C39.2564 121.608 39.3025 121.38 39.3894 121.17C39.4824 120.96 39.6011 120.774 39.7458 120.61C39.8966 120.447 40.0705 120.313 40.2674 120.208C40.4647 120.097 40.6703 120.024 40.8846 119.989L41.4235 119.902C41.7482 119.844 42.0611 119.881 42.3623 120.016C42.6696 120.15 42.913 120.357 43.0925 120.637L43.9009 121.861ZM53.31 122.194H53.5708C53.5994 122.194 53.6255 122.208 53.649 122.237C53.6777 122.261 53.6924 122.29 53.6924 122.325V123.348C53.6924 123.378 53.6807 123.407 53.6577 123.436C53.6342 123.459 53.6055 123.471 53.5708 123.471H53.3969C53.1648 123.471 52.9592 123.427 52.7797 123.34C52.5998 123.252 52.452 123.156 52.3364 123.051C52.1856 123.179 52.0147 123.281 51.8235 123.357C51.6379 123.433 51.4349 123.471 51.215 123.471H50.0937C49.9254 123.471 49.7659 123.439 49.6155 123.375C49.4704 123.31 49.343 123.223 49.2331 123.112C49.1227 122.995 49.0357 122.864 48.9723 122.719C48.9084 122.567 48.8767 122.407 48.8767 122.237V121.03H49.7807V122.01C49.7807 122.063 49.7981 122.106 49.8329 122.141C49.8676 122.176 49.9111 122.194 49.9633 122.194H51.2324C51.3889 122.194 51.5162 122.138 51.6149 122.028C51.7131 121.911 51.7479 121.777 51.7192 121.625L51.0064 119.036L52.0321 118.66L52.9362 121.905C52.9592 121.987 53.0057 122.057 53.0753 122.115C53.1448 122.167 53.223 122.194 53.31 122.194ZM54.9077 119.5H55.9943V118.406H54.9077V119.5ZM57.0461 123.348C57.0461 123.378 57.0344 123.407 57.0113 123.436C56.9879 123.459 56.9592 123.471 56.9244 123.471H56.2203C56.0404 123.471 55.8609 123.427 55.6814 123.34C55.5075 123.252 55.3771 123.133 55.2902 122.981C55.1798 123.133 55.0294 123.252 54.8381 123.34C54.6526 123.427 54.467 123.471 54.2818 123.471H53.569C53.5399 123.471 53.5138 123.459 53.4908 123.436C53.4617 123.413 53.4473 123.383 53.4473 123.348V122.325C53.4473 122.29 53.4617 122.261 53.4908 122.237C53.5138 122.208 53.5399 122.194 53.569 122.194H54.3861C54.4844 122.194 54.5713 122.164 54.6469 122.106C54.7221 122.042 54.7686 121.961 54.786 121.861L55.125 120.217L56.1768 120.409L55.9074 121.791C55.8839 121.902 55.9043 121.998 55.9682 122.08C56.0317 122.156 56.1186 122.194 56.229 122.194H56.9244C56.9592 122.194 56.9879 122.208 57.0113 122.237C57.0344 122.261 57.0461 122.29 57.0461 122.325V123.348ZM57.3482 122.194V121.38C57.3482 121.176 57.3856 120.984 57.4612 120.803C57.542 120.622 57.6494 120.465 57.7828 120.331C57.9158 120.196 58.0723 120.091 58.2522 120.016C58.4317 119.934 58.623 119.893 58.8259 119.893H59.1476C59.3214 119.893 59.4836 119.923 59.6344 119.981C59.7908 120.039 59.9299 120.121 60.0516 120.226C60.1733 120.325 60.2776 120.447 60.3646 120.593C60.4515 120.733 60.5123 120.887 60.5471 121.057L60.6862 121.721C60.7323 121.931 60.7236 122.141 60.6601 122.351C60.5962 122.561 60.495 122.75 60.3559 122.92C60.2224 123.083 60.0603 123.217 59.8691 123.322C59.6778 123.421 59.4749 123.471 59.2606 123.471H59.0085C58.8981 123.471 58.7938 123.462 58.6956 123.445C58.5969 123.421 58.4982 123.392 58.4 123.357C58.4113 123.357 58.4174 123.386 58.4174 123.445C58.4113 123.532 58.4317 123.616 58.4782 123.698C58.5243 123.786 58.5999 123.838 58.7043 123.856L59.7474 124.136L60.6862 122.99C60.8887 122.745 61.1178 122.552 61.3729 122.412C61.6276 122.267 61.9119 122.194 62.2248 122.194H62.3291C62.3578 122.194 62.3839 122.206 62.4074 122.229C62.436 122.252 62.4508 122.281 62.4508 122.316V123.34C62.4508 123.415 62.41 123.459 62.3291 123.471H62.077C61.9553 123.471 61.8363 123.5 61.7206 123.558C61.6046 123.616 61.5059 123.701 61.4251 123.812C61.4016 123.847 61.3525 123.908 61.2773 123.996C61.2078 124.089 61.1265 124.194 61.0339 124.311C60.947 124.427 60.854 124.547 60.7557 124.669C60.6571 124.797 60.5671 124.914 60.4863 125.019C60.405 125.124 60.3385 125.208 60.2863 125.273C60.2342 125.343 60.2081 125.375 60.2081 125.369L58.1218 124.748C58.0058 124.713 57.9015 124.652 57.8089 124.564C57.7159 124.482 57.635 124.384 57.5655 124.267C57.5016 124.15 57.4525 124.022 57.4177 123.882C57.383 123.748 57.3656 123.611 57.3656 123.471H56.9222C56.841 123.459 56.8005 123.415 56.8005 123.34V122.316C56.8005 122.234 56.841 122.194 56.9222 122.194H57.3482ZM58.4261 121.38V122.194H59.4344C59.4979 122.194 59.5501 122.171 59.5909 122.124C59.6313 122.071 59.6457 122.013 59.6344 121.949L59.5301 121.354C59.5009 121.208 59.411 121.135 59.2606 121.135H58.6695C58.6056 121.135 58.5478 121.162 58.4956 121.214C58.4491 121.261 58.4261 121.316 58.4261 121.38ZM64.2854 122.194H65.485V121.301C65.485 121.232 65.4589 121.17 65.4068 121.118C65.3603 121.065 65.2994 121.039 65.2242 121.039H64.4767C64.4128 121.039 64.358 121.06 64.3115 121.1C64.265 121.141 64.2363 121.193 64.2246 121.258L64.0855 121.958C64.0738 122.022 64.0885 122.077 64.129 122.124C64.1694 122.171 64.2215 122.194 64.2854 122.194ZM63.0076 121.87L63.1814 120.969C63.2106 120.8 63.2684 120.645 63.3553 120.506C63.4422 120.36 63.5465 120.237 63.6682 120.138C63.7956 120.033 63.9377 119.951 64.0942 119.893C64.2506 119.835 64.4128 119.806 64.581 119.806H65.0678C65.2764 119.806 65.4707 119.846 65.6502 119.928C65.8297 120.004 65.9862 120.112 66.1196 120.252C66.2587 120.386 66.366 120.544 66.4412 120.724C66.5225 120.905 66.5629 121.1 66.5629 121.31V122.316C66.5629 122.474 66.5312 122.622 66.4673 122.762C66.4095 122.902 66.3282 123.025 66.2239 123.13C66.1196 123.235 65.9979 123.319 65.8588 123.383C65.7197 123.442 65.5719 123.471 65.4155 123.471H64.4245C64.2563 123.471 64.0911 123.439 63.929 123.375C63.7726 123.305 63.6278 123.176 63.4944 122.99C63.3609 123.17 63.2132 123.296 63.0511 123.366C62.8889 123.436 62.7151 123.471 62.5295 123.471H62.3291C62.3 123.471 62.2744 123.459 62.2513 123.436C62.2222 123.413 62.2079 123.383 62.2079 123.348V122.316C62.2079 122.234 62.2478 122.194 62.3291 122.194H62.6077C62.7064 122.194 62.7903 122.164 62.8598 122.106C62.935 122.048 62.9846 121.969 63.0076 121.87ZM71.7886 124.241C71.9685 124.241 72.1219 124.179 72.2493 124.057C72.3771 123.934 72.4405 123.783 72.4405 123.602V123.471H70.7107V122.194H74.1878C74.269 122.194 74.3095 122.232 74.3095 122.307V123.34C74.3095 123.375 74.2982 123.407 74.2747 123.436C74.2517 123.459 74.2225 123.471 74.1878 123.471H73.4837C73.501 123.488 73.5097 123.541 73.5097 123.628V123.716C73.5097 123.972 73.4606 124.209 73.3619 124.424C73.2694 124.646 73.139 124.838 72.9708 125.002C72.803 125.165 72.6057 125.29 72.3797 125.378C72.1537 125.471 71.9103 125.518 71.6495 125.518H70.1717C69.8935 125.518 69.6328 125.465 69.3894 125.36C69.146 125.255 68.9317 125.11 68.7461 124.923C68.5666 124.742 68.4219 124.526 68.3115 124.276C68.2072 124.031 68.155 123.768 68.155 123.488V121.109H69.2329V123.331C69.2329 123.453 69.2564 123.57 69.3024 123.681C69.3489 123.791 69.4128 123.888 69.4937 123.969C69.5806 124.057 69.6793 124.124 69.7892 124.171C69.8996 124.217 70.0152 124.241 70.1369 124.241H71.7886ZM74.1878 123.471C74.1586 123.471 74.1334 123.459 74.1104 123.436C74.0813 123.413 74.0669 123.383 74.0669 123.348V122.316C74.0669 122.234 74.1065 122.194 74.1878 122.194H74.4668C74.5655 122.194 74.6493 122.164 74.7189 122.106C74.7941 122.048 74.8436 121.969 74.8667 121.87L75.0405 120.969C75.0696 120.8 75.1274 120.645 75.2144 120.506C75.3013 120.36 75.4056 120.237 75.5273 120.138C75.6547 120.033 75.7968 119.951 75.9533 119.893C76.1097 119.835 76.2718 119.806 76.44 119.806H76.9268C77.1355 119.806 77.3298 119.846 77.5093 119.928C77.6888 120.004 77.8452 120.112 77.9787 120.252C78.1178 120.386 78.2251 120.544 78.3003 120.724C78.3816 120.905 78.422 121.1 78.422 121.31V121.844C78.422 121.943 78.4537 122.028 78.5176 122.098C78.5872 122.167 78.6711 122.202 78.7697 122.202H79.1087C79.1378 122.202 79.1639 122.214 79.187 122.237C79.2161 122.261 79.2304 122.29 79.2304 122.325V123.348C79.2304 123.383 79.2161 123.413 79.187 123.436C79.1639 123.459 79.1378 123.471 79.1087 123.471H78.9523C78.784 123.471 78.6189 123.445 78.4568 123.392C78.3003 123.34 78.1582 123.246 78.0308 123.112C77.9322 123.246 77.8166 123.34 77.6831 123.392C77.5497 123.445 77.4136 123.471 77.2746 123.471H76.2836C76.1154 123.471 75.9502 123.439 75.7881 123.375C75.6316 123.305 75.4869 123.176 75.3535 122.99C75.22 123.17 75.0723 123.296 74.9101 123.366C74.748 123.436 74.5742 123.471 74.3886 123.471H74.1878ZM76.1445 122.194H77.3441V121.301C77.3441 121.232 77.318 121.17 77.2659 121.118C77.2194 121.065 77.1585 121.039 77.0833 121.039H76.3357C76.2719 121.039 76.2171 121.06 76.1706 121.1C76.1241 121.141 76.0954 121.193 76.0837 121.258L75.9446 121.958C75.9328 122.022 75.9476 122.077 75.988 122.124C76.0284 122.171 76.0806 122.194 76.1445 122.194ZM82.0938 122.194C82.1229 122.194 82.149 122.206 82.172 122.229C82.2012 122.246 82.2155 122.276 82.2155 122.316V123.348C82.2155 123.383 82.2012 123.413 82.172 123.436C82.149 123.459 82.1229 123.471 82.0938 123.471H81.6679C81.4653 123.471 81.271 123.436 81.0854 123.366C80.9059 123.29 80.7464 123.176 80.6074 123.025C80.4626 123.176 80.2974 123.29 80.1119 123.366C79.9267 123.436 79.7324 123.471 79.5294 123.471H79.1122C79.0314 123.471 78.9905 123.43 78.9905 123.348V122.316C78.9905 122.234 79.0314 122.194 79.1122 122.194H79.7207C79.8194 122.194 79.9006 122.162 79.9641 122.098C80.0336 122.028 80.0684 121.943 80.0684 121.844V117.4H81.1463V121.888C81.158 121.975 81.1959 122.048 81.2593 122.106C81.3232 122.164 81.4014 122.194 81.494 122.194H82.0938ZM86.0125 123.13L84.4565 123.331C84.1144 123.378 83.7724 123.413 83.4307 123.436C83.0943 123.459 82.7614 123.471 82.4311 123.471H82.0921C82.0225 123.471 81.9817 123.43 81.9704 123.348V122.325C81.9704 122.29 81.9817 122.261 82.0051 122.237C82.0282 122.208 82.0599 122.194 82.1008 122.194H82.8309C82.7727 122.118 82.7353 122.028 82.7179 121.923L82.5615 121.065C82.5206 120.844 82.5293 120.634 82.5876 120.436C82.651 120.231 82.7497 120.054 82.8831 119.902C83.0161 119.75 83.1756 119.631 83.3612 119.543C83.5525 119.45 83.758 119.403 83.9784 119.403H85.5866V120.637H83.9349C83.8363 120.637 83.758 120.675 83.7002 120.75C83.6481 120.82 83.6307 120.902 83.6481 120.995L83.8828 122.159L85.8299 121.949L86.0125 123.13ZM87.6459 122.981V120.348H88.7238V122.832C88.7238 122.96 88.7468 123.08 88.7933 123.191C88.8398 123.296 88.9033 123.389 88.9846 123.471C89.0658 123.553 89.1615 123.616 89.2714 123.663C89.3814 123.71 89.4974 123.733 89.6191 123.733H91.1925C91.2968 123.733 91.3924 123.713 91.4794 123.672C91.5663 123.637 91.6415 123.585 91.7054 123.515C91.7749 123.45 91.8271 123.375 91.8618 123.287C91.9023 123.2 91.9227 123.106 91.9227 123.007V120.208H93.0006V121.853C93.0006 121.952 93.0297 122.033 93.0875 122.098C93.1514 122.162 93.2296 122.194 93.3222 122.194H93.8873C93.922 122.194 93.9511 122.208 93.9742 122.237C93.9972 122.261 94.009 122.29 94.009 122.325V123.348C94.009 123.378 93.9972 123.407 93.9742 123.436C93.9511 123.459 93.922 123.471 93.8873 123.471H93.5482C93.38 123.471 93.2496 123.442 93.1571 123.383C93.0701 123.325 93.0123 123.275 92.9832 123.235V123.418C92.9832 123.64 92.9341 123.847 92.8354 124.039C92.7368 124.232 92.6038 124.398 92.4356 124.538C92.2735 124.684 92.0822 124.797 91.8618 124.879C91.6476 124.967 91.4216 125.01 91.1838 125.01H89.6626C89.3844 125.01 89.1236 124.958 88.8802 124.853C88.6368 124.748 88.4226 124.602 88.237 124.416C88.0575 124.235 87.9123 124.019 87.8023 123.768C87.698 123.523 87.6459 123.261 87.6459 122.981ZM89.7756 119.115H90.8622V120.208H89.7756V119.115ZM93.8833 123.471C93.8542 123.471 93.8282 123.459 93.8051 123.436C93.776 123.413 93.7617 123.383 93.7617 123.348V122.316C93.7617 122.234 93.8021 122.194 93.8833 122.194H94.1615C94.2597 122.194 94.3441 122.164 94.4136 122.106C94.4888 122.048 94.5379 121.969 94.5614 121.87L94.7352 120.969C94.7639 120.8 94.8222 120.645 94.9091 120.506C94.996 120.36 95.1003 120.237 95.222 120.138C95.3494 120.033 95.4915 119.951 95.648 119.893C95.8045 119.835 95.9666 119.806 96.1348 119.806H96.6216C96.8302 119.806 97.024 119.846 97.204 119.928C97.3835 120.004 97.54 120.112 97.6734 120.252C97.8125 120.386 97.9194 120.544 97.995 120.724C98.0759 120.905 98.1167 121.1 98.1167 121.31V121.844C98.1167 121.943 98.1484 122.028 98.2123 122.098C98.2819 122.167 98.3657 122.202 98.4644 122.202H98.8035C98.8321 122.202 98.8582 122.214 98.8817 122.237C98.9104 122.261 98.9251 122.29 98.9251 122.325V123.348C98.9251 123.383 98.9104 123.413 98.8817 123.436C98.8582 123.459 98.8321 123.471 98.8035 123.471H98.647C98.4788 123.471 98.3136 123.445 98.1515 123.392C97.995 123.34 97.8529 123.246 97.7255 123.112C97.6269 123.246 97.5108 123.34 97.3778 123.392C97.2444 123.445 97.1084 123.471 96.9693 123.471H95.9783C95.8101 123.471 95.6449 123.439 95.4828 123.375C95.3263 123.305 95.1812 123.176 95.0482 122.99C94.9147 123.17 94.767 123.296 94.6049 123.366C94.4423 123.436 94.2684 123.471 94.0833 123.471H93.8833ZM95.8392 122.194H97.0388V121.301C97.0388 121.232 97.0127 121.17 96.9606 121.118C96.9141 121.065 96.8532 121.039 96.778 121.039H96.0305C95.9666 121.039 95.9114 121.06 95.8653 121.1C95.8188 121.141 95.7897 121.193 95.7784 121.258L95.6393 121.958C95.6275 122.022 95.6419 122.077 95.6827 122.124C95.7232 122.171 95.7753 122.194 95.8392 122.194ZM98.8069 123.471C98.7256 123.471 98.6852 123.43 98.6852 123.348V122.325C98.6852 122.296 98.6996 122.267 98.7287 122.237C98.7517 122.208 98.7778 122.194 98.8069 122.194H100.45C100.687 122.194 100.919 122.156 101.145 122.08C101.377 122.004 101.571 121.879 101.728 121.704L102.145 121.214C102.156 121.197 102.168 121.182 102.18 121.17C102.191 121.158 102.203 121.147 102.214 121.135C102.226 121.13 102.234 121.121 102.241 121.109L100.485 120.584C100.386 120.555 100.322 120.587 100.293 120.68L99.9631 121.59L99.0242 121.337L99.2676 120.506C99.3198 120.313 99.4067 120.15 99.5284 120.016C99.6501 119.876 99.7861 119.768 99.937 119.692C100.093 119.616 100.256 119.573 100.424 119.561C100.592 119.543 100.754 119.558 100.911 119.605L104.396 120.654L104.092 121.66L103.588 121.511C103.489 121.488 103.408 121.482 103.345 121.494C103.286 121.5 103.234 121.517 103.188 121.546V121.844C103.188 121.943 103.22 122.028 103.284 122.098C103.353 122.162 103.437 122.194 103.536 122.194H104.761C104.842 122.194 104.883 122.234 104.883 122.316V123.348C104.883 123.43 104.842 123.471 104.761 123.471H103.814C103.466 123.471 103.171 123.375 102.927 123.182C102.684 122.99 102.504 122.739 102.388 122.43L102.128 122.719C101.872 122.981 101.574 123.173 101.232 123.296C100.89 123.413 100.537 123.471 100.172 123.471H98.8069ZM101.197 124.529H102.284V125.623H101.197V124.529ZM106.027 122.194C106.125 122.194 106.206 122.162 106.27 122.098C106.34 122.028 106.374 121.943 106.374 121.844V119.954H107.452V121.835C107.452 122.063 107.409 122.276 107.322 122.474C107.241 122.672 107.125 122.847 106.974 122.998C106.829 123.144 106.658 123.261 106.461 123.348C106.264 123.43 106.053 123.471 105.827 123.471H104.758C104.723 123.471 104.694 123.459 104.671 123.436C104.648 123.407 104.636 123.378 104.636 123.348V122.325C104.636 122.29 104.648 122.261 104.671 122.237C104.694 122.208 104.723 122.194 104.758 122.194H106.027ZM106.357 119.237H107.444V118.144H106.357V119.237ZM109.343 123.471H108.265V117.4H109.343V123.471ZM5.65534 137.248C5.37718 137.248 5.11639 137.195 4.873 137.09C4.6296 136.985 4.41519 136.84 4.22973 136.653C4.0501 136.472 3.90523 136.256 3.7951 136.006C3.69078 135.761 3.63863 135.498 3.63863 135.218V132.585H4.71653V135.07C4.71653 135.198 4.73974 135.318 4.78607 135.428C4.83245 135.533 4.89621 135.626 4.97731 135.708C5.05846 135.79 5.15408 135.854 5.26417 135.901C5.37431 135.947 5.49018 135.971 5.61188 135.971H7.18527C7.28958 135.971 7.3852 135.95 7.47213 135.909C7.55905 135.874 7.63442 135.822 7.69814 135.752C7.76768 135.688 7.81984 135.612 7.85461 135.525C7.8952 135.437 7.91546 135.344 7.91546 135.245V132.445H8.99336V135.428C8.99336 135.679 8.94411 135.915 8.84558 136.137C8.75287 136.359 8.62248 136.551 8.45441 136.714C8.29216 136.877 8.10092 137.006 7.88069 137.099C7.6605 137.198 7.4258 137.248 7.17657 137.248H5.65534ZM5.76835 131.352H6.85494V132.445H5.76835V131.352ZM10.9135 135.717H9.8356V129.646H10.9135V135.717ZM12.9196 132.445V134.142C12.9196 134.23 12.9543 134.303 13.0239 134.361C13.0934 134.414 13.1717 134.44 13.2586 134.44H13.8149C13.8961 134.44 13.9366 134.481 13.9366 134.562V135.594C13.9366 135.676 13.8961 135.717 13.8149 135.717H13.4324C13.3455 135.717 13.2528 135.699 13.1543 135.664C13.0557 135.624 12.9746 135.563 12.9109 135.481V135.63C12.9109 135.857 12.8732 136.07 12.7979 136.268C12.7225 136.466 12.6182 136.647 12.4849 136.81C12.3574 136.974 12.2038 137.117 12.0242 137.239C11.8446 137.367 11.6475 137.466 11.4331 137.536L10.164 137.965L9.83364 136.95L11.1549 136.522C11.3636 136.457 11.5287 136.335 11.6504 136.154C11.7779 135.974 11.8417 135.773 11.8417 135.551V132.445H12.9196ZM13.8149 134.44H15.0145C15.0956 134.44 15.1362 134.481 15.1362 134.562V135.594C15.1362 135.676 15.0956 135.717 15.0145 135.717H13.8149C13.7338 135.717 13.6932 135.676 13.6932 135.594V134.562C13.6932 134.481 13.7338 134.44 13.8149 134.44ZM15.0118 134.44H16.2114C16.2925 134.44 16.3331 134.481 16.3331 134.562V135.594C16.3331 135.676 16.2925 135.717 16.2114 135.717H15.0118C14.9307 135.717 14.8901 135.676 14.8901 135.594V134.562C14.8901 134.481 14.9307 134.44 15.0118 134.44ZM16.2088 134.44H17.4084C17.4895 134.44 17.5301 134.481 17.5301 134.562V135.594C17.5301 135.676 17.4895 135.717 17.4084 135.717H16.2088C16.1276 135.717 16.0871 135.676 16.0871 135.594V134.562C16.0871 134.481 16.1276 134.44 16.2088 134.44ZM17.4057 134.44H18.6053C18.6864 134.44 18.727 134.481 18.727 134.562V135.594C18.727 135.676 18.6864 135.717 18.6053 135.717H17.4057C17.3246 135.717 17.284 135.676 17.284 135.594V134.562C17.284 134.481 17.3246 134.44 17.4057 134.44ZM18.7678 136.767H19.8457V137.86H18.7678V136.767ZM20.2977 136.767H21.3843V137.86H20.2977V136.767ZM20.8802 134.44C20.9787 134.44 21.0598 134.408 21.1236 134.344C21.1931 134.274 21.2279 134.189 21.2279 134.09V132.201H22.3058V134.081C22.3058 134.309 22.2623 134.522 22.1754 134.72C22.0942 134.918 21.9783 135.093 21.8277 135.245C21.6828 135.39 21.5118 135.507 21.3148 135.594C21.1177 135.676 20.9062 135.717 20.6802 135.717H18.6027C18.5679 135.717 18.5389 135.705 18.5157 135.682C18.4925 135.653 18.481 135.624 18.481 135.594V134.58C18.481 134.545 18.4925 134.513 18.5157 134.484C18.5389 134.454 18.5679 134.44 18.6027 134.44H20.8802ZM24.2243 135.717H23.1464V129.646H24.2243V135.717ZM27.8806 132.201H28.9672V131.107H27.8806V132.201ZM29.4192 132.201H30.5058V131.107H29.4192V132.201ZM26.8983 132.201V133.793C26.8983 133.979 26.962 134.134 27.0896 134.256C27.217 134.379 27.3706 134.44 27.5503 134.44H31.1491C31.2476 134.44 31.3287 134.408 31.3925 134.344C31.4621 134.279 31.4968 134.198 31.4968 134.099V132.454H32.5747V134.09C32.5747 134.189 32.6065 134.274 32.6704 134.344C32.7399 134.408 32.8238 134.44 32.9224 134.44H33.1745C33.2036 134.44 33.2297 134.452 33.2528 134.475C33.2819 134.498 33.2962 134.527 33.2962 134.562V135.594C33.2962 135.629 33.2819 135.659 33.2528 135.682C33.2297 135.705 33.2036 135.717 33.1745 135.717H33.0963C32.679 135.717 32.3257 135.554 32.0358 135.227C31.885 135.402 31.7172 135.528 31.5316 135.603C31.3519 135.679 31.1578 135.717 30.9491 135.717H27.6459C27.3967 135.717 27.1591 135.67 26.9331 135.577C26.7129 135.478 26.5187 135.344 26.3507 135.175C26.1884 135.005 26.058 134.81 25.9595 134.589C25.8668 134.361 25.8204 134.122 25.8204 133.871V132.201H26.8983ZM34.8127 133.285C34.8531 133.315 34.9257 133.367 35.03 133.443C35.14 133.513 35.253 133.588 35.369 133.67C35.5081 133.763 35.6559 133.863 35.8123 133.967L36.7512 133.399V133.259C36.7512 133.16 36.7164 133.078 36.6468 133.014C36.583 132.95 36.5017 132.918 36.4034 132.918H34.8127V133.285ZM36.4121 131.684C36.609 131.684 36.7916 131.723 36.9598 131.798C37.1336 131.874 37.284 131.979 37.4118 132.113C37.5448 132.241 37.6491 132.393 37.7247 132.568C37.7999 132.737 37.8377 132.921 37.8377 133.119V133.346C37.8377 133.527 37.7969 133.699 37.7161 133.863C37.6404 134.026 37.5274 134.157 37.377 134.256L37.0815 134.466C37.0871 134.466 37.1102 134.466 37.151 134.466C37.1914 134.46 37.2406 134.457 37.2988 134.457C37.3623 134.452 37.4292 134.449 37.4987 134.449C37.5683 134.443 37.6378 134.44 37.7074 134.44H38.2289C38.275 134.44 38.3041 134.454 38.3158 134.484C38.3332 134.507 38.3419 134.536 38.3419 134.571V135.594C38.3419 135.624 38.3302 135.653 38.3072 135.682C38.2898 135.705 38.2637 135.717 38.2289 135.717H37.377C37.0989 135.717 36.8207 135.685 36.5425 135.621C36.27 135.556 36.0123 135.46 35.7689 135.332C35.2586 135.589 34.7171 135.717 34.1433 135.717H33.1784C33.1437 135.717 33.1145 135.705 33.0915 135.682C33.0624 135.653 33.048 135.624 33.048 135.594V134.571C33.048 134.536 33.0593 134.507 33.0828 134.484C33.1059 134.454 33.1376 134.44 33.1784 134.44H33.8825C33.946 134.44 34.013 134.443 34.0825 134.449C34.1577 134.449 34.2242 134.452 34.2824 134.457C34.3459 134.457 34.398 134.46 34.4389 134.466C34.485 134.466 34.511 134.466 34.5171 134.466L33.7435 133.95V132.708C33.7435 132.393 33.833 132.145 34.0129 131.964C34.1924 131.778 34.4358 131.684 34.7431 131.684H36.4121ZM39.568 131.746H40.6546V130.652H39.568V131.746ZM41.7065 135.594C41.7065 135.624 41.6947 135.653 41.6717 135.682C41.6482 135.705 41.6195 135.717 41.5848 135.717H40.8806C40.7007 135.717 40.5212 135.673 40.3417 135.586C40.1678 135.498 40.0375 135.379 39.9505 135.227C39.8401 135.379 39.6897 135.498 39.4985 135.586C39.3129 135.673 39.1273 135.717 38.9422 135.717H38.2289C38.1998 135.717 38.1742 135.705 38.1511 135.682C38.122 135.659 38.1077 135.629 38.1077 135.594V134.571C38.1077 134.536 38.122 134.507 38.1511 134.484C38.1742 134.454 38.1998 134.44 38.2289 134.44H39.0465C39.1447 134.44 39.2316 134.411 39.3073 134.352C39.3824 134.288 39.429 134.207 39.4463 134.107L39.7854 132.463L40.8372 132.655L40.5677 134.037C40.5442 134.148 40.5647 134.244 40.6286 134.326C40.692 134.402 40.7789 134.44 40.8893 134.44H41.5848C41.6195 134.44 41.6482 134.454 41.6717 134.484C41.6947 134.507 41.7065 134.536 41.7065 134.571V135.594ZM46.7548 134.44C46.8591 134.44 46.946 134.402 47.0156 134.326C47.0907 134.25 47.1286 134.163 47.1286 134.064V133.653C47.1286 133.553 47.0938 133.469 47.0242 133.399C46.9547 133.323 46.8704 133.285 46.7721 133.285H45.9463C45.8129 133.285 45.6856 133.315 45.5639 133.373C45.4422 133.425 45.3348 133.501 45.2422 133.6L44.4686 134.44H46.7548ZM43.4863 133.53C43.4863 133.676 43.5006 133.772 43.5298 133.819C43.5645 133.866 43.5819 133.892 43.5819 133.898L44.6772 132.708C44.8684 132.498 45.0945 132.337 45.3552 132.227C45.616 132.11 45.8855 132.052 46.1637 132.052H46.7026C46.9112 132.052 47.1051 132.093 47.285 132.174C47.4645 132.25 47.621 132.358 47.7544 132.498C47.8935 132.632 48.0004 132.792 48.0761 132.979C48.1569 133.16 48.1978 133.352 48.1978 133.556V134.055C48.1978 134.282 48.1543 134.498 48.0674 134.702C47.9804 134.907 47.8614 135.084 47.711 135.236C47.5658 135.382 47.3919 135.498 47.1894 135.586C46.9864 135.673 46.7722 135.717 46.5461 135.717H44.1383C43.9296 135.717 43.7123 135.679 43.4863 135.603C43.2659 135.528 43.0864 135.402 42.9473 135.227C42.8022 135.402 42.637 135.528 42.4519 135.603C42.2663 135.679 42.0694 135.717 41.8607 135.717H41.5826C41.5478 135.717 41.5187 135.705 41.4957 135.682C41.4722 135.653 41.4609 135.624 41.4609 135.594V134.58C41.4609 134.545 41.4752 134.513 41.5044 134.484C41.5274 134.454 41.5535 134.44 41.5826 134.44H42.0607C42.1589 134.44 42.2402 134.408 42.3041 134.344C42.3736 134.274 42.4084 134.189 42.4084 134.09V132.585H43.4863V133.53ZM52.5068 135.463C52.5068 135.703 52.472 135.93 52.4024 136.146C52.3329 136.367 52.2312 136.569 52.0982 136.749C51.9704 136.936 51.8139 137.099 51.6288 137.239C51.4489 137.379 51.2463 137.487 51.0203 137.563L49.7512 138L49.4295 136.977L50.7161 136.539C50.9186 136.469 51.0868 136.356 51.2202 136.198C51.3532 136.046 51.4202 135.86 51.4202 135.638V135.594C51.3506 135.635 51.2637 135.668 51.1594 135.691C51.0551 135.708 50.9534 135.717 50.8551 135.717H50.377C50.151 135.717 49.9424 135.67 49.7512 135.577C49.5656 135.478 49.4061 135.35 49.2731 135.192C49.1453 135.029 49.0527 134.845 48.9949 134.641C48.9427 134.437 48.9366 134.227 48.9775 134.011L49.1253 133.207C49.154 133.037 49.2122 132.883 49.2991 132.743C49.3861 132.603 49.4904 132.48 49.6121 132.376C49.7394 132.271 49.8815 132.189 50.038 132.131C50.1945 132.072 50.3566 132.043 50.5248 132.043H51.0116C51.2202 132.043 51.4141 132.084 51.594 132.166C51.7735 132.241 51.93 132.349 52.0634 132.489C52.2025 132.623 52.3094 132.784 52.3851 132.97C52.4659 133.151 52.5068 133.346 52.5068 133.556V135.463ZM51.4289 134.44V133.548C51.4289 133.478 51.4028 133.416 51.3506 133.364C51.3041 133.311 51.2433 133.282 51.1681 133.276H50.4205C50.2927 133.276 50.2088 133.35 50.1684 133.495L50.0293 134.204C50.0176 134.262 50.0319 134.317 50.0728 134.37C50.1132 134.417 50.1654 134.44 50.2293 134.44H51.4289ZM56.9461 134.204C56.9348 134.268 56.9492 134.326 56.9896 134.379C57.0305 134.425 57.0826 134.446 57.1461 134.44H58.3457V133.548C58.3457 133.478 58.3196 133.416 58.2674 133.364C58.2153 133.311 58.1544 133.285 58.0849 133.285H57.1287L56.9461 134.204ZM57.2852 135.717C57.0591 135.717 56.8505 135.67 56.6593 135.577C56.4741 135.478 56.3177 135.35 56.1899 135.192C56.0625 135.035 55.9699 134.854 55.9117 134.65C55.8539 134.44 55.8452 134.224 55.8856 134.003L56.016 133.285H55.6075C55.5149 133.285 55.4336 133.317 55.3641 133.381C55.2945 133.446 55.2598 133.527 55.2598 133.626V137.913H54.1905V133.688C54.1905 133.46 54.2314 133.247 54.3122 133.049C54.3992 132.851 54.5152 132.679 54.66 132.533C54.8108 132.381 54.9846 132.265 55.1815 132.183C55.3788 132.096 55.5901 132.052 55.8161 132.052H57.9197C58.1284 132.052 58.3226 132.093 58.5021 132.174C58.6877 132.25 58.8472 132.358 58.9802 132.498C59.1193 132.632 59.2267 132.79 59.3019 132.97C59.3832 133.151 59.4236 133.346 59.4236 133.556V134.09C59.4236 134.189 59.4557 134.274 59.5192 134.344C59.5887 134.414 59.6731 134.446 59.7713 134.44H60.1538C60.235 134.44 60.2755 134.481 60.2755 134.562V135.594C60.2755 135.676 60.235 135.717 60.1538 135.717H59.9451C59.7774 135.717 59.6148 135.694 59.4583 135.647C59.308 135.594 59.1658 135.51 59.0324 135.393C58.8238 135.609 58.5691 135.717 58.2674 135.717H57.2852ZM60.1564 134.44H61.356C61.4372 134.44 61.4777 134.481 61.4777 134.562V135.594C61.4777 135.676 61.4372 135.717 61.356 135.717H60.1564C60.0751 135.717 60.0347 135.676 60.0347 135.594V134.562C60.0347 134.481 60.0751 134.44 60.1564 134.44ZM61.3534 134.44H62.553C62.6342 134.44 62.6747 134.481 62.6747 134.562V135.594C62.6747 135.676 62.6342 135.717 62.553 135.717H61.3534C61.2721 135.717 61.2317 135.676 61.2317 135.594V134.562C61.2317 134.481 61.2721 134.44 61.3534 134.44ZM62.5504 134.44H63.75C63.8308 134.44 63.8717 134.481 63.8717 134.562V135.594C63.8717 135.676 63.8308 135.717 63.75 135.717H62.5504C62.4691 135.717 62.4287 135.676 62.4287 135.594V134.562C62.4287 134.481 62.4691 134.44 62.5504 134.44ZM63.7473 134.44H64.9469C65.0278 134.44 65.0686 134.481 65.0686 134.562V135.594C65.0686 135.676 65.0278 135.717 64.9469 135.717H63.7473C63.6661 135.717 63.6256 135.676 63.6256 135.594V134.562C63.6256 134.481 63.6661 134.44 63.7473 134.44ZM67.9259 134.44C67.9546 134.44 67.9807 134.452 68.0042 134.475C68.0329 134.492 68.0476 134.522 68.0476 134.562V135.594C68.0476 135.629 68.0329 135.659 68.0042 135.682C67.9807 135.705 67.9546 135.717 67.9259 135.717H67.5C67.297 135.717 67.1027 135.682 66.9176 135.612C66.7376 135.536 66.5786 135.423 66.4395 135.271C66.2943 135.423 66.1292 135.536 65.944 135.612C65.7584 135.682 65.5641 135.717 65.3616 135.717H64.9443C64.8631 135.717 64.8226 135.676 64.8226 135.594V134.562C64.8226 134.481 64.8631 134.44 64.9443 134.44H65.5528C65.6511 134.44 65.7323 134.408 65.7962 134.344C65.8658 134.274 65.9005 134.189 65.9005 134.09V129.646H66.9784V134.134C66.9897 134.221 67.0275 134.294 67.0914 134.352C67.1549 134.411 67.2331 134.44 67.3261 134.44H67.9259ZM71.8442 135.376L70.2882 135.577C69.9461 135.624 69.6045 135.659 69.2625 135.682C68.9265 135.705 68.5931 135.717 68.2628 135.717H67.9238C67.8542 135.717 67.8138 135.676 67.8021 135.594V134.571C67.8021 134.536 67.8138 134.507 67.8368 134.484C67.8599 134.454 67.892 134.44 67.9325 134.44H68.6627C68.6048 134.364 68.567 134.274 68.5496 134.169L68.3932 133.311C68.3528 133.09 68.3615 132.88 68.4193 132.682C68.4832 132.477 68.5814 132.3 68.7148 132.148C68.8482 131.996 69.0073 131.877 69.1929 131.789C69.3841 131.696 69.5897 131.65 69.8101 131.65H71.4183V132.883H69.7666C69.668 132.883 69.5897 132.921 69.5319 132.997C69.4798 133.067 69.4624 133.148 69.4798 133.242L69.7145 134.405L71.6617 134.195L71.8442 135.376ZM74.7206 133.443C74.6859 133.472 74.6485 133.507 74.6076 133.548C74.5729 133.588 74.5555 133.65 74.5555 133.731V134.099C74.5555 134.139 74.5642 134.189 74.5815 134.247C74.605 134.3 74.6367 134.352 74.6772 134.405C74.718 134.457 74.7702 134.501 74.8336 134.536C74.8975 134.565 74.9701 134.58 75.051 134.58H75.503C75.6016 134.58 75.6829 134.562 75.7464 134.527C75.8159 134.487 75.8681 134.443 75.9028 134.396C75.9437 134.344 75.9698 134.294 75.9811 134.247C75.9985 134.195 76.0072 134.157 76.0072 134.134V133.766C76.0072 133.72 75.9928 133.667 75.9637 133.609C75.9407 133.545 75.8941 133.489 75.8246 133.443C75.7959 133.425 75.7464 133.396 75.6768 133.355C75.6073 133.315 75.5377 133.271 75.4682 133.224C75.3813 133.172 75.2917 133.116 75.1987 133.058L74.7206 133.443ZM74.3295 131.168C74.3295 131.168 74.3586 131.189 74.4164 131.23C74.4803 131.265 74.5585 131.314 74.6511 131.378C74.7497 131.443 74.8597 131.515 74.9814 131.597C75.1092 131.679 75.2365 131.763 75.3639 131.851C75.6712 132.055 76.0159 132.285 76.3983 132.542C76.5318 132.629 76.6417 132.725 76.7287 132.83C76.8217 132.935 76.8938 133.043 76.946 133.154C76.9981 133.265 77.0329 133.376 77.0503 133.486C77.0737 133.597 77.0851 133.702 77.0851 133.801V134.09C77.0851 134.282 77.0503 134.481 76.9807 134.685C76.9173 134.883 76.813 135.067 76.6678 135.236C76.5287 135.405 76.3492 135.545 76.1289 135.656C75.9146 135.761 75.6568 135.813 75.3552 135.813H75.1727C74.8888 135.813 74.6398 135.761 74.4251 135.656C74.2165 135.545 74.04 135.405 73.8948 135.236C73.7557 135.067 73.6514 134.88 73.5819 134.676C73.5123 134.472 73.4776 134.277 73.4776 134.09V133.828C73.4837 133.53 73.5558 133.268 73.6949 133.04C73.8401 132.813 74.0022 132.65 74.1817 132.55C74.2108 132.533 74.2338 132.519 74.2512 132.507C74.2747 132.495 74.2921 132.486 74.3034 132.48C74.3208 132.475 74.3325 132.469 74.3382 132.463L73.747 132.069L74.3295 131.168ZM79.8741 135.594C79.8741 135.676 79.8333 135.717 79.7524 135.717H79.4916C79.2713 135.717 79.0626 135.676 78.8658 135.594C78.6745 135.507 78.5063 135.393 78.3616 135.253C78.2164 135.108 78.1008 134.938 78.0139 134.746C77.9326 134.548 77.8922 134.338 77.8922 134.116V129.646H78.9701V134.09C78.9701 134.189 79.0018 134.274 79.0657 134.344C79.1352 134.408 79.2191 134.44 79.3178 134.44H79.7524C79.7872 134.44 79.8159 134.454 79.8393 134.484C79.8624 134.507 79.8741 134.536 79.8741 134.571V135.594ZM79.7489 134.44H80.9485C81.0298 134.44 81.0703 134.481 81.0703 134.562V135.594C81.0703 135.676 81.0298 135.717 80.9485 135.717H79.7489C79.6677 135.717 79.6272 135.676 79.6272 135.594V134.562C79.6272 134.481 79.6677 134.44 79.7489 134.44ZM80.9459 134.44H82.1455C82.2268 134.44 82.2672 134.481 82.2672 134.562V135.594C82.2672 135.676 82.2268 135.717 82.1455 135.717H80.9459C80.8647 135.717 80.8242 135.676 80.8242 135.594V134.562C80.8242 134.481 80.8647 134.44 80.9459 134.44ZM82.1429 134.44H83.3425C83.4238 134.44 83.4642 134.481 83.4642 134.562V135.594C83.4642 135.676 83.4238 135.717 83.3425 135.717H82.1429C82.0616 135.717 82.0212 135.676 82.0212 135.594V134.562C82.0212 134.481 82.0616 134.44 82.1429 134.44ZM83.3399 134.44H84.5395C84.6204 134.44 84.6612 134.481 84.6612 134.562V135.594C84.6612 135.676 84.6204 135.717 84.5395 135.717H83.3399C83.2586 135.717 83.2182 135.676 83.2182 135.594V134.562C83.2182 134.481 83.2586 134.44 83.3399 134.44ZM84.9455 131.448L87.0665 128.938L87.5707 129.445L85.5018 131.886L84.9455 131.448ZM92.2561 134.081C92.2561 134.181 92.2878 134.265 92.3517 134.335C92.4212 134.405 92.5051 134.44 92.6038 134.44H93.2123C93.247 134.44 93.2757 134.454 93.2992 134.484C93.3222 134.507 93.334 134.533 93.334 134.562L93.3427 135.594C93.3427 135.629 93.3279 135.659 93.2992 135.682C93.2757 135.705 93.247 135.717 93.2123 135.717H92.7863C92.589 135.717 92.4008 135.682 92.2213 135.612C92.0474 135.542 91.8879 135.449 91.7432 135.332C91.6041 135.449 91.4446 135.542 91.2651 135.612C91.0912 135.682 90.9087 135.717 90.7175 135.717H84.5369C84.4556 135.717 84.4152 135.676 84.4152 135.594V134.562C84.4152 134.533 84.4265 134.507 84.45 134.484C84.4674 134.454 84.496 134.44 84.5369 134.44H90.9174C90.9808 134.44 91.0391 134.414 91.0912 134.361C91.149 134.309 91.1782 134.242 91.1782 134.16V133.539C91.1782 133.451 91.146 133.378 91.0825 133.32C91.0243 133.256 90.9548 133.224 90.8739 133.224H86.4928L85.7191 132.48L88.3617 129.366L89.1354 130.084L87.4924 132.043H90.7609C90.9695 132.043 91.1634 132.084 91.3433 132.166C91.5228 132.241 91.6793 132.349 91.8127 132.489C91.9518 132.623 92.0587 132.784 92.1344 132.97C92.2152 133.151 92.2561 133.346 92.2561 133.556V134.081ZM95.5337 135.717C95.3307 135.717 95.1364 135.679 94.9512 135.603C94.7713 135.521 94.6092 135.393 94.4645 135.218C94.3193 135.393 94.1572 135.521 93.9777 135.603C93.7977 135.679 93.6065 135.717 93.4039 135.717H93.2123C93.1832 135.717 93.1575 135.705 93.1345 135.682C93.1053 135.653 93.091 135.624 93.091 135.594V134.571C93.091 134.536 93.1053 134.507 93.1345 134.484C93.1631 134.454 93.1923 134.44 93.2214 134.44H93.5778C93.676 134.44 93.7573 134.405 93.8212 134.335C93.8907 134.265 93.9255 134.181 93.9255 134.081V132.445H94.9947V134.116C94.9947 134.215 95.0295 134.294 95.099 134.352C95.1742 134.411 95.2525 134.44 95.3337 134.44H95.6293C95.7275 134.44 95.8144 134.408 95.8901 134.344C95.9653 134.279 96.0118 134.198 96.0291 134.099L96.3508 132.454L97.4287 132.647L97.1592 134.029C97.1301 134.139 97.1505 134.236 97.2201 134.317C97.2896 134.399 97.3765 134.44 97.4808 134.44H97.8112C97.9094 134.44 97.9907 134.408 98.0546 134.344C98.1241 134.274 98.1589 134.189 98.1589 134.09V132.218H99.2368V134.081C99.2368 134.192 99.2685 134.279 99.3324 134.344C99.4019 134.408 99.4858 134.44 99.5845 134.44H99.9322C100.013 134.44 100.054 134.481 100.054 134.562V135.586C100.054 135.621 100.042 135.653 100.019 135.682C100.002 135.705 99.9726 135.717 99.9322 135.717H99.767C99.5584 135.717 99.3611 135.679 99.1759 135.603C98.996 135.521 98.8369 135.393 98.6978 135.218C98.5527 135.393 98.3849 135.521 98.1936 135.603C98.008 135.679 97.8138 135.717 97.6112 135.717C97.4256 135.717 97.2314 135.682 97.0288 135.612C96.8315 135.536 96.6694 135.405 96.542 135.218C96.4029 135.405 96.2465 135.536 96.0726 135.612C95.9044 135.682 95.7249 135.717 95.5337 135.717ZM97.6982 131.754H96.6116V130.661H97.6982V131.754ZM96.1595 131.754H95.0729V130.661H96.1595V131.754ZM96.9158 130.337H95.8292V129.244H96.9158V130.337ZM101.205 134.44C101.303 134.44 101.385 134.408 101.448 134.344C101.518 134.274 101.553 134.189 101.553 134.09V132.201H102.63V134.081C102.63 134.309 102.587 134.522 102.5 134.72C102.419 134.918 102.303 135.093 102.152 135.245C102.008 135.39 101.837 135.507 101.639 135.594C101.443 135.676 101.231 135.717 101.005 135.717H99.9357C99.9009 135.717 99.8722 135.705 99.8487 135.682C99.8257 135.653 99.814 135.624 99.814 135.594V134.571C99.814 134.536 99.8257 134.507 99.8487 134.484C99.8722 134.454 99.9009 134.44 99.9357 134.44H101.205ZM101.535 131.483H102.622V130.39H101.535V131.483ZM104.522 135.717H103.444V129.646H104.522V135.717ZM106.563 135.717C106.394 135.717 106.235 135.685 106.084 135.621C105.934 135.556 105.803 135.469 105.693 135.358C105.583 135.242 105.496 135.11 105.433 134.965C105.369 134.813 105.337 134.653 105.337 134.484V133.276H106.25V134.265C106.25 134.317 106.267 134.361 106.302 134.396C106.337 134.425 106.377 134.44 106.424 134.44H107.866C107.965 134.44 108.052 134.419 108.127 134.379C108.209 134.332 108.269 134.274 108.31 134.204C108.35 134.128 108.371 134.046 108.371 133.959C108.376 133.866 108.353 133.775 108.301 133.688L107.197 131.711L108.11 131.116L109.283 133.207C109.434 133.475 109.501 133.758 109.483 134.055C109.472 134.347 109.399 134.618 109.266 134.868C109.133 135.113 108.944 135.318 108.701 135.481C108.458 135.638 108.179 135.717 107.866 135.717H106.563Z" fill="white"/>
</svg>
