<svg width="185" height="32" viewBox="0 0 185 32" fill="none" xmlns="http://www.w3.org/2000/svg">
<path d="M7.54961 31.5498C2.51628 31.5498 -0.00039047 29.2498 -0.00039047 24.6498V7.4498C-0.00039047 5.01647 0.64961 3.21647 1.94961 2.0498C3.28294 0.849802 4.99961 0.249802 7.09961 0.249802L12.6996 0.399803L20.5496 0.799804V6.0998H8.99961C7.23294 6.0998 6.34961 6.9498 6.34961 8.6498V12.9998L18.5496 13.3498V18.3498L6.34961 18.6498V22.8498C6.34961 24.6831 7.18294 25.5998 8.84961 25.5998H20.5496V30.8498C20.0163 30.9498 19.1663 31.0331 17.9996 31.0998L16.4496 31.2498C14.8829 31.3498 11.9163 31.4498 7.54961 31.5498ZM32.3996 31.2998C29.7996 31.2998 27.9163 30.7165 26.7496 29.5498C25.5829 28.3498 24.9996 26.4665 24.9996 23.8998V0.249802H31.3496V22.8998C31.3496 24.6998 32.2496 25.5998 34.0496 25.5998H43.8496V31.2998H32.3996ZM50.2117 0.249802H56.2617L63.3117 23.9498L70.3617 0.249802H76.3117L80.0117 31.2998H73.9617L71.5617 11.0998L66.2117 31.2998H60.3117L54.9117 11.4998L52.6617 31.2998H46.5617L50.2117 0.249802ZM83.6723 15.8498C83.6723 11.9165 84.0389 8.83314 84.7723 6.5998C85.5056 4.33314 86.7889 2.66647 88.6223 1.5998C90.4889 0.533136 93.1056 -0.000197649 96.4723 -0.000197649C99.8723 -0.000197649 102.489 0.533136 104.322 1.5998C106.156 2.66647 107.422 4.33314 108.122 6.5998C108.856 8.86647 109.222 11.9498 109.222 15.8498C109.222 19.7831 108.856 22.8665 108.122 25.0998C107.389 27.3331 106.106 28.9665 104.272 29.9998C102.472 31.0331 99.8723 31.5498 96.4723 31.5498C93.0723 31.5498 90.4556 31.0331 88.6223 29.9998C86.7889 28.9331 85.5056 27.2831 84.7723 25.0498C84.0389 22.8165 83.6723 19.7498 83.6723 15.8498ZM89.9723 15.8498C89.9723 18.4831 90.1223 20.4998 90.4223 21.8998C90.7223 23.2665 91.3389 24.2831 92.2723 24.9498C93.2056 25.5831 94.6056 25.8998 96.4723 25.8998C98.3389 25.8998 99.7389 25.5665 100.672 24.8998C101.606 24.2331 102.222 23.2165 102.522 21.8498C102.822 20.4498 102.972 18.4498 102.972 15.8498C102.972 13.1165 102.822 11.0665 102.522 9.6998C102.222 8.2998 101.606 7.28314 100.672 6.6498C99.7723 6.01647 98.3723 5.6998 96.4723 5.6998C94.6056 5.6998 93.2056 6.03314 92.2723 6.6998C91.3389 7.33314 90.7223 8.3498 90.4223 9.7498C90.1223 11.1498 89.9723 13.1831 89.9723 15.8498Z" fill="white"/>
<path d="M112.969 15.6998C112.969 9.5998 113.986 5.38314 116.019 3.0498C116.919 1.98314 118.052 1.21647 119.419 0.749805C120.819 0.249803 122.452 -0.000197649 124.319 -0.000197649C125.786 -0.000197649 127.486 0.133136 129.419 0.399803C131.352 0.66647 132.869 1.01647 133.969 1.4498V6.3498C132.969 6.1498 131.669 5.9998 130.069 5.8998C128.502 5.76647 127.019 5.6998 125.619 5.6998C124.419 5.6998 123.436 5.81647 122.669 6.0498C121.936 6.28314 121.336 6.71647 120.869 7.3498C120.269 8.01647 119.852 9.01647 119.619 10.3498C119.386 11.6831 119.269 13.4998 119.269 15.7998C119.269 17.9665 119.369 19.7331 119.569 21.0998C119.802 22.4331 120.186 23.4498 120.719 24.1498C121.219 24.7831 121.852 25.2331 122.619 25.4998C123.386 25.7665 124.386 25.8998 125.619 25.8998C129.052 25.8998 131.836 25.7665 133.969 25.4998V30.3498C132.802 30.7498 131.302 31.0498 129.469 31.2498C127.636 31.4498 125.886 31.5498 124.219 31.5498C122.319 31.5498 120.686 31.3331 119.319 30.8998C117.986 30.4665 116.852 29.7165 115.919 28.6498C113.952 26.4165 112.969 22.0998 112.969 15.6998Z" fill="#46BEF6"/>
<path d="M151.48 0.249802C154.646 0.249802 156.913 1.1498 158.28 2.9498C159.68 4.71647 160.38 7.36647 160.38 10.8998C160.38 14.4331 159.696 17.1498 158.33 19.0498C156.963 20.9498 154.763 21.8998 151.73 21.8998C150.23 21.8998 147.88 21.6665 144.68 21.1998V31.2998H138.33V0.249802H151.48ZM150.68 16.2498C151.946 16.2498 152.83 15.7998 153.33 14.8998C153.83 13.9665 154.08 12.6665 154.08 10.9998C154.08 9.36647 153.83 8.11647 153.33 7.2498C152.83 6.38314 151.996 5.9498 150.83 5.9498H144.68V16.2498H150.68Z" fill="#FFD500"/>
<path d="M163.604 15.6998C163.604 9.5998 164.621 5.38314 166.654 3.0498C167.554 1.98314 168.687 1.21647 170.054 0.749805C171.454 0.249803 173.087 -0.000197649 174.954 -0.000197649C176.421 -0.000197649 178.121 0.133136 180.054 0.399803C181.987 0.66647 183.504 1.01647 184.604 1.4498V6.3498C183.604 6.1498 182.304 5.9998 180.704 5.8998C179.137 5.76647 177.654 5.6998 176.254 5.6998C175.054 5.6998 174.071 5.81647 173.304 6.0498C172.571 6.28314 171.971 6.71647 171.504 7.3498C170.904 8.01647 170.487 9.01647 170.254 10.3498C170.021 11.6831 169.904 13.4998 169.904 15.7998C169.904 17.9665 170.004 19.7331 170.204 21.0998C170.437 22.4331 170.821 23.4498 171.354 24.1498C171.854 24.7831 172.487 25.2331 173.254 25.4998C174.021 25.7665 175.021 25.8998 176.254 25.8998C179.687 25.8998 182.471 25.7665 184.604 25.4998V30.3498C183.437 30.7498 181.937 31.0498 180.104 31.2498C178.271 31.4498 176.521 31.5498 174.854 31.5498C172.954 31.5498 171.321 31.3331 169.954 30.8998C168.621 30.4665 167.487 29.7165 166.554 28.6498C164.587 26.4165 163.604 22.0998 163.604 15.6998Z" fill="#D7263D"/>
</svg>
