<svg width="30" height="30" viewBox="0 0 30 30" fill="none" xmlns="http://www.w3.org/2000/svg">
<path d="M12.5379 11.2121C12.1718 10.846 11.5782 10.846 11.212 11.2121C10.8459 11.5782 10.8459 12.1718 11.212 12.5379L13.6741 15L11.2121 17.4621C10.846 17.8282 10.846 18.4218 11.2121 18.7879C11.5782 19.154 12.1718 19.154 12.5379 18.7879L15 16.3258L17.462 18.7879C17.8281 19.154 18.4217 19.154 18.7878 18.7879C19.154 18.4218 19.154 17.8282 18.7878 17.4621L16.3258 15L18.7879 12.5379C19.154 12.1718 19.154 11.5782 18.7879 11.2121C18.4218 10.846 17.8282 10.846 17.462 11.2121L15 13.6742L12.5379 11.2121Z" fill="#FF7700"/>
<path fill-rule="evenodd" clip-rule="evenodd" d="M15.0717 1.5625H14.9283C12.0428 1.56248 9.78149 1.56247 8.01713 1.79968C6.21121 2.04248 4.78618 2.54916 3.66767 3.66767C2.54916 4.78618 2.04248 6.21121 1.79968 8.01713C1.56247 9.78149 1.56248 12.0428 1.5625 14.9283V15.0717C1.56248 17.9572 1.56247 20.2185 1.79968 21.9829C2.04248 23.7888 2.54916 25.2138 3.66767 26.3323C4.78618 27.4508 6.21121 27.9575 8.01713 28.2003C9.78149 28.4375 12.0428 28.4375 14.9283 28.4375H15.0717C17.9572 28.4375 20.2185 28.4375 21.9829 28.2003C23.7888 27.9575 25.2138 27.4508 26.3323 26.3323C27.4508 25.2138 27.9575 23.7888 28.2003 21.9829C28.4375 20.2185 28.4375 17.9572 28.4375 15.0717V14.9283C28.4375 12.0428 28.4375 9.78149 28.2003 8.01713C27.9575 6.21121 27.4508 4.78618 26.3323 3.66767C25.2138 2.54916 23.7888 2.04248 21.9829 1.79968C20.2185 1.56247 17.9572 1.56248 15.0717 1.5625ZM4.9935 4.9935C5.70557 4.28143 6.66897 3.87281 8.26697 3.65796C9.89194 3.43949 12.0272 3.4375 15 3.4375C17.9728 3.4375 20.1081 3.43949 21.733 3.65796C23.331 3.87281 24.2944 4.28143 25.0065 4.9935C25.7186 5.70557 26.1272 6.66897 26.342 8.26697C26.5605 9.89194 26.5625 12.0272 26.5625 15C26.5625 17.9728 26.5605 20.1081 26.342 21.733C26.1272 23.331 25.7186 24.2944 25.0065 25.0065C24.2944 25.7186 23.331 26.1272 21.733 26.342C20.1081 26.5605 17.9728 26.5625 15 26.5625C12.0272 26.5625 9.89194 26.5605 8.26697 26.342C6.66897 26.1272 5.70557 25.7186 4.9935 25.0065C4.28143 24.2944 3.87281 23.331 3.65796 21.733C3.43949 20.1081 3.4375 17.9728 3.4375 15C3.4375 12.0272 3.43949 9.89194 3.65796 8.26697C3.87281 6.66897 4.28143 5.70557 4.9935 4.9935Z" fill="#FF7700"/>
</svg>
