<svg width="24" height="24" viewBox="0 0 24 24" fill="none" xmlns="http://www.w3.org/2000/svg">
<path d="M9 21.9306H15C20 21.9306 22 19.9369 22 14.9527V8.97152C22 3.98724 20 1.99353 15 1.99353H9C4 1.99353 2 3.98724 2 8.97152V14.9527C2 19.9369 4 21.9306 9 21.9306Z" stroke="#00CF8B" stroke-width="1.5" stroke-linecap="round" stroke-linejoin="round"/>
<path d="M15.5 9.7192C16.3284 9.7192 17 9.04974 17 8.22392C17 7.3981 16.3284 6.72864 15.5 6.72864C14.6716 6.72864 14 7.3981 14 8.22392C14 9.04974 14.6716 9.7192 15.5 9.7192Z" stroke="#00CF8B" stroke-width="1.5" stroke-miterlimit="10" stroke-linecap="round" stroke-linejoin="round"/>
<path d="M8.5 9.7192C9.32843 9.7192 10 9.04974 10 8.22392C10 7.3981 9.32843 6.72864 8.5 6.72864C7.67157 6.72864 7 7.3981 7 8.22392C7 9.04974 7.67157 9.7192 8.5 9.7192Z" stroke="#00CF8B" stroke-width="1.5" stroke-miterlimit="10" stroke-linecap="round" stroke-linejoin="round"/>
<path d="M8.4 13.2579H15.6C16.1 13.2579 16.5 13.6567 16.5 14.1551C16.5 16.6373 14.49 18.641 12 18.641C9.51 18.641 7.5 16.6373 7.5 14.1551C7.5 13.6567 7.9 13.2579 8.4 13.2579Z" stroke="#00CF8B" stroke-width="1.5" stroke-miterlimit="10" stroke-linecap="round" stroke-linejoin="round"/>
</svg>
