<svg width="51" height="51" viewBox="0 0 51 51" fill="none" xmlns="http://www.w3.org/2000/svg">
<path fill-rule="evenodd" clip-rule="evenodd" d="M25.4315 2.64569C19.8719 2.64569 15.3649 7.14689 15.3649 12.6994C15.3649 18.2519 19.8719 22.7531 25.4315 22.7531C30.9912 22.7531 35.4981 18.2519 35.4981 12.6994C35.4981 7.14689 30.9912 2.64569 25.4315 2.64569ZM18.5438 12.6994C18.5438 8.90031 21.6276 5.82055 25.4315 5.82055C29.2355 5.82055 32.3192 8.90031 32.3192 12.6994C32.3192 16.4985 29.2355 19.5782 25.4315 19.5782C21.6276 19.5782 18.5438 16.4985 18.5438 12.6994Z" fill="#1C274C"/>
<path fill-rule="evenodd" clip-rule="evenodd" d="M25.4315 25.928C20.5284 25.928 16.0111 27.041 12.6638 28.9215C9.36621 30.774 6.88774 33.5816 6.88774 37.04L6.8876 37.2557C6.8852 39.7149 6.8822 42.8012 9.59282 45.0057C10.9268 46.0907 12.7931 46.8622 15.3145 47.3719C17.8429 47.883 21.1383 48.1519 25.4315 48.1519C29.7247 48.1519 33.0201 47.883 35.5486 47.3719C38.07 46.8622 39.9362 46.0907 41.2702 45.0057C43.9808 42.8012 43.9778 39.7149 43.9754 37.2557L43.9753 37.04C43.9753 33.5816 41.4968 30.774 38.1993 28.9215C34.8519 27.041 30.3346 25.928 25.4315 25.928ZM10.0667 37.04C10.0667 35.238 11.3836 33.2834 14.2223 31.6886C17.0112 30.1219 20.971 29.1028 25.4315 29.1028C29.892 29.1028 33.8519 30.1219 36.6408 31.6886C39.4795 33.2834 40.7964 35.238 40.7964 37.04C40.7964 39.808 40.7109 41.3662 39.2629 42.5439C38.4776 43.1826 37.1649 43.8059 34.9179 44.2601C32.6779 44.713 29.6155 44.9771 25.4315 44.9771C21.2476 44.9771 18.1851 44.713 15.9451 44.2601C13.6981 43.8059 12.3854 43.1826 11.6002 42.5439C10.1521 41.3662 10.0667 39.808 10.0667 37.04Z" fill="#1C274C"/>
</svg>
